<svg width="540" height="264" viewBox="0 0 540 264" fill="none" xmlns="http://www.w3.org/2000/svg">
<g filter="url(#filter0_ddii)">
<rect width="470" height="264" rx="16" fill="#293661"/>
</g>
<g clip-path="url(#clip0)">
<g filter="url(#filter1_i)">
<path fill-rule="evenodd" clip-rule="evenodd" d="M55 168C55 129.34 86.3401 98 125 98C163.66 98 195 129.34 195 168C195 206.66 163.66 238 125 238C86.3401 238 55 206.66 55 168ZM175 168C175 140.386 152.614 118 125 118C97.3858 118 75 140.386 75 168C75 195.614 97.3858 218 125 218C152.614 218 175 195.614 175 168Z" fill="#1A223F"/>
</g>
<g filter="url(#filter2_ddii)">
<path fill-rule="evenodd" clip-rule="evenodd" d="M126 98C164.108 98 195 128.892 195 167C195 172.523 190.523 177 185 177C179.571 177 175.152 172.673 175.004 167.28L175 167C175 139.938 153.062 118 126 118C120.477 118 116 113.523 116 108C116 102.477 120.477 98 126 98Z" fill="#599FFF"/>
</g>
<circle cx="126" cy="108" r="4" fill="#212C50"/>
<circle cx="185" cy="168" r="4" fill="#212C50"/>
<path d="M99.296 31.208V34.736H101.368C101.891 34.736 102.334 34.568 102.698 34.232C103.062 33.8867 103.244 33.462 103.244 32.958C103.244 32.4913 103.071 32.0853 102.726 31.74C102.39 31.3853 101.965 31.208 101.452 31.208H99.296ZM99.296 40H98.008V29.976H101.424C102.292 29.976 103.029 30.2653 103.636 30.844C104.252 31.4133 104.56 32.118 104.56 32.958C104.56 33.6487 104.331 34.2647 103.874 34.806C103.426 35.338 102.857 35.6787 102.166 35.828L102.138 35.87L104.952 39.944V40H103.426L100.724 35.94H99.296V40ZM108.821 40.224C107.813 40.224 106.982 39.8787 106.329 39.188C105.676 38.4973 105.349 37.6247 105.349 36.57C105.349 35.5247 105.666 34.6567 106.301 33.966C106.936 33.266 107.748 32.916 108.737 32.916C109.754 32.916 110.562 33.2473 111.159 33.91C111.766 34.5633 112.069 35.4827 112.069 36.668L112.055 36.808H106.665C106.684 37.48 106.908 38.0213 107.337 38.432C107.766 38.8427 108.28 39.048 108.877 39.048C109.698 39.048 110.342 38.6373 110.809 37.816L111.957 38.376C111.649 38.9547 111.22 39.4073 110.669 39.734C110.128 40.0607 109.512 40.224 108.821 40.224ZM106.763 35.744H110.697C110.66 35.268 110.464 34.876 110.109 34.568C109.764 34.2507 109.297 34.092 108.709 34.092C108.224 34.092 107.804 34.2413 107.449 34.54C107.104 34.8387 106.875 35.24 106.763 35.744ZM119.811 43.024H118.523V40L118.579 39.048H118.523C118.299 39.4027 117.977 39.6873 117.557 39.902C117.147 40.1167 116.689 40.224 116.185 40.224C115.289 40.224 114.519 39.8693 113.875 39.16C113.241 38.4413 112.923 37.578 112.923 36.57C112.923 35.562 113.241 34.6987 113.875 33.98C114.519 33.2707 115.289 32.916 116.185 32.916C116.689 32.916 117.147 33.0233 117.557 33.238C117.977 33.4527 118.299 33.7373 118.523 34.092H118.579V33.14H119.811V43.024ZM116.395 39.048C117.03 39.048 117.548 38.8193 117.949 38.362C118.369 37.9047 118.579 37.3073 118.579 36.57C118.579 35.8513 118.369 35.2587 117.949 34.792C117.539 34.3253 117.021 34.092 116.395 34.092C115.779 34.092 115.261 34.3253 114.841 34.792C114.421 35.2587 114.211 35.8513 114.211 36.57C114.211 37.298 114.421 37.8907 114.841 38.348C115.261 38.8147 115.779 39.048 116.395 39.048ZM127.347 40H126.115V39.048H126.059C125.863 39.384 125.56 39.664 125.149 39.888C124.748 40.112 124.328 40.224 123.889 40.224C123.049 40.224 122.4 39.986 121.943 39.51C121.495 39.0247 121.271 38.3387 121.271 37.452V33.14H122.559V37.368C122.587 38.488 123.152 39.048 124.253 39.048C124.766 39.048 125.196 38.8427 125.541 38.432C125.886 38.012 126.059 37.5127 126.059 36.934V33.14H127.347V40ZM131.927 40.224C130.919 40.224 130.088 39.8787 129.435 39.188C128.781 38.4973 128.455 37.6247 128.455 36.57C128.455 35.5247 128.772 34.6567 129.407 33.966C130.041 33.266 130.853 32.916 131.843 32.916C132.86 32.916 133.667 33.2473 134.265 33.91C134.871 34.5633 135.175 35.4827 135.175 36.668L135.161 36.808H129.771C129.789 37.48 130.013 38.0213 130.443 38.432C130.872 38.8427 131.385 39.048 131.983 39.048C132.804 39.048 133.448 38.6373 133.915 37.816L135.062 38.376C134.755 38.9547 134.325 39.4073 133.775 39.734C133.233 40.0607 132.617 40.224 131.927 40.224ZM129.869 35.744H133.803C133.765 35.268 133.569 34.876 133.215 34.568C132.869 34.2507 132.403 34.092 131.815 34.092C131.329 34.092 130.909 34.2413 130.555 34.54C130.209 34.8387 129.981 35.24 129.869 35.744ZM141.671 38.096C141.671 38.6933 141.409 39.1973 140.887 39.608C140.364 40.0187 139.706 40.224 138.913 40.224C138.222 40.224 137.615 40.0467 137.093 39.692C136.57 39.328 136.197 38.852 135.973 38.264L137.121 37.774C137.289 38.1847 137.531 38.5067 137.849 38.74C138.175 38.964 138.53 39.076 138.913 39.076C139.323 39.076 139.664 38.9873 139.935 38.81C140.215 38.6327 140.355 38.4227 140.355 38.18C140.355 37.7413 140.019 37.4193 139.347 37.214L138.171 36.92C136.836 36.584 136.169 35.94 136.169 34.988C136.169 34.3627 136.421 33.8633 136.925 33.49C137.438 33.1073 138.091 32.916 138.885 32.916C139.491 32.916 140.037 33.0607 140.523 33.35C141.017 33.6393 141.363 34.0267 141.559 34.512L140.411 34.988C140.28 34.6987 140.065 34.4747 139.767 34.316C139.477 34.148 139.151 34.064 138.787 34.064C138.451 34.064 138.147 34.148 137.877 34.316C137.615 34.484 137.485 34.6893 137.485 34.932C137.485 35.324 137.853 35.604 138.591 35.772L139.627 36.038C140.989 36.374 141.671 37.06 141.671 38.096ZM145.439 40.112C144.879 40.112 144.413 39.9393 144.039 39.594C143.675 39.2487 143.489 38.768 143.479 38.152V34.316H142.275V33.14H143.479V31.04H144.767V33.14H146.447V34.316H144.767V37.732C144.767 38.1893 144.856 38.502 145.033 38.67C145.211 38.8287 145.411 38.908 145.635 38.908C145.738 38.908 145.836 38.8987 145.929 38.88C146.032 38.852 146.125 38.8193 146.209 38.782L146.615 39.93C146.279 40.0513 145.887 40.112 145.439 40.112ZM153.059 38.096C153.059 38.6933 152.798 39.1973 152.275 39.608C151.753 40.0187 151.095 40.224 150.301 40.224C149.611 40.224 149.004 40.0467 148.481 39.692C147.959 39.328 147.585 38.852 147.361 38.264L148.509 37.774C148.677 38.1847 148.92 38.5067 149.237 38.74C149.564 38.964 149.919 39.076 150.301 39.076C150.712 39.076 151.053 38.9873 151.323 38.81C151.603 38.6327 151.743 38.4227 151.743 38.18C151.743 37.7413 151.407 37.4193 150.735 37.214L149.559 36.92C148.225 36.584 147.557 35.94 147.557 34.988C147.557 34.3627 147.809 33.8633 148.313 33.49C148.827 33.1073 149.48 32.916 150.273 32.916C150.88 32.916 151.426 33.0607 151.911 33.35C152.406 33.6393 152.751 34.0267 152.947 34.512L151.799 34.988C151.669 34.6987 151.454 34.4747 151.155 34.316C150.866 34.148 150.539 34.064 150.175 34.064C149.839 34.064 149.536 34.148 149.265 34.316C149.004 34.484 148.873 34.6893 148.873 34.932C148.873 35.324 149.242 35.604 149.979 35.772L151.015 36.038C152.378 36.374 153.059 37.06 153.059 38.096Z" fill="#7584B5"/>
<path d="M83.2014 73.32C82.4681 73.32 81.7947 73.2133 81.1814 73C80.5814 72.7867 80.0614 72.5 79.6214 72.14C79.1814 71.7667 78.8414 71.3333 78.6014 70.84C78.3614 70.3333 78.2414 69.7867 78.2414 69.2C78.2414 68.8 78.2947 68.4267 78.4014 68.08C78.5214 67.7333 78.6747 67.42 78.8614 67.14C79.0614 66.86 79.2881 66.6133 79.5414 66.4C79.7947 66.1867 80.0614 66.0067 80.3414 65.86V65.7C79.9014 65.4067 79.5147 65.02 79.1814 64.54C78.8614 64.06 78.7014 63.5 78.7014 62.86C78.7014 62.3133 78.8147 61.8067 79.0414 61.34C79.2681 60.86 79.5814 60.4467 79.9814 60.1C80.3814 59.7533 80.8547 59.4867 81.4014 59.3C81.9481 59.1 82.5481 59 83.2014 59C83.8547 59 84.4547 59.1 85.0014 59.3C85.5481 59.4867 86.0214 59.7533 86.4214 60.1C86.8214 60.4467 87.1347 60.86 87.3614 61.34C87.5881 61.8067 87.7014 62.3133 87.7014 62.86C87.7014 63.5 87.5347 64.06 87.2014 64.54C86.8814 65.02 86.5014 65.4067 86.0614 65.7V65.86C86.3414 66.0067 86.6081 66.1867 86.8614 66.4C87.1147 66.6133 87.3347 66.86 87.5214 67.14C87.7214 67.42 87.8747 67.7333 87.9814 68.08C88.1014 68.4267 88.1614 68.8 88.1614 69.2C88.1614 69.7867 88.0414 70.3333 87.8014 70.84C87.5614 71.3333 87.2214 71.7667 86.7814 72.14C86.3414 72.5 85.8147 72.7867 85.2014 73C84.6014 73.2133 83.9347 73.32 83.2014 73.32ZM83.2014 64.72C83.7614 64.72 84.2281 64.5667 84.6014 64.26C84.9747 63.94 85.1614 63.5267 85.1614 63.02C85.1614 62.5 84.9747 62.0933 84.6014 61.8C84.2281 61.4933 83.7614 61.34 83.2014 61.34C82.6414 61.34 82.1747 61.4933 81.8014 61.8C81.4281 62.0933 81.2414 62.5 81.2414 63.02C81.2414 63.5267 81.4281 63.94 81.8014 64.26C82.1747 64.5667 82.6414 64.72 83.2014 64.72ZM83.2014 70.9C83.8814 70.9 84.4414 70.7267 84.8814 70.38C85.3214 70.02 85.5414 69.54 85.5414 68.94C85.5414 68.66 85.4814 68.4067 85.3614 68.18C85.2414 67.94 85.0747 67.7333 84.8614 67.56C84.6614 67.3867 84.4147 67.2533 84.1214 67.16C83.8414 67.0667 83.5347 67.02 83.2014 67.02C82.8681 67.02 82.5547 67.0667 82.2614 67.16C81.9814 67.2533 81.7347 67.3867 81.5214 67.56C81.3214 67.7333 81.1614 67.94 81.0414 68.18C80.9214 68.4067 80.8614 68.66 80.8614 68.94C80.8614 69.54 81.0814 70.02 81.5214 70.38C81.9614 70.7267 82.5214 70.9 83.2014 70.9ZM96.0848 73V70.48H89.7648V68.36L95.8448 59.32H98.6848V68.04H100.405V70.48H98.6848V73H96.0848ZM96.0848 63.22H95.9248L92.6648 68.04H96.0848V63.22ZM107.729 64.2C108.249 64.2 108.756 64.3133 109.249 64.54C109.742 64.7533 110.182 65.0533 110.569 65.44C110.956 65.8267 111.262 66.2933 111.489 66.84C111.729 67.3867 111.849 67.9867 111.849 68.64C111.849 69.32 111.716 69.9467 111.449 70.52C111.182 71.0933 110.822 71.5867 110.369 72C109.929 72.4133 109.416 72.74 108.829 72.98C108.256 73.2067 107.649 73.32 107.009 73.32C106.262 73.32 105.589 73.1933 104.989 72.94C104.389 72.6733 103.869 72.3267 103.429 71.9C103.002 71.46 102.669 70.9533 102.429 70.38C102.202 69.7933 102.089 69.18 102.089 68.54C102.089 67.62 102.269 66.78 102.629 66.02C103.002 65.2467 103.469 64.46 104.029 63.66L107.349 58.92L109.369 60.32L106.569 64.28L106.669 64.4C106.976 64.2667 107.329 64.2 107.729 64.2ZM106.969 70.9C107.262 70.9 107.549 70.8467 107.829 70.74C108.109 70.6333 108.356 70.48 108.569 70.28C108.782 70.08 108.949 69.8467 109.069 69.58C109.202 69.3 109.269 68.9933 109.269 68.66C109.269 68.3267 109.202 68.02 109.069 67.74C108.949 67.46 108.782 67.22 108.569 67.02C108.356 66.82 108.109 66.6667 107.829 66.56C107.549 66.4533 107.262 66.4 106.969 66.4C106.662 66.4 106.369 66.4533 106.089 66.56C105.822 66.6667 105.576 66.82 105.349 67.02C105.136 67.22 104.962 67.46 104.829 67.74C104.709 68.02 104.649 68.3267 104.649 68.66C104.649 68.9933 104.709 69.3 104.829 69.58C104.962 69.8467 105.136 70.08 105.349 70.28C105.576 70.48 105.822 70.6333 106.089 70.74C106.369 70.8467 106.662 70.9 106.969 70.9Z" fill="#599FFF"/>
<path d="M113.196 73L119.136 58.68H121.716L115.776 73H113.196ZM127.905 64.2C128.425 64.2 128.932 64.3133 129.425 64.54C129.918 64.7533 130.358 65.0533 130.745 65.44C131.132 65.8267 131.438 66.2933 131.665 66.84C131.905 67.3867 132.025 67.9867 132.025 68.64C132.025 69.32 131.892 69.9467 131.625 70.52C131.358 71.0933 130.998 71.5867 130.545 72C130.105 72.4133 129.592 72.74 129.005 72.98C128.432 73.2067 127.825 73.32 127.185 73.32C126.438 73.32 125.765 73.1933 125.165 72.94C124.565 72.6733 124.045 72.3267 123.605 71.9C123.178 71.46 122.845 70.9533 122.605 70.38C122.378 69.7933 122.265 69.18 122.265 68.54C122.265 67.62 122.445 66.78 122.805 66.02C123.178 65.2467 123.645 64.46 124.205 63.66L127.525 58.92L129.545 60.32L126.745 64.28L126.845 64.4C127.152 64.2667 127.505 64.2 127.905 64.2ZM127.145 70.9C127.438 70.9 127.725 70.8467 128.005 70.74C128.285 70.6333 128.532 70.48 128.745 70.28C128.958 70.08 129.125 69.8467 129.245 69.58C129.378 69.3 129.445 68.9933 129.445 68.66C129.445 68.3267 129.378 68.02 129.245 67.74C129.125 67.46 128.958 67.22 128.745 67.02C128.532 66.82 128.285 66.6667 128.005 66.56C127.725 66.4533 127.438 66.4 127.145 66.4C126.838 66.4 126.545 66.4533 126.265 66.56C125.998 66.6667 125.752 66.82 125.525 67.02C125.312 67.22 125.138 67.46 125.005 67.74C124.885 68.02 124.825 68.3267 124.825 68.66C124.825 68.9933 124.885 69.3 125.005 69.58C125.138 69.8467 125.312 70.08 125.525 70.28C125.752 70.48 125.998 70.6333 126.265 70.74C126.545 70.8467 126.838 70.9 127.145 70.9ZM139.452 73.32C138.572 73.32 137.779 73.14 137.072 72.78C136.365 72.4067 135.759 71.9 135.252 71.26C134.759 70.62 134.379 69.8667 134.112 69C133.845 68.12 133.712 67.1733 133.712 66.16C133.712 65.1467 133.845 64.2067 134.112 63.34C134.379 62.46 134.759 61.7 135.252 61.06C135.759 60.42 136.365 59.92 137.072 59.56C137.779 59.1867 138.572 59 139.452 59C140.332 59 141.125 59.1867 141.832 59.56C142.539 59.92 143.139 60.42 143.632 61.06C144.139 61.7 144.525 62.46 144.792 63.34C145.059 64.2067 145.192 65.1467 145.192 66.16C145.192 67.1733 145.059 68.12 144.792 69C144.525 69.8667 144.139 70.62 143.632 71.26C143.139 71.9 142.539 72.4067 141.832 72.78C141.125 73.14 140.332 73.32 139.452 73.32ZM139.452 70.84C139.932 70.84 140.365 70.7267 140.752 70.5C141.139 70.26 141.465 69.9333 141.732 69.52C142.012 69.0933 142.219 68.5933 142.352 68.02C142.499 67.4467 142.572 66.8267 142.572 66.16C142.572 65.48 142.499 64.86 142.352 64.3C142.219 63.7267 142.012 63.2333 141.732 62.82C141.465 62.3933 141.139 62.0667 140.752 61.84C140.365 61.6 139.932 61.48 139.452 61.48C138.959 61.48 138.519 61.6 138.132 61.84C137.745 62.0667 137.419 62.3933 137.152 62.82C136.885 63.2333 136.679 63.7267 136.532 64.3C136.399 64.86 136.332 65.48 136.332 66.16C136.332 66.8267 136.399 67.4467 136.532 68.02C136.679 68.5933 136.885 69.0933 137.152 69.52C137.419 69.9333 137.745 70.26 138.132 70.5C138.519 70.7267 138.959 70.84 139.452 70.84ZM152.694 73.32C151.814 73.32 151.021 73.14 150.314 72.78C149.608 72.4067 149.001 71.9 148.494 71.26C148.001 70.62 147.621 69.8667 147.354 69C147.088 68.12 146.954 67.1733 146.954 66.16C146.954 65.1467 147.088 64.2067 147.354 63.34C147.621 62.46 148.001 61.7 148.494 61.06C149.001 60.42 149.608 59.92 150.314 59.56C151.021 59.1867 151.814 59 152.694 59C153.574 59 154.368 59.1867 155.074 59.56C155.781 59.92 156.381 60.42 156.874 61.06C157.381 61.7 157.768 62.46 158.034 63.34C158.301 64.2067 158.434 65.1467 158.434 66.16C158.434 67.1733 158.301 68.12 158.034 69C157.768 69.8667 157.381 70.62 156.874 71.26C156.381 71.9 155.781 72.4067 155.074 72.78C154.368 73.14 153.574 73.32 152.694 73.32ZM152.694 70.84C153.174 70.84 153.608 70.7267 153.994 70.5C154.381 70.26 154.708 69.9333 154.974 69.52C155.254 69.0933 155.461 68.5933 155.594 68.02C155.741 67.4467 155.814 66.8267 155.814 66.16C155.814 65.48 155.741 64.86 155.594 64.3C155.461 63.7267 155.254 63.2333 154.974 62.82C154.708 62.3933 154.381 62.0667 153.994 61.84C153.608 61.6 153.174 61.48 152.694 61.48C152.201 61.48 151.761 61.6 151.374 61.84C150.988 62.0667 150.661 62.3933 150.394 62.82C150.128 63.2333 149.921 63.7267 149.774 64.3C149.641 64.86 149.574 65.48 149.574 66.16C149.574 66.8267 149.641 67.4467 149.774 68.02C149.921 68.5933 150.128 69.0933 150.394 69.52C150.661 69.9333 150.988 70.26 151.374 70.5C151.761 70.7267 152.201 70.84 152.694 70.84ZM165.936 73.32C165.056 73.32 164.263 73.14 163.556 72.78C162.85 72.4067 162.243 71.9 161.736 71.26C161.243 70.62 160.863 69.8667 160.596 69C160.33 68.12 160.196 67.1733 160.196 66.16C160.196 65.1467 160.33 64.2067 160.596 63.34C160.863 62.46 161.243 61.7 161.736 61.06C162.243 60.42 162.85 59.92 163.556 59.56C164.263 59.1867 165.056 59 165.936 59C166.816 59 167.61 59.1867 168.316 59.56C169.023 59.92 169.623 60.42 170.116 61.06C170.623 61.7 171.01 62.46 171.276 63.34C171.543 64.2067 171.676 65.1467 171.676 66.16C171.676 67.1733 171.543 68.12 171.276 69C171.01 69.8667 170.623 70.62 170.116 71.26C169.623 71.9 169.023 72.4067 168.316 72.78C167.61 73.14 166.816 73.32 165.936 73.32ZM165.936 70.84C166.416 70.84 166.85 70.7267 167.236 70.5C167.623 70.26 167.95 69.9333 168.216 69.52C168.496 69.0933 168.703 68.5933 168.836 68.02C168.983 67.4467 169.056 66.8267 169.056 66.16C169.056 65.48 168.983 64.86 168.836 64.3C168.703 63.7267 168.496 63.2333 168.216 62.82C167.95 62.3933 167.623 62.0667 167.236 61.84C166.85 61.6 166.416 61.48 165.936 61.48C165.443 61.48 165.003 61.6 164.616 61.84C164.23 62.0667 163.903 62.3933 163.636 62.82C163.37 63.2333 163.163 63.7267 163.016 64.3C162.883 64.86 162.816 65.48 162.816 66.16C162.816 66.8267 162.883 67.4467 163.016 68.02C163.163 68.5933 163.37 69.0933 163.636 69.52C163.903 69.9333 164.23 70.26 164.616 70.5C165.003 70.7267 165.443 70.84 165.936 70.84Z" fill="#7584B5"/>
<g filter="url(#filter3_ddii)">
<path d="M83.1526 73.32C82.4192 73.32 81.7459 73.2133 81.1326 73C80.5326 72.7867 80.0126 72.5 79.5726 72.14C79.1326 71.7667 78.7926 71.3333 78.5526 70.84C78.3126 70.3333 78.1926 69.7867 78.1926 69.2C78.1926 68.8 78.2459 68.4267 78.3526 68.08C78.4726 67.7333 78.6259 67.42 78.8126 67.14C79.0126 66.86 79.2392 66.6133 79.4926 66.4C79.7459 66.1867 80.0126 66.0067 80.2926 65.86V65.7C79.8526 65.4067 79.4659 65.02 79.1326 64.54C78.8126 64.06 78.6526 63.5 78.6526 62.86C78.6526 62.3133 78.7659 61.8067 78.9926 61.34C79.2192 60.86 79.5326 60.4467 79.9326 60.1C80.3326 59.7533 80.8059 59.4867 81.3526 59.3C81.8992 59.1 82.4992 59 83.1526 59C83.8059 59 84.4059 59.1 84.9526 59.3C85.4992 59.4867 85.9726 59.7533 86.3726 60.1C86.7726 60.4467 87.0859 60.86 87.3126 61.34C87.5392 61.8067 87.6526 62.3133 87.6526 62.86C87.6526 63.5 87.4859 64.06 87.1526 64.54C86.8326 65.02 86.4526 65.4067 86.0126 65.7V65.86C86.2926 66.0067 86.5592 66.1867 86.8126 66.4C87.0659 66.6133 87.2859 66.86 87.4726 67.14C87.6726 67.42 87.8259 67.7333 87.9326 68.08C88.0526 68.4267 88.1126 68.8 88.1126 69.2C88.1126 69.7867 87.9926 70.3333 87.7526 70.84C87.5126 71.3333 87.1726 71.7667 86.7326 72.14C86.2926 72.5 85.7659 72.7867 85.1526 73C84.5526 73.2133 83.8859 73.32 83.1526 73.32ZM83.1526 64.72C83.7126 64.72 84.1792 64.5667 84.5526 64.26C84.9259 63.94 85.1126 63.5267 85.1126 63.02C85.1126 62.5 84.9259 62.0933 84.5526 61.8C84.1792 61.4933 83.7126 61.34 83.1526 61.34C82.5926 61.34 82.1259 61.4933 81.7526 61.8C81.3792 62.0933 81.1926 62.5 81.1926 63.02C81.1926 63.5267 81.3792 63.94 81.7526 64.26C82.1259 64.5667 82.5926 64.72 83.1526 64.72ZM83.1526 70.9C83.8326 70.9 84.3926 70.7267 84.8326 70.38C85.2726 70.02 85.4926 69.54 85.4926 68.94C85.4926 68.66 85.4326 68.4067 85.3126 68.18C85.1926 67.94 85.0259 67.7333 84.8126 67.56C84.6126 67.3867 84.3659 67.2533 84.0726 67.16C83.7926 67.0667 83.4859 67.02 83.1526 67.02C82.8192 67.02 82.5059 67.0667 82.2126 67.16C81.9326 67.2533 81.6859 67.3867 81.4726 67.56C81.2726 67.7333 81.1126 67.94 80.9926 68.18C80.8726 68.4067 80.8126 68.66 80.8126 68.94C80.8126 69.54 81.0326 70.02 81.4726 70.38C81.9126 70.7267 82.4726 70.9 83.1526 70.9ZM96.036 73V70.48H89.716V68.36L95.796 59.32H98.636V68.04H100.356V70.48H98.636V73H96.036ZM96.036 63.22H95.876L92.616 68.04H96.036V63.22ZM107.68 64.2C108.2 64.2 108.707 64.3133 109.2 64.54C109.694 64.7533 110.134 65.0533 110.52 65.44C110.907 65.8267 111.214 66.2933 111.44 66.84C111.68 67.3867 111.8 67.9867 111.8 68.64C111.8 69.32 111.667 69.9467 111.4 70.52C111.134 71.0933 110.774 71.5867 110.32 72C109.88 72.4133 109.367 72.74 108.78 72.98C108.207 73.2067 107.6 73.32 106.96 73.32C106.214 73.32 105.54 73.1933 104.94 72.94C104.34 72.6733 103.82 72.3267 103.38 71.9C102.954 71.46 102.62 70.9533 102.38 70.38C102.154 69.7933 102.04 69.18 102.04 68.54C102.04 67.62 102.22 66.78 102.58 66.02C102.954 65.2467 103.42 64.46 103.98 63.66L107.3 58.92L109.32 60.32L106.52 64.28L106.62 64.4C106.927 64.2667 107.28 64.2 107.68 64.2ZM106.92 70.9C107.214 70.9 107.5 70.8467 107.78 70.74C108.06 70.6333 108.307 70.48 108.52 70.28C108.734 70.08 108.9 69.8467 109.02 69.58C109.154 69.3 109.22 68.9933 109.22 68.66C109.22 68.3267 109.154 68.02 109.02 67.74C108.9 67.46 108.734 67.22 108.52 67.02C108.307 66.82 108.06 66.6667 107.78 66.56C107.5 66.4533 107.214 66.4 106.92 66.4C106.614 66.4 106.32 66.4533 106.04 66.56C105.774 66.6667 105.527 66.82 105.3 67.02C105.087 67.22 104.914 67.46 104.78 67.74C104.66 68.02 104.6 68.3267 104.6 68.66C104.6 68.9933 104.66 69.3 104.78 69.58C104.914 69.8467 105.087 70.08 105.3 70.28C105.527 70.48 105.774 70.6333 106.04 70.74C106.32 70.8467 106.614 70.9 106.92 70.9Z" fill="#599FFF"/>
</g>
</g>
<g clip-path="url(#clip1)">
<g filter="url(#filter4_i)">
<path fill-rule="evenodd" clip-rule="evenodd" d="M275 168C275 129.34 306.34 98 345 98C383.66 98 415 129.34 415 168C415 206.66 383.66 238 345 238C306.34 238 275 206.66 275 168ZM395 168C395 140.386 372.614 118 345 118C317.386 118 295 140.386 295 168C295 195.614 317.386 218 345 218C372.614 218 395 195.614 395 168Z" fill="#1A223F"/>
</g>
<g filter="url(#filter5_ddii)">
<path fill-rule="evenodd" clip-rule="evenodd" d="M345 98C383.66 98 415 129.34 415 168C415 197.145 397.022 222.924 370.298 233.286C365.149 235.283 359.356 232.727 357.359 227.577C355.363 222.428 357.919 216.635 363.068 214.639C382.157 207.237 395 188.821 395 168C395 140.386 372.614 118 345 118C339.477 118 335 113.523 335 108C335 102.477 339.477 98 345 98Z" fill="#599FFF"/>
</g>
<circle cx="346" cy="108" r="4" fill="#212C50"/>
<circle cx="369" cy="223" r="4" fill="#212C50"/>
<path d="M319.296 31.208V34.736H321.368C321.891 34.736 322.334 34.568 322.698 34.232C323.062 33.8867 323.244 33.462 323.244 32.958C323.244 32.4913 323.071 32.0853 322.726 31.74C322.39 31.3853 321.965 31.208 321.452 31.208H319.296ZM319.296 40H318.008V29.976H321.424C322.292 29.976 323.029 30.2653 323.636 30.844C324.252 31.4133 324.56 32.118 324.56 32.958C324.56 33.6487 324.331 34.2647 323.874 34.806C323.426 35.338 322.857 35.6787 322.166 35.828L322.138 35.87L324.952 39.944V40H323.426L320.724 35.94H319.296V40ZM328.821 40.224C327.813 40.224 326.982 39.8787 326.329 39.188C325.676 38.4973 325.349 37.6247 325.349 36.57C325.349 35.5247 325.666 34.6567 326.301 33.966C326.936 33.266 327.748 32.916 328.737 32.916C329.754 32.916 330.562 33.2473 331.159 33.91C331.766 34.5633 332.069 35.4827 332.069 36.668L332.055 36.808H326.665C326.684 37.48 326.908 38.0213 327.337 38.432C327.766 38.8427 328.28 39.048 328.877 39.048C329.698 39.048 330.342 38.6373 330.809 37.816L331.957 38.376C331.649 38.9547 331.22 39.4073 330.669 39.734C330.128 40.0607 329.512 40.224 328.821 40.224ZM326.763 35.744H330.697C330.66 35.268 330.464 34.876 330.109 34.568C329.764 34.2507 329.297 34.092 328.709 34.092C328.224 34.092 327.804 34.2413 327.449 34.54C327.104 34.8387 326.875 35.24 326.763 35.744ZM339.811 43.024H338.523V40L338.579 39.048H338.523C338.299 39.4027 337.977 39.6873 337.557 39.902C337.147 40.1167 336.689 40.224 336.185 40.224C335.289 40.224 334.519 39.8693 333.875 39.16C333.241 38.4413 332.923 37.578 332.923 36.57C332.923 35.562 333.241 34.6987 333.875 33.98C334.519 33.2707 335.289 32.916 336.185 32.916C336.689 32.916 337.147 33.0233 337.557 33.238C337.977 33.4527 338.299 33.7373 338.523 34.092H338.579V33.14H339.811V43.024ZM336.395 39.048C337.03 39.048 337.548 38.8193 337.949 38.362C338.369 37.9047 338.579 37.3073 338.579 36.57C338.579 35.8513 338.369 35.2587 337.949 34.792C337.539 34.3253 337.021 34.092 336.395 34.092C335.779 34.092 335.261 34.3253 334.841 34.792C334.421 35.2587 334.211 35.8513 334.211 36.57C334.211 37.298 334.421 37.8907 334.841 38.348C335.261 38.8147 335.779 39.048 336.395 39.048ZM347.347 40H346.115V39.048H346.059C345.863 39.384 345.56 39.664 345.149 39.888C344.748 40.112 344.328 40.224 343.889 40.224C343.049 40.224 342.4 39.986 341.943 39.51C341.495 39.0247 341.271 38.3387 341.271 37.452V33.14H342.559V37.368C342.587 38.488 343.152 39.048 344.253 39.048C344.766 39.048 345.196 38.8427 345.541 38.432C345.886 38.012 346.059 37.5127 346.059 36.934V33.14H347.347V40ZM351.927 40.224C350.919 40.224 350.088 39.8787 349.435 39.188C348.781 38.4973 348.455 37.6247 348.455 36.57C348.455 35.5247 348.772 34.6567 349.407 33.966C350.041 33.266 350.853 32.916 351.843 32.916C352.86 32.916 353.667 33.2473 354.265 33.91C354.871 34.5633 355.175 35.4827 355.175 36.668L355.161 36.808H349.771C349.789 37.48 350.013 38.0213 350.443 38.432C350.872 38.8427 351.385 39.048 351.983 39.048C352.804 39.048 353.448 38.6373 353.915 37.816L355.062 38.376C354.755 38.9547 354.325 39.4073 353.775 39.734C353.233 40.0607 352.617 40.224 351.927 40.224ZM349.869 35.744H353.803C353.765 35.268 353.569 34.876 353.215 34.568C352.869 34.2507 352.403 34.092 351.815 34.092C351.329 34.092 350.909 34.2413 350.555 34.54C350.209 34.8387 349.981 35.24 349.869 35.744ZM361.671 38.096C361.671 38.6933 361.409 39.1973 360.887 39.608C360.364 40.0187 359.706 40.224 358.913 40.224C358.222 40.224 357.615 40.0467 357.093 39.692C356.57 39.328 356.197 38.852 355.973 38.264L357.121 37.774C357.289 38.1847 357.531 38.5067 357.849 38.74C358.175 38.964 358.53 39.076 358.913 39.076C359.323 39.076 359.664 38.9873 359.935 38.81C360.215 38.6327 360.355 38.4227 360.355 38.18C360.355 37.7413 360.019 37.4193 359.347 37.214L358.171 36.92C356.836 36.584 356.169 35.94 356.169 34.988C356.169 34.3627 356.421 33.8633 356.925 33.49C357.438 33.1073 358.091 32.916 358.885 32.916C359.491 32.916 360.037 33.0607 360.523 33.35C361.017 33.6393 361.363 34.0267 361.559 34.512L360.411 34.988C360.28 34.6987 360.065 34.4747 359.767 34.316C359.477 34.148 359.151 34.064 358.787 34.064C358.451 34.064 358.147 34.148 357.877 34.316C357.615 34.484 357.485 34.6893 357.485 34.932C357.485 35.324 357.853 35.604 358.591 35.772L359.627 36.038C360.989 36.374 361.671 37.06 361.671 38.096ZM365.439 40.112C364.879 40.112 364.413 39.9393 364.039 39.594C363.675 39.2487 363.489 38.768 363.479 38.152V34.316H362.275V33.14H363.479V31.04H364.767V33.14H366.447V34.316H364.767V37.732C364.767 38.1893 364.856 38.502 365.033 38.67C365.211 38.8287 365.411 38.908 365.635 38.908C365.738 38.908 365.836 38.8987 365.929 38.88C366.032 38.852 366.125 38.8193 366.209 38.782L366.615 39.93C366.279 40.0513 365.887 40.112 365.439 40.112ZM373.059 38.096C373.059 38.6933 372.798 39.1973 372.275 39.608C371.753 40.0187 371.095 40.224 370.301 40.224C369.611 40.224 369.004 40.0467 368.481 39.692C367.959 39.328 367.585 38.852 367.361 38.264L368.509 37.774C368.677 38.1847 368.92 38.5067 369.237 38.74C369.564 38.964 369.919 39.076 370.301 39.076C370.712 39.076 371.053 38.9873 371.323 38.81C371.603 38.6327 371.743 38.4227 371.743 38.18C371.743 37.7413 371.407 37.4193 370.735 37.214L369.559 36.92C368.225 36.584 367.557 35.94 367.557 34.988C367.557 34.3627 367.809 33.8633 368.313 33.49C368.827 33.1073 369.48 32.916 370.273 32.916C370.88 32.916 371.426 33.0607 371.911 33.35C372.406 33.6393 372.751 34.0267 372.947 34.512L371.799 34.988C371.669 34.6987 371.454 34.4747 371.155 34.316C370.866 34.148 370.539 34.064 370.175 34.064C369.839 34.064 369.536 34.148 369.265 34.316C369.004 34.484 368.873 34.6893 368.873 34.932C368.873 35.324 369.242 35.604 369.979 35.772L371.015 36.038C372.378 36.374 373.059 37.06 373.059 38.096Z" fill="#7584B5"/>
<path d="M291.115 73V70.62C291.902 69.8467 292.629 69.1267 293.295 68.46C293.575 68.18 293.862 67.8933 294.155 67.6C294.449 67.3067 294.722 67.0333 294.975 66.78C295.229 66.5267 295.455 66.3 295.655 66.1C295.855 65.8867 296.009 65.72 296.115 65.6C296.329 65.3467 296.515 65.12 296.675 64.92C296.849 64.72 296.982 64.5267 297.075 64.34C297.182 64.14 297.262 63.9467 297.315 63.76C297.369 63.56 297.395 63.3467 297.395 63.12C297.395 62.68 297.222 62.3 296.875 61.98C296.529 61.6467 296.055 61.48 295.455 61.48C294.855 61.48 294.389 61.6533 294.055 62C293.722 62.3333 293.495 62.7133 293.375 63.14L290.995 62.16C291.102 61.8 291.275 61.4333 291.515 61.06C291.755 60.6733 292.062 60.3333 292.435 60.04C292.809 59.7333 293.249 59.4867 293.755 59.3C294.275 59.1 294.855 59 295.495 59C296.189 59 296.815 59.1067 297.375 59.32C297.935 59.52 298.409 59.8 298.795 60.16C299.182 60.52 299.482 60.9467 299.695 61.44C299.909 61.92 300.015 62.44 300.015 63C300.015 63.8533 299.802 64.64 299.375 65.36C298.962 66.0667 298.455 66.7267 297.855 67.34L296.135 69.06C295.682 69.5133 295.169 70.02 294.595 70.58L294.675 70.7H300.215V73H291.115ZM308.214 73V70.48H301.894V68.36L307.974 59.32H310.814V68.04H312.534V70.48H310.814V73H308.214ZM308.214 63.22H308.054L304.794 68.04H308.214V63.22ZM320.038 73.32C319.158 73.32 318.365 73.14 317.658 72.78C316.951 72.4067 316.345 71.9 315.838 71.26C315.345 70.62 314.965 69.8667 314.698 69C314.431 68.12 314.298 67.1733 314.298 66.16C314.298 65.1467 314.431 64.2067 314.698 63.34C314.965 62.46 315.345 61.7 315.838 61.06C316.345 60.42 316.951 59.92 317.658 59.56C318.365 59.1867 319.158 59 320.038 59C320.918 59 321.711 59.1867 322.418 59.56C323.125 59.92 323.725 60.42 324.218 61.06C324.725 61.7 325.111 62.46 325.378 63.34C325.645 64.2067 325.778 65.1467 325.778 66.16C325.778 67.1733 325.645 68.12 325.378 69C325.111 69.8667 324.725 70.62 324.218 71.26C323.725 71.9 323.125 72.4067 322.418 72.78C321.711 73.14 320.918 73.32 320.038 73.32ZM320.038 70.84C320.518 70.84 320.951 70.7267 321.338 70.5C321.725 70.26 322.051 69.9333 322.318 69.52C322.598 69.0933 322.805 68.5933 322.938 68.02C323.085 67.4467 323.158 66.8267 323.158 66.16C323.158 65.48 323.085 64.86 322.938 64.3C322.805 63.7267 322.598 63.2333 322.318 62.82C322.051 62.3933 321.725 62.0667 321.338 61.84C320.951 61.6 320.518 61.48 320.038 61.48C319.545 61.48 319.105 61.6 318.718 61.84C318.331 62.0667 318.005 62.3933 317.738 62.82C317.471 63.2333 317.265 63.7267 317.118 64.3C316.985 64.86 316.918 65.48 316.918 66.16C316.918 66.8267 316.985 67.4467 317.118 68.02C317.265 68.5933 317.471 69.0933 317.738 69.52C318.005 69.9333 318.331 70.26 318.718 70.5C319.105 70.7267 319.545 70.84 320.038 70.84ZM333.28 73.32C332.4 73.32 331.607 73.14 330.9 72.78C330.193 72.4067 329.587 71.9 329.08 71.26C328.587 70.62 328.207 69.8667 327.94 69C327.673 68.12 327.54 67.1733 327.54 66.16C327.54 65.1467 327.673 64.2067 327.94 63.34C328.207 62.46 328.587 61.7 329.08 61.06C329.587 60.42 330.193 59.92 330.9 59.56C331.607 59.1867 332.4 59 333.28 59C334.16 59 334.953 59.1867 335.66 59.56C336.367 59.92 336.967 60.42 337.46 61.06C337.967 61.7 338.353 62.46 338.62 63.34C338.887 64.2067 339.02 65.1467 339.02 66.16C339.02 67.1733 338.887 68.12 338.62 69C338.353 69.8667 337.967 70.62 337.46 71.26C336.967 71.9 336.367 72.4067 335.66 72.78C334.953 73.14 334.16 73.32 333.28 73.32ZM333.28 70.84C333.76 70.84 334.193 70.7267 334.58 70.5C334.967 70.26 335.293 69.9333 335.56 69.52C335.84 69.0933 336.047 68.5933 336.18 68.02C336.327 67.4467 336.4 66.8267 336.4 66.16C336.4 65.48 336.327 64.86 336.18 64.3C336.047 63.7267 335.84 63.2333 335.56 62.82C335.293 62.3933 334.967 62.0667 334.58 61.84C334.193 61.6 333.76 61.48 333.28 61.48C332.787 61.48 332.347 61.6 331.96 61.84C331.573 62.0667 331.247 62.3933 330.98 62.82C330.713 63.2333 330.507 63.7267 330.36 64.3C330.227 64.86 330.16 65.48 330.16 66.16C330.16 66.8267 330.227 67.4467 330.36 68.02C330.507 68.5933 330.713 69.0933 330.98 69.52C331.247 69.9333 331.573 70.26 331.96 70.5C332.347 70.7267 332.787 70.84 333.28 70.84Z" fill="#599FFF"/>
<path d="M340.442 73L346.382 58.68H348.962L343.022 73H340.442ZM355.151 64.2C355.671 64.2 356.178 64.3133 356.671 64.54C357.164 64.7533 357.604 65.0533 357.991 65.44C358.378 65.8267 358.684 66.2933 358.911 66.84C359.151 67.3867 359.271 67.9867 359.271 68.64C359.271 69.32 359.138 69.9467 358.871 70.52C358.604 71.0933 358.244 71.5867 357.791 72C357.351 72.4133 356.838 72.74 356.251 72.98C355.678 73.2067 355.071 73.32 354.431 73.32C353.684 73.32 353.011 73.1933 352.411 72.94C351.811 72.6733 351.291 72.3267 350.851 71.9C350.424 71.46 350.091 70.9533 349.851 70.38C349.624 69.7933 349.511 69.18 349.511 68.54C349.511 67.62 349.691 66.78 350.051 66.02C350.424 65.2467 350.891 64.46 351.451 63.66L354.771 58.92L356.791 60.32L353.991 64.28L354.091 64.4C354.398 64.2667 354.751 64.2 355.151 64.2ZM354.391 70.9C354.684 70.9 354.971 70.8467 355.251 70.74C355.531 70.6333 355.778 70.48 355.991 70.28C356.204 70.08 356.371 69.8467 356.491 69.58C356.624 69.3 356.691 68.9933 356.691 68.66C356.691 68.3267 356.624 68.02 356.491 67.74C356.371 67.46 356.204 67.22 355.991 67.02C355.778 66.82 355.531 66.6667 355.251 66.56C354.971 66.4533 354.684 66.4 354.391 66.4C354.084 66.4 353.791 66.4533 353.511 66.56C353.244 66.6667 352.998 66.82 352.771 67.02C352.558 67.22 352.384 67.46 352.251 67.74C352.131 68.02 352.071 68.3267 352.071 68.66C352.071 68.9933 352.131 69.3 352.251 69.58C352.384 69.8467 352.558 70.08 352.771 70.28C352.998 70.48 353.244 70.6333 353.511 70.74C353.791 70.8467 354.084 70.9 354.391 70.9ZM366.698 73.32C365.818 73.32 365.025 73.14 364.318 72.78C363.611 72.4067 363.005 71.9 362.498 71.26C362.005 70.62 361.625 69.8667 361.358 69C361.091 68.12 360.958 67.1733 360.958 66.16C360.958 65.1467 361.091 64.2067 361.358 63.34C361.625 62.46 362.005 61.7 362.498 61.06C363.005 60.42 363.611 59.92 364.318 59.56C365.025 59.1867 365.818 59 366.698 59C367.578 59 368.371 59.1867 369.078 59.56C369.785 59.92 370.385 60.42 370.878 61.06C371.385 61.7 371.771 62.46 372.038 63.34C372.305 64.2067 372.438 65.1467 372.438 66.16C372.438 67.1733 372.305 68.12 372.038 69C371.771 69.8667 371.385 70.62 370.878 71.26C370.385 71.9 369.785 72.4067 369.078 72.78C368.371 73.14 367.578 73.32 366.698 73.32ZM366.698 70.84C367.178 70.84 367.611 70.7267 367.998 70.5C368.385 70.26 368.711 69.9333 368.978 69.52C369.258 69.0933 369.465 68.5933 369.598 68.02C369.745 67.4467 369.818 66.8267 369.818 66.16C369.818 65.48 369.745 64.86 369.598 64.3C369.465 63.7267 369.258 63.2333 368.978 62.82C368.711 62.3933 368.385 62.0667 367.998 61.84C367.611 61.6 367.178 61.48 366.698 61.48C366.205 61.48 365.765 61.6 365.378 61.84C364.991 62.0667 364.665 62.3933 364.398 62.82C364.131 63.2333 363.925 63.7267 363.778 64.3C363.645 64.86 363.578 65.48 363.578 66.16C363.578 66.8267 363.645 67.4467 363.778 68.02C363.925 68.5933 364.131 69.0933 364.398 69.52C364.665 69.9333 364.991 70.26 365.378 70.5C365.765 70.7267 366.205 70.84 366.698 70.84ZM379.94 73.32C379.06 73.32 378.267 73.14 377.56 72.78C376.854 72.4067 376.247 71.9 375.74 71.26C375.247 70.62 374.867 69.8667 374.6 69C374.334 68.12 374.2 67.1733 374.2 66.16C374.2 65.1467 374.334 64.2067 374.6 63.34C374.867 62.46 375.247 61.7 375.74 61.06C376.247 60.42 376.854 59.92 377.56 59.56C378.267 59.1867 379.06 59 379.94 59C380.82 59 381.614 59.1867 382.32 59.56C383.027 59.92 383.627 60.42 384.12 61.06C384.627 61.7 385.014 62.46 385.28 63.34C385.547 64.2067 385.68 65.1467 385.68 66.16C385.68 67.1733 385.547 68.12 385.28 69C385.014 69.8667 384.627 70.62 384.12 71.26C383.627 71.9 383.027 72.4067 382.32 72.78C381.614 73.14 380.82 73.32 379.94 73.32ZM379.94 70.84C380.42 70.84 380.854 70.7267 381.24 70.5C381.627 70.26 381.954 69.9333 382.22 69.52C382.5 69.0933 382.707 68.5933 382.84 68.02C382.987 67.4467 383.06 66.8267 383.06 66.16C383.06 65.48 382.987 64.86 382.84 64.3C382.707 63.7267 382.5 63.2333 382.22 62.82C381.954 62.3933 381.627 62.0667 381.24 61.84C380.854 61.6 380.42 61.48 379.94 61.48C379.447 61.48 379.007 61.6 378.62 61.84C378.234 62.0667 377.907 62.3933 377.64 62.82C377.374 63.2333 377.167 63.7267 377.02 64.3C376.887 64.86 376.82 65.48 376.82 66.16C376.82 66.8267 376.887 67.4467 377.02 68.02C377.167 68.5933 377.374 69.0933 377.64 69.52C377.907 69.9333 378.234 70.26 378.62 70.5C379.007 70.7267 379.447 70.84 379.94 70.84ZM393.183 73.32C392.303 73.32 391.509 73.14 390.803 72.78C390.096 72.4067 389.489 71.9 388.983 71.26C388.489 70.62 388.109 69.8667 387.843 69C387.576 68.12 387.443 67.1733 387.443 66.16C387.443 65.1467 387.576 64.2067 387.843 63.34C388.109 62.46 388.489 61.7 388.983 61.06C389.489 60.42 390.096 59.92 390.803 59.56C391.509 59.1867 392.303 59 393.183 59C394.063 59 394.856 59.1867 395.563 59.56C396.269 59.92 396.869 60.42 397.363 61.06C397.869 61.7 398.256 62.46 398.523 63.34C398.789 64.2067 398.923 65.1467 398.923 66.16C398.923 67.1733 398.789 68.12 398.523 69C398.256 69.8667 397.869 70.62 397.363 71.26C396.869 71.9 396.269 72.4067 395.563 72.78C394.856 73.14 394.063 73.32 393.183 73.32ZM393.183 70.84C393.663 70.84 394.096 70.7267 394.483 70.5C394.869 70.26 395.196 69.9333 395.463 69.52C395.743 69.0933 395.949 68.5933 396.083 68.02C396.229 67.4467 396.303 66.8267 396.303 66.16C396.303 65.48 396.229 64.86 396.083 64.3C395.949 63.7267 395.743 63.2333 395.463 62.82C395.196 62.3933 394.869 62.0667 394.483 61.84C394.096 61.6 393.663 61.48 393.183 61.48C392.689 61.48 392.249 61.6 391.863 61.84C391.476 62.0667 391.149 62.3933 390.883 62.82C390.616 63.2333 390.409 63.7267 390.263 64.3C390.129 64.86 390.063 65.48 390.063 66.16C390.063 66.8267 390.129 67.4467 390.263 68.02C390.409 68.5933 390.616 69.0933 390.883 69.52C391.149 69.9333 391.476 70.26 391.863 70.5C392.249 70.7267 392.689 70.84 393.183 70.84Z" fill="#7584B5"/>
<g filter="url(#filter6_ddii)">
<path d="M291.066 73V70.62C291.853 69.8467 292.58 69.1267 293.246 68.46C293.526 68.18 293.813 67.8933 294.106 67.6C294.4 67.3067 294.673 67.0333 294.926 66.78C295.18 66.5267 295.406 66.3 295.606 66.1C295.806 65.8867 295.96 65.72 296.066 65.6C296.28 65.3467 296.466 65.12 296.626 64.92C296.8 64.72 296.933 64.5267 297.026 64.34C297.133 64.14 297.213 63.9467 297.266 63.76C297.32 63.56 297.346 63.3467 297.346 63.12C297.346 62.68 297.173 62.3 296.826 61.98C296.48 61.6467 296.006 61.48 295.406 61.48C294.806 61.48 294.34 61.6533 294.006 62C293.673 62.3333 293.446 62.7133 293.326 63.14L290.946 62.16C291.053 61.8 291.226 61.4333 291.466 61.06C291.706 60.6733 292.013 60.3333 292.386 60.04C292.76 59.7333 293.2 59.4867 293.706 59.3C294.226 59.1 294.806 59 295.446 59C296.14 59 296.766 59.1067 297.326 59.32C297.886 59.52 298.36 59.8 298.746 60.16C299.133 60.52 299.433 60.9467 299.646 61.44C299.86 61.92 299.966 62.44 299.966 63C299.966 63.8533 299.753 64.64 299.326 65.36C298.913 66.0667 298.406 66.7267 297.806 67.34L296.086 69.06C295.633 69.5133 295.12 70.02 294.546 70.58L294.626 70.7H300.166V73H291.066ZM308.165 73V70.48H301.845V68.36L307.925 59.32H310.765V68.04H312.485V70.48H310.765V73H308.165ZM308.165 63.22H308.005L304.745 68.04H308.165V63.22ZM319.989 73.32C319.109 73.32 318.316 73.14 317.609 72.78C316.902 72.4067 316.296 71.9 315.789 71.26C315.296 70.62 314.916 69.8667 314.649 69C314.382 68.12 314.249 67.1733 314.249 66.16C314.249 65.1467 314.382 64.2067 314.649 63.34C314.916 62.46 315.296 61.7 315.789 61.06C316.296 60.42 316.902 59.92 317.609 59.56C318.316 59.1867 319.109 59 319.989 59C320.869 59 321.662 59.1867 322.369 59.56C323.076 59.92 323.676 60.42 324.169 61.06C324.676 61.7 325.062 62.46 325.329 63.34C325.596 64.2067 325.729 65.1467 325.729 66.16C325.729 67.1733 325.596 68.12 325.329 69C325.062 69.8667 324.676 70.62 324.169 71.26C323.676 71.9 323.076 72.4067 322.369 72.78C321.662 73.14 320.869 73.32 319.989 73.32ZM319.989 70.84C320.469 70.84 320.902 70.7267 321.289 70.5C321.676 70.26 322.002 69.9333 322.269 69.52C322.549 69.0933 322.756 68.5933 322.889 68.02C323.036 67.4467 323.109 66.8267 323.109 66.16C323.109 65.48 323.036 64.86 322.889 64.3C322.756 63.7267 322.549 63.2333 322.269 62.82C322.002 62.3933 321.676 62.0667 321.289 61.84C320.902 61.6 320.469 61.48 319.989 61.48C319.496 61.48 319.056 61.6 318.669 61.84C318.282 62.0667 317.956 62.3933 317.689 62.82C317.422 63.2333 317.216 63.7267 317.069 64.3C316.936 64.86 316.869 65.48 316.869 66.16C316.869 66.8267 316.936 67.4467 317.069 68.02C317.216 68.5933 317.422 69.0933 317.689 69.52C317.956 69.9333 318.282 70.26 318.669 70.5C319.056 70.7267 319.496 70.84 319.989 70.84ZM333.231 73.32C332.351 73.32 331.558 73.14 330.851 72.78C330.145 72.4067 329.538 71.9 329.031 71.26C328.538 70.62 328.158 69.8667 327.891 69C327.625 68.12 327.491 67.1733 327.491 66.16C327.491 65.1467 327.625 64.2067 327.891 63.34C328.158 62.46 328.538 61.7 329.031 61.06C329.538 60.42 330.145 59.92 330.851 59.56C331.558 59.1867 332.351 59 333.231 59C334.111 59 334.905 59.1867 335.611 59.56C336.318 59.92 336.918 60.42 337.411 61.06C337.918 61.7 338.305 62.46 338.571 63.34C338.838 64.2067 338.971 65.1467 338.971 66.16C338.971 67.1733 338.838 68.12 338.571 69C338.305 69.8667 337.918 70.62 337.411 71.26C336.918 71.9 336.318 72.4067 335.611 72.78C334.905 73.14 334.111 73.32 333.231 73.32ZM333.231 70.84C333.711 70.84 334.145 70.7267 334.531 70.5C334.918 70.26 335.245 69.9333 335.511 69.52C335.791 69.0933 335.998 68.5933 336.131 68.02C336.278 67.4467 336.351 66.8267 336.351 66.16C336.351 65.48 336.278 64.86 336.131 64.3C335.998 63.7267 335.791 63.2333 335.511 62.82C335.245 62.3933 334.918 62.0667 334.531 61.84C334.145 61.6 333.711 61.48 333.231 61.48C332.738 61.48 332.298 61.6 331.911 61.84C331.525 62.0667 331.198 62.3933 330.931 62.82C330.665 63.2333 330.458 63.7267 330.311 64.3C330.178 64.86 330.111 65.48 330.111 66.16C330.111 66.8267 330.178 67.4467 330.311 68.02C330.458 68.5933 330.665 69.0933 330.931 69.52C331.198 69.9333 331.525 70.26 331.911 70.5C332.298 70.7267 332.738 70.84 333.231 70.84Z" fill="#599FFF"/>
</g>
</g>
<defs>
<filter id="filter0_ddii" x="-40" y="-40" width="580" height="374" filterUnits="userSpaceOnUse" color-interpolation-filters="sRGB">
<feFlood flood-opacity="0" result="BackgroundImageFix"/>
<feColorMatrix in="SourceAlpha" type="matrix" values="0 0 0 0 0 0 0 0 0 0 0 0 0 0 0 0 0 0 127 0"/>
<feOffset dx="30" dy="30"/>
<feGaussianBlur stdDeviation="20"/>
<feColorMatrix type="matrix" values="0 0 0 0 0 0 0 0 0 0 0 0 0 0 0 0 0 0 0.2 0"/>
<feBlend mode="normal" in2="BackgroundImageFix" result="effect1_dropShadow"/>
<feColorMatrix in="SourceAlpha" type="matrix" values="0 0 0 0 0 0 0 0 0 0 0 0 0 0 0 0 0 0 127 0"/>
<feOffset dx="-10" dy="-10"/>
<feGaussianBlur stdDeviation="15"/>
<feColorMatrix type="matrix" values="0 0 0 0 0.100933 0 0 0 0 0.14801 0 0 0 0 0.303725 0 0 0 1 0"/>
<feBlend mode="normal" in2="effect1_dropShadow" result="effect2_dropShadow"/>
<feBlend mode="normal" in="SourceGraphic" in2="effect2_dropShadow" result="shape"/>
<feColorMatrix in="SourceAlpha" type="matrix" values="0 0 0 0 0 0 0 0 0 0 0 0 0 0 0 0 0 0 127 0" result="hardAlpha"/>
<feOffset dx="6" dy="6"/>
<feGaussianBlur stdDeviation="5"/>
<feComposite in2="hardAlpha" operator="arithmetic" k2="-1" k3="1"/>
<feColorMatrix type="matrix" values="0 0 0 0 0.192853 0 0 0 0 0.251381 0 0 0 0 0.444973 0 0 0 1 0"/>
<feBlend mode="normal" in2="shape" result="effect3_innerShadow"/>
<feColorMatrix in="SourceAlpha" type="matrix" values="0 0 0 0 0 0 0 0 0 0 0 0 0 0 0 0 0 0 127 0" result="hardAlpha"/>
<feOffset dx="-6" dy="-6"/>
<feGaussianBlur stdDeviation="5"/>
<feComposite in2="hardAlpha" operator="arithmetic" k2="-1" k3="1"/>
<feColorMatrix type="matrix" values="0 0 0 0 0.103918 0 0 0 0 0.154724 0 0 0 0 0.322775 0 0 0 1 0"/>
<feBlend mode="normal" in2="effect3_innerShadow" result="effect4_innerShadow"/>
</filter>
<filter id="filter1_i" x="55" y="98" width="143" height="143" filterUnits="userSpaceOnUse" color-interpolation-filters="sRGB">
<feFlood flood-opacity="0" result="BackgroundImageFix"/>
<feBlend mode="normal" in="SourceGraphic" in2="BackgroundImageFix" result="shape"/>
<feColorMatrix in="SourceAlpha" type="matrix" values="0 0 0 0 0 0 0 0 0 0 0 0 0 0 0 0 0 0 127 0" result="hardAlpha"/>
<feOffset dx="3" dy="3"/>
<feGaussianBlur stdDeviation="5"/>
<feComposite in2="hardAlpha" operator="arithmetic" k2="-1" k3="1"/>
<feColorMatrix type="matrix" values="0 0 0 0 0 0 0 0 0 0 0 0 0 0 0 0 0 0 0.1 0"/>
<feBlend mode="normal" in2="shape" result="effect1_innerShadow"/>
</filter>
<filter id="filter2_ddii" x="76" y="58" width="159" height="159" filterUnits="userSpaceOnUse" color-interpolation-filters="sRGB">
<feFlood flood-opacity="0" result="BackgroundImageFix"/>
<feColorMatrix in="SourceAlpha" type="matrix" values="0 0 0 0 0 0 0 0 0 0 0 0 0 0 0 0 0 0 127 0"/>
<feOffset dx="10" dy="10"/>
<feGaussianBlur stdDeviation="15"/>
<feColorMatrix type="matrix" values="0 0 0 0 0.0344006 0 0 0 0 0.24043 0 0 0 0 0.522985 0 0 0 0.4 0"/>
<feBlend mode="normal" in2="BackgroundImageFix" result="effect1_dropShadow"/>
<feColorMatrix in="SourceAlpha" type="matrix" values="0 0 0 0 0 0 0 0 0 0 0 0 0 0 0 0 0 0 127 0"/>
<feOffset dx="-10" dy="-10"/>
<feGaussianBlur stdDeviation="15"/>
<feColorMatrix type="matrix" values="0 0 0 0 0.106163 0 0 0 0 0.257163 0 0 0 0 0.464249 0 0 0 0.6 0"/>
<feBlend mode="normal" in2="effect1_dropShadow" result="effect2_dropShadow"/>
<feBlend mode="normal" in="SourceGraphic" in2="effect2_dropShadow" result="shape"/>
<feColorMatrix in="SourceAlpha" type="matrix" values="0 0 0 0 0 0 0 0 0 0 0 0 0 0 0 0 0 0 127 0" result="hardAlpha"/>
<feOffset dx="10" dy="10"/>
<feGaussianBlur stdDeviation="5"/>
<feComposite in2="hardAlpha" operator="arithmetic" k2="-1" k3="1"/>
<feColorMatrix type="matrix" values="0 0 0 0 0.498171 0 0 0 0 0.709785 0 0 0 0 1 0 0 0 1 0"/>
<feBlend mode="normal" in2="shape" result="effect3_innerShadow"/>
<feColorMatrix in="SourceAlpha" type="matrix" values="0 0 0 0 0 0 0 0 0 0 0 0 0 0 0 0 0 0 127 0" result="hardAlpha"/>
<feOffset dx="-10" dy="-10"/>
<feGaussianBlur stdDeviation="5"/>
<feComposite in2="hardAlpha" operator="arithmetic" k2="-1" k3="1"/>
<feColorMatrix type="matrix" values="0 0 0 0 0.228705 0 0 0 0 0.550273 0 0 0 0 0.991282 0 0 0 1 0"/>
<feBlend mode="normal" in2="effect3_innerShadow" result="effect4_innerShadow"/>
</filter>
<filter id="filter3_ddii" x="38.1926" y="18.9199" width="113.608" height="94.4" filterUnits="userSpaceOnUse" color-interpolation-filters="sRGB">
<feFlood flood-opacity="0" result="BackgroundImageFix"/>
<feColorMatrix in="SourceAlpha" type="matrix" values="0 0 0 0 0 0 0 0 0 0 0 0 0 0 0 0 0 0 127 0"/>
<feOffset dx="10" dy="10"/>
<feGaussianBlur stdDeviation="15"/>
<feColorMatrix type="matrix" values="0 0 0 0 0.0344006 0 0 0 0 0.24043 0 0 0 0 0.522985 0 0 0 0.4 0"/>
<feBlend mode="normal" in2="BackgroundImageFix" result="effect1_dropShadow"/>
<feColorMatrix in="SourceAlpha" type="matrix" values="0 0 0 0 0 0 0 0 0 0 0 0 0 0 0 0 0 0 127 0"/>
<feOffset dx="-10" dy="-10"/>
<feGaussianBlur stdDeviation="15"/>
<feColorMatrix type="matrix" values="0 0 0 0 0.106163 0 0 0 0 0.257163 0 0 0 0 0.464249 0 0 0 0.6 0"/>
<feBlend mode="normal" in2="effect1_dropShadow" result="effect2_dropShadow"/>
<feBlend mode="normal" in="SourceGraphic" in2="effect2_dropShadow" result="shape"/>
<feColorMatrix in="SourceAlpha" type="matrix" values="0 0 0 0 0 0 0 0 0 0 0 0 0 0 0 0 0 0 127 0" result="hardAlpha"/>
<feOffset dx="10" dy="10"/>
<feGaussianBlur stdDeviation="5"/>
<feComposite in2="hardAlpha" operator="arithmetic" k2="-1" k3="1"/>
<feColorMatrix type="matrix" values="0 0 0 0 0.498171 0 0 0 0 0.709785 0 0 0 0 1 0 0 0 1 0"/>
<feBlend mode="normal" in2="shape" result="effect3_innerShadow"/>
<feColorMatrix in="SourceAlpha" type="matrix" values="0 0 0 0 0 0 0 0 0 0 0 0 0 0 0 0 0 0 127 0" result="hardAlpha"/>
<feOffset dx="-10" dy="-10"/>
<feGaussianBlur stdDeviation="5"/>
<feComposite in2="hardAlpha" operator="arithmetic" k2="-1" k3="1"/>
<feColorMatrix type="matrix" values="0 0 0 0 0.228705 0 0 0 0 0.550273 0 0 0 0 0.991282 0 0 0 1 0"/>
<feBlend mode="normal" in2="effect3_innerShadow" result="effect4_innerShadow"/>
</filter>
<filter id="filter4_i" x="275" y="98" width="143" height="143" filterUnits="userSpaceOnUse" color-interpolation-filters="sRGB">
<feFlood flood-opacity="0" result="BackgroundImageFix"/>
<feBlend mode="normal" in="SourceGraphic" in2="BackgroundImageFix" result="shape"/>
<feColorMatrix in="SourceAlpha" type="matrix" values="0 0 0 0 0 0 0 0 0 0 0 0 0 0 0 0 0 0 127 0" result="hardAlpha"/>
<feOffset dx="3" dy="3"/>
<feGaussianBlur stdDeviation="5"/>
<feComposite in2="hardAlpha" operator="arithmetic" k2="-1" k3="1"/>
<feColorMatrix type="matrix" values="0 0 0 0 0 0 0 0 0 0 0 0 0 0 0 0 0 0 0.1 0"/>
<feBlend mode="normal" in2="shape" result="effect1_innerShadow"/>
</filter>
<filter id="filter5_ddii" x="295" y="58" width="160" height="215.965" filterUnits="userSpaceOnUse" color-interpolation-filters="sRGB">
<feFlood flood-opacity="0" result="BackgroundImageFix"/>
<feColorMatrix in="SourceAlpha" type="matrix" values="0 0 0 0 0 0 0 0 0 0 0 0 0 0 0 0 0 0 127 0"/>
<feOffset dx="10" dy="10"/>
<feGaussianBlur stdDeviation="15"/>
<feColorMatrix type="matrix" values="0 0 0 0 0.0344006 0 0 0 0 0.24043 0 0 0 0 0.522985 0 0 0 0.4 0"/>
<feBlend mode="normal" in2="BackgroundImageFix" result="effect1_dropShadow"/>
<feColorMatrix in="SourceAlpha" type="matrix" values="0 0 0 0 0 0 0 0 0 0 0 0 0 0 0 0 0 0 127 0"/>
<feOffset dx="-10" dy="-10"/>
<feGaussianBlur stdDeviation="15"/>
<feColorMatrix type="matrix" values="0 0 0 0 0.106163 0 0 0 0 0.257163 0 0 0 0 0.464249 0 0 0 0.6 0"/>
<feBlend mode="normal" in2="effect1_dropShadow" result="effect2_dropShadow"/>
<feBlend mode="normal" in="SourceGraphic" in2="effect2_dropShadow" result="shape"/>
<feColorMatrix in="SourceAlpha" type="matrix" values="0 0 0 0 0 0 0 0 0 0 0 0 0 0 0 0 0 0 127 0" result="hardAlpha"/>
<feOffset dx="10" dy="10"/>
<feGaussianBlur stdDeviation="5"/>
<feComposite in2="hardAlpha" operator="arithmetic" k2="-1" k3="1"/>
<feColorMatrix type="matrix" values="0 0 0 0 0.498171 0 0 0 0 0.709785 0 0 0 0 1 0 0 0 1 0"/>
<feBlend mode="normal" in2="shape" result="effect3_innerShadow"/>
<feColorMatrix in="SourceAlpha" type="matrix" values="0 0 0 0 0 0 0 0 0 0 0 0 0 0 0 0 0 0 127 0" result="hardAlpha"/>
<feOffset dx="-10" dy="-10"/>
<feGaussianBlur stdDeviation="5"/>
<feComposite in2="hardAlpha" operator="arithmetic" k2="-1" k3="1"/>
<feColorMatrix type="matrix" values="0 0 0 0 0.228705 0 0 0 0 0.550273 0 0 0 0 0.991282 0 0 0 1 0"/>
<feBlend mode="normal" in2="effect3_innerShadow" result="effect4_innerShadow"/>
</filter>
<filter id="filter6_ddii" x="250.946" y="19" width="128.025" height="94.32" filterUnits="userSpaceOnUse" color-interpolation-filters="sRGB">
<feFlood flood-opacity="0" result="BackgroundImageFix"/>
<feColorMatrix in="SourceAlpha" type="matrix" values="0 0 0 0 0 0 0 0 0 0 0 0 0 0 0 0 0 0 127 0"/>
<feOffset dx="10" dy="10"/>
<feGaussianBlur stdDeviation="15"/>
<feColorMatrix type="matrix" values="0 0 0 0 0.0344006 0 0 0 0 0.24043 0 0 0 0 0.522985 0 0 0 0.4 0"/>
<feBlend mode="normal" in2="BackgroundImageFix" result="effect1_dropShadow"/>
<feColorMatrix in="SourceAlpha" type="matrix" values="0 0 0 0 0 0 0 0 0 0 0 0 0 0 0 0 0 0 127 0"/>
<feOffset dx="-10" dy="-10"/>
<feGaussianBlur stdDeviation="15"/>
<feColorMatrix type="matrix" values="0 0 0 0 0.106163 0 0 0 0 0.257163 0 0 0 0 0.464249 0 0 0 0.6 0"/>
<feBlend mode="normal" in2="effect1_dropShadow" result="effect2_dropShadow"/>
<feBlend mode="normal" in="SourceGraphic" in2="effect2_dropShadow" result="shape"/>
<feColorMatrix in="SourceAlpha" type="matrix" values="0 0 0 0 0 0 0 0 0 0 0 0 0 0 0 0 0 0 127 0" result="hardAlpha"/>
<feOffset dx="10" dy="10"/>
<feGaussianBlur stdDeviation="5"/>
<feComposite in2="hardAlpha" operator="arithmetic" k2="-1" k3="1"/>
<feColorMatrix type="matrix" values="0 0 0 0 0.498171 0 0 0 0 0.709785 0 0 0 0 1 0 0 0 1 0"/>
<feBlend mode="normal" in2="shape" result="effect3_innerShadow"/>
<feColorMatrix in="SourceAlpha" type="matrix" values="0 0 0 0 0 0 0 0 0 0 0 0 0 0 0 0 0 0 127 0" result="hardAlpha"/>
<feOffset dx="-10" dy="-10"/>
<feGaussianBlur stdDeviation="5"/>
<feComposite in2="hardAlpha" operator="arithmetic" k2="-1" k3="1"/>
<feColorMatrix type="matrix" values="0 0 0 0 0.228705 0 0 0 0 0.550273 0 0 0 0 0.991282 0 0 0 1 0"/>
<feBlend mode="normal" in2="effect3_innerShadow" result="effect4_innerShadow"/>
</filter>
<clipPath id="clip0">
<rect width="140" height="211" fill="white" transform="translate(55 27)"/>
</clipPath>
<clipPath id="clip1">
<rect width="140" height="211" fill="white" transform="translate(275 27)"/>
</clipPath>
</defs>
</svg>
