<svg width="470" height="251" viewBox="0 0 470 251" fill="none" xmlns="http://www.w3.org/2000/svg">
<g clip-path="url(#clip0)">
<g filter="url(#filter0_ddii)">
<rect width="470" height="250.667" rx="16" fill="#293661"/>
</g>
<path d="M48.6747 23.8812L47.324 27.6099H50.0715L48.7208 23.8812H48.6747ZM46.1581 30.8422H44.9806L48.0975 22.5768H49.298L52.4149 30.8422H51.2374L50.4409 28.6027H46.9662L46.1581 30.8422ZM55.6162 31.0269C54.7774 31.0269 54.0809 30.7421 53.5268 30.1726C52.9804 29.5877 52.7072 28.8682 52.7072 28.0139C52.7072 27.1443 52.9804 26.4247 53.5268 25.8552C54.0809 25.2857 54.7774 25.001 55.6162 25.001C56.1934 25.001 56.6975 25.1472 57.1285 25.4396C57.5594 25.7244 57.8827 26.1207 58.0982 26.6287L57.1285 27.0327C56.8283 26.3247 56.3012 25.9707 55.547 25.9707C55.0621 25.9707 54.6427 26.1669 54.2887 26.5594C53.9424 26.9519 53.7692 27.4367 53.7692 28.0139C53.7692 28.5911 53.9424 29.076 54.2887 29.4684C54.6427 29.8609 55.0621 30.0572 55.547 30.0572C56.3242 30.0572 56.8707 29.7032 57.1862 28.9951L58.1328 29.3992C57.925 29.9071 57.5979 30.3073 57.1516 30.5997C56.7129 30.8845 56.2011 31.0269 55.6162 31.0269ZM61.5911 31.0269C60.7522 31.0269 60.0557 30.7421 59.5016 30.1726C58.9552 29.5877 58.682 28.8682 58.682 28.0139C58.682 27.1443 58.9552 26.4247 59.5016 25.8552C60.0557 25.2857 60.7522 25.001 61.5911 25.001C62.1683 25.001 62.6723 25.1472 63.1033 25.4396C63.5343 25.7244 63.8575 26.1207 64.073 26.6287L63.1033 27.0327C62.8032 26.3247 62.276 25.9707 61.5218 25.9707C61.037 25.9707 60.6175 26.1669 60.2635 26.5594C59.9172 26.9519 59.7441 27.4367 59.7441 28.0139C59.7441 28.5911 59.9172 29.076 60.2635 29.4684C60.6175 29.8609 61.037 30.0572 61.5218 30.0572C62.2991 30.0572 62.8455 29.7032 63.161 28.9951L64.1076 29.3992C63.8998 29.9071 63.5728 30.3073 63.1264 30.5997C62.6877 30.8845 62.176 31.0269 61.5911 31.0269ZM64.6569 28.0139C64.6569 27.1443 64.9301 26.4247 65.4765 25.8552C66.0306 25.2857 66.7271 25.001 67.5659 25.001C68.4048 25.001 69.0974 25.2857 69.6438 25.8552C70.1979 26.4247 70.475 27.1443 70.475 28.0139C70.475 28.8913 70.1979 29.6108 69.6438 30.1726C69.0974 30.7421 68.4048 31.0269 67.5659 31.0269C66.7271 31.0269 66.0306 30.7421 65.4765 30.1726C64.9301 29.6031 64.6569 28.8836 64.6569 28.0139ZM65.7189 28.0139C65.7189 28.6219 65.8959 29.1144 66.2499 29.4915C66.6039 29.8686 67.0426 30.0572 67.5659 30.0572C68.0892 30.0572 68.5279 29.8686 68.8819 29.4915C69.2359 29.1144 69.4129 28.6219 69.4129 28.0139C69.4129 27.4136 69.2359 26.9249 68.8819 26.5478C68.5202 26.1631 68.0815 25.9707 67.5659 25.9707C67.0503 25.9707 66.6116 26.1631 66.2499 26.5478C65.8959 26.9249 65.7189 27.4136 65.7189 28.0139ZM76.3472 30.8422H75.3313V30.0572H75.2852C75.1235 30.3342 74.8734 30.5651 74.5348 30.7498C74.2039 30.9345 73.8576 31.0269 73.4959 31.0269C72.8032 31.0269 72.2684 30.8306 71.8913 30.4381C71.5219 30.0379 71.3372 29.4723 71.3372 28.7412V25.1857H72.3992V28.6719C72.4223 29.5954 72.8879 30.0572 73.796 30.0572C74.2193 30.0572 74.5733 29.8879 74.858 29.5493C75.1428 29.2029 75.2852 28.7912 75.2852 28.3141V25.1857H76.3472V30.8422ZM77.64 25.1857H78.6559V25.9707H78.702C78.8637 25.6936 79.1099 25.4627 79.4409 25.278C79.7795 25.0933 80.1296 25.001 80.4913 25.001C81.184 25.001 81.715 25.2011 82.0844 25.6013C82.4615 25.9937 82.65 26.5555 82.65 27.2867V30.8422H81.588V27.3559C81.5649 26.4324 81.0993 25.9707 80.1912 25.9707C79.7679 25.9707 79.4139 26.1438 79.1292 26.4901C78.8444 26.8287 78.702 27.2366 78.702 27.7138V30.8422H77.64V25.1857ZM85.8431 30.9345C85.3813 30.9345 84.9965 30.7921 84.6887 30.5074C84.3886 30.2226 84.2347 29.8263 84.227 29.3184V26.1554H83.2342V25.1857H84.227V23.4541H85.289V25.1857H86.6743V26.1554H85.289V28.9721C85.289 29.3492 85.3621 29.607 85.5083 29.7455C85.6545 29.8763 85.82 29.9417 86.0047 29.9417C86.0894 29.9417 86.1702 29.934 86.2471 29.9187C86.3318 29.8956 86.4087 29.8686 86.478 29.8378L86.8128 30.7844C86.5357 30.8845 86.2125 30.9345 85.8431 30.9345ZM95.1849 30.8422H94.169V30.0572H94.1228C93.9612 30.3342 93.7111 30.5651 93.3725 30.7498C93.0416 30.9345 92.6952 31.0269 92.3335 31.0269C91.6409 31.0269 91.106 30.8306 90.7289 30.4381C90.3595 30.0379 90.1748 29.4723 90.1748 28.7412V25.1857H91.2369V28.6719C91.26 29.5954 91.7256 30.0572 92.6337 30.0572C93.057 30.0572 93.411 29.8879 93.6957 29.5493C93.9805 29.2029 94.1228 28.7912 94.1228 28.3141V25.1857H95.1849V30.8422ZM100.75 29.2722C100.75 29.7647 100.535 30.1803 100.104 30.5189C99.6728 30.8576 99.1303 31.0269 98.4761 31.0269C97.9066 31.0269 97.4064 30.8806 96.9754 30.5882C96.5445 30.2881 96.2366 29.8956 96.0519 29.4107L96.9985 29.0067C97.137 29.3453 97.3371 29.6108 97.5988 29.8032C97.8682 29.9879 98.1606 30.0803 98.4761 30.0803C98.8148 30.0803 99.0957 30.0072 99.3188 29.8609C99.5497 29.7147 99.6652 29.5416 99.6652 29.3415C99.6652 28.9798 99.3881 28.7142 98.834 28.5449L97.8643 28.3025C96.7638 28.0255 96.2135 27.4944 96.2135 26.7095C96.2135 26.1938 96.4213 25.7821 96.8369 25.4743C97.2602 25.1587 97.7989 25.001 98.453 25.001C98.9533 25.001 99.4035 25.1203 99.8037 25.3588C100.212 25.5974 100.496 25.9168 100.658 26.317L99.7113 26.7095C99.6036 26.4709 99.4266 26.2862 99.1803 26.1554C98.9417 26.0168 98.6724 25.9476 98.3722 25.9476C98.0952 25.9476 97.8451 26.0168 97.6219 26.1554C97.4064 26.2939 97.2987 26.4632 97.2987 26.6633C97.2987 26.9865 97.6026 27.2174 98.2106 27.3559L99.0649 27.5753C100.188 27.8523 100.75 28.418 100.75 29.2722ZM104.271 31.0269C103.44 31.0269 102.755 30.7421 102.216 30.1726C101.677 29.6031 101.408 28.8836 101.408 28.0139C101.408 27.152 101.669 26.4363 102.193 25.8668C102.716 25.2896 103.386 25.001 104.201 25.001C105.04 25.001 105.706 25.2742 106.199 25.8206C106.699 26.3593 106.949 27.1173 106.949 28.0947L106.937 28.2102H102.493C102.508 28.7643 102.693 29.2106 103.047 29.5493C103.401 29.8879 103.824 30.0572 104.317 30.0572C104.994 30.0572 105.525 29.7186 105.91 29.0413L106.857 29.5031C106.603 29.9802 106.249 30.3535 105.794 30.6228C105.348 30.8922 104.84 31.0269 104.271 31.0269ZM102.574 27.3328H105.818C105.787 26.9403 105.625 26.6171 105.333 26.3631C105.048 26.1015 104.663 25.9707 104.178 25.9707C103.778 25.9707 103.432 26.0938 103.139 26.3401C102.855 26.5863 102.666 26.9173 102.574 27.3328ZM110.516 30.0572C111.039 30.0572 111.467 29.8686 111.797 29.4915C112.144 29.1144 112.317 28.6219 112.317 28.0139C112.317 27.4213 112.144 26.9326 111.797 26.5478C111.459 26.1631 111.032 25.9707 110.516 25.9707C110.008 25.9707 109.581 26.1631 109.235 26.5478C108.888 26.9326 108.715 27.4213 108.715 28.0139C108.715 28.6142 108.888 29.1029 109.235 29.48C109.581 29.8648 110.008 30.0572 110.516 30.0572ZM110.343 31.0269C109.604 31.0269 108.969 30.7344 108.438 30.1495C107.915 29.5569 107.653 28.8451 107.653 28.0139C107.653 27.1828 107.915 26.4709 108.438 25.8783C108.969 25.2934 109.604 25.001 110.343 25.001C110.759 25.001 111.136 25.0895 111.474 25.2665C111.821 25.4435 112.086 25.6782 112.271 25.9707H112.317L112.271 25.1857V22.5768H113.333V30.8422H112.317V30.0572H112.271C112.086 30.3496 111.821 30.5844 111.474 30.7614C111.136 30.9384 110.759 31.0269 110.343 31.0269ZM118.538 23.2348C118.538 23.4425 118.465 23.6196 118.319 23.7658C118.172 23.912 117.995 23.9851 117.788 23.9851C117.58 23.9851 117.403 23.912 117.257 23.7658C117.11 23.6196 117.037 23.4425 117.037 23.2348C117.037 23.027 117.11 22.85 117.257 22.7037C117.403 22.5575 117.58 22.4844 117.788 22.4844C117.995 22.4844 118.172 22.5575 118.319 22.7037C118.465 22.85 118.538 23.027 118.538 23.2348ZM118.319 25.1857V30.8422H117.257V25.1857H118.319ZM119.701 25.1857H120.717V25.9707H120.763C120.924 25.6936 121.171 25.4627 121.502 25.278C121.84 25.0933 122.19 25.001 122.552 25.001C123.245 25.001 123.776 25.2011 124.145 25.6013C124.522 25.9937 124.711 26.5555 124.711 27.2867V30.8422H123.649V27.3559C123.626 26.4324 123.16 25.9707 122.252 25.9707C121.829 25.9707 121.475 26.1438 121.19 26.4901C120.905 26.8287 120.763 27.2366 120.763 27.7138V30.8422H119.701V25.1857ZM132.343 31.0269C131.12 31.0269 130.096 30.6151 129.273 29.7917C128.457 28.9682 128.049 27.9408 128.049 26.7095C128.049 25.4781 128.457 24.4546 129.273 23.6388C130.088 22.8076 131.112 22.3921 132.343 22.3921C133.59 22.3921 134.602 22.8423 135.379 23.7427L134.618 24.4815C134.025 23.7658 133.267 23.4079 132.343 23.4079C131.428 23.4079 130.662 23.7158 130.046 24.3314C129.438 24.9394 129.134 25.7321 129.134 26.7095C129.134 27.6868 129.438 28.4795 130.046 29.0875C130.662 29.7032 131.428 30.011 132.343 30.011C133.305 30.011 134.14 29.607 134.848 28.7989L135.622 29.5493C135.229 30.0187 134.748 30.3843 134.179 30.6459C133.609 30.8999 132.998 31.0269 132.343 31.0269ZM137.226 29.1106C137.226 29.3876 137.342 29.6185 137.573 29.8032C137.811 29.9879 138.088 30.0803 138.404 30.0803C138.85 30.0803 139.246 29.9148 139.593 29.5839C139.947 29.253 140.124 28.8643 140.124 28.418C139.793 28.1563 139.331 28.0255 138.738 28.0255C138.308 28.0255 137.946 28.1294 137.653 28.3371C137.369 28.5449 137.226 28.8027 137.226 29.1106ZM138.6 25.001C139.385 25.001 140.004 25.2126 140.459 25.6359C140.913 26.0515 141.14 26.6248 141.14 27.3559V30.8422H140.124V30.0572H140.078C139.639 30.7036 139.054 31.0269 138.323 31.0269C137.7 31.0269 137.176 30.8422 136.753 30.4728C136.337 30.1034 136.13 29.6416 136.13 29.0875C136.13 28.5026 136.349 28.037 136.788 27.6907C137.234 27.3444 137.827 27.1712 138.565 27.1712C139.196 27.1712 139.716 27.2867 140.124 27.5175V27.2751C140.124 26.9057 139.978 26.594 139.685 26.3401C139.393 26.0784 139.05 25.9476 138.658 25.9476C138.065 25.9476 137.596 26.1977 137.249 26.6979L136.314 26.1092C136.83 25.3704 137.592 25.001 138.6 25.001ZM145.108 30.0572C145.616 30.0572 146.043 29.8648 146.389 29.48C146.736 29.1029 146.909 28.6142 146.909 28.0139C146.909 27.4213 146.736 26.9326 146.389 26.5478C146.043 26.1631 145.616 25.9707 145.108 25.9707C144.592 25.9707 144.161 26.1631 143.815 26.5478C143.476 26.9326 143.307 27.4213 143.307 28.0139C143.307 28.6142 143.476 29.1067 143.815 29.4915C144.161 29.8686 144.592 30.0572 145.108 30.0572ZM145.281 31.0269C144.866 31.0269 144.485 30.9384 144.138 30.7614C143.8 30.5844 143.538 30.3496 143.353 30.0572H143.307L143.353 30.8422V33.3356H142.291V25.1857H143.307V25.9707H143.353C143.538 25.6782 143.8 25.4435 144.138 25.2665C144.485 25.0895 144.866 25.001 145.281 25.001C146.028 25.001 146.659 25.2934 147.174 25.8783C147.705 26.4709 147.971 27.1828 147.971 28.0139C147.971 28.8528 147.705 29.5646 147.174 30.1495C146.659 30.7344 146.028 31.0269 145.281 31.0269ZM150.958 30.9345C150.496 30.9345 150.111 30.7921 149.803 30.5074C149.503 30.2226 149.349 29.8263 149.342 29.3184V26.1554H148.349V25.1857H149.342V23.4541H150.404V25.1857H151.789V26.1554H150.404V28.9721C150.404 29.3492 150.477 29.607 150.623 29.7455C150.769 29.8763 150.935 29.9417 151.119 29.9417C151.204 29.9417 151.285 29.934 151.362 29.9187C151.446 29.8956 151.523 29.8686 151.593 29.8378L151.927 30.7844C151.65 30.8845 151.327 30.9345 150.958 30.9345ZM155.329 31.0269C154.49 31.0269 153.793 30.7421 153.239 30.1726C152.693 29.5877 152.42 28.8682 152.42 28.0139C152.42 27.1443 152.693 26.4247 153.239 25.8552C153.793 25.2857 154.49 25.001 155.329 25.001C155.906 25.001 156.41 25.1472 156.841 25.4396C157.272 25.7244 157.595 26.1207 157.81 26.6287L156.841 27.0327C156.541 26.3247 156.013 25.9707 155.259 25.9707C154.774 25.9707 154.355 26.1669 154.001 26.5594C153.655 26.9519 153.482 27.4367 153.482 28.0139C153.482 28.5911 153.655 29.076 154.001 29.4684C154.355 29.8609 154.774 30.0572 155.259 30.0572C156.037 30.0572 156.583 29.7032 156.899 28.9951L157.845 29.3992C157.637 29.9071 157.31 30.3073 156.864 30.5997C156.425 30.8845 155.913 31.0269 155.329 31.0269ZM158.774 22.5768H159.836V25.1857L159.79 25.9707H159.836C159.998 25.6936 160.244 25.4627 160.575 25.278C160.913 25.0933 161.264 25.001 161.625 25.001C162.318 25.001 162.849 25.2011 163.218 25.6013C163.595 25.9937 163.784 26.5555 163.784 27.2867V30.8422H162.722V27.4944C162.722 26.4786 162.272 25.9707 161.371 25.9707C160.94 25.9707 160.575 26.1515 160.275 26.5132C159.982 26.8672 159.836 27.2828 159.836 27.76V30.8422H158.774V22.5768ZM165.748 29.1106C165.748 29.3876 165.863 29.6185 166.094 29.8032C166.333 29.9879 166.61 30.0803 166.925 30.0803C167.372 30.0803 167.768 29.9148 168.114 29.5839C168.468 29.253 168.645 28.8643 168.645 28.418C168.314 28.1563 167.853 28.0255 167.26 28.0255C166.829 28.0255 166.467 28.1294 166.175 28.3371C165.89 28.5449 165.748 28.8027 165.748 29.1106ZM167.121 25.001C167.906 25.001 168.526 25.2126 168.98 25.6359C169.434 26.0515 169.661 26.6248 169.661 27.3559V30.8422H168.645V30.0572H168.599C168.16 30.7036 167.575 31.0269 166.844 31.0269C166.221 31.0269 165.698 30.8422 165.274 30.4728C164.859 30.1034 164.651 29.6416 164.651 29.0875C164.651 28.5026 164.87 28.037 165.309 27.6907C165.755 27.3444 166.348 27.1712 167.087 27.1712C167.718 27.1712 168.237 27.2867 168.645 27.5175V27.2751C168.645 26.9057 168.499 26.594 168.207 26.3401C167.914 26.0784 167.572 25.9476 167.179 25.9476C166.587 25.9476 166.117 26.1977 165.771 26.6979L164.836 26.1092C165.351 25.3704 166.113 25.001 167.121 25.001ZM175.935 23.5926V30.8422H174.873V23.5926H172.564V22.5768H178.243V23.5926H175.935ZM177.92 28.0139C177.92 27.1443 178.193 26.4247 178.739 25.8552C179.293 25.2857 179.99 25.001 180.829 25.001C181.668 25.001 182.36 25.2857 182.907 25.8552C183.461 26.4247 183.738 27.1443 183.738 28.0139C183.738 28.8913 183.461 29.6108 182.907 30.1726C182.36 30.7421 181.668 31.0269 180.829 31.0269C179.99 31.0269 179.293 30.7421 178.739 30.1726C178.193 29.6031 177.92 28.8836 177.92 28.0139ZM178.982 28.0139C178.982 28.6219 179.159 29.1144 179.513 29.4915C179.867 29.8686 180.305 30.0572 180.829 30.0572C181.352 30.0572 181.791 29.8686 182.145 29.4915C182.499 29.1144 182.676 28.6219 182.676 28.0139C182.676 27.4136 182.499 26.9249 182.145 26.5478C181.783 26.1631 181.344 25.9707 180.829 25.9707C180.313 25.9707 179.874 26.1631 179.513 26.5478C179.159 26.9249 178.982 27.4136 178.982 28.0139ZM184.379 28.0139C184.379 27.1443 184.653 26.4247 185.199 25.8552C185.753 25.2857 186.45 25.001 187.288 25.001C188.127 25.001 188.82 25.2857 189.366 25.8552C189.92 26.4247 190.197 27.1443 190.197 28.0139C190.197 28.8913 189.92 29.6108 189.366 30.1726C188.82 30.7421 188.127 31.0269 187.288 31.0269C186.45 31.0269 185.753 30.7421 185.199 30.1726C184.653 29.6031 184.379 28.8836 184.379 28.0139ZM185.441 28.0139C185.441 28.6219 185.618 29.1144 185.972 29.4915C186.326 29.8686 186.765 30.0572 187.288 30.0572C187.812 30.0572 188.25 29.8686 188.604 29.4915C188.958 29.1144 189.135 28.6219 189.135 28.0139C189.135 27.4136 188.958 26.9249 188.604 26.5478C188.243 26.1631 187.804 25.9707 187.288 25.9707C186.773 25.9707 186.334 26.1631 185.972 26.5478C185.618 26.9249 185.441 27.4136 185.441 28.0139ZM192.168 22.5768V30.8422H191.106V22.5768H192.168ZM197.734 29.2722C197.734 29.7647 197.519 30.1803 197.088 30.5189C196.657 30.8576 196.114 31.0269 195.46 31.0269C194.891 31.0269 194.391 30.8806 193.96 30.5882C193.529 30.2881 193.221 29.8956 193.036 29.4107L193.983 29.0067C194.121 29.3453 194.321 29.6108 194.583 29.8032C194.852 29.9879 195.145 30.0803 195.46 30.0803C195.799 30.0803 196.08 30.0072 196.303 29.8609C196.534 29.7147 196.649 29.5416 196.649 29.3415C196.649 28.9798 196.372 28.7142 195.818 28.5449L194.849 28.3025C193.748 28.0255 193.198 27.4944 193.198 26.7095C193.198 26.1938 193.406 25.7821 193.821 25.4743C194.244 25.1587 194.783 25.001 195.437 25.001C195.937 25.001 196.388 25.1203 196.788 25.3588C197.196 25.5974 197.481 25.9168 197.642 26.317L196.696 26.7095C196.588 26.4709 196.411 26.2862 196.165 26.1554C195.926 26.0168 195.657 25.9476 195.356 25.9476C195.079 25.9476 194.829 26.0168 194.606 26.1554C194.391 26.2939 194.283 26.4632 194.283 26.6633C194.283 26.9865 194.587 27.2174 195.195 27.3559L196.049 27.5753C197.173 27.8523 197.734 28.418 197.734 29.2722ZM204.128 22.3921C203.596 23.0231 203.166 23.7696 202.835 24.6316C202.511 25.4781 202.35 26.3093 202.35 27.125C202.35 27.9485 202.511 28.7797 202.835 29.6185C203.166 30.4805 203.596 31.227 204.128 31.858L203.343 32.4121C202.704 31.6656 202.2 30.8345 201.83 29.9187C201.469 28.9721 201.288 28.0409 201.288 27.125C201.288 26.2015 201.469 25.2742 201.83 24.343C202.192 23.4272 202.696 22.5922 203.343 21.838L204.128 22.3921ZM213.283 26.7095C213.283 27.9331 212.875 28.9567 212.059 29.7801C211.236 30.6113 210.227 31.0269 209.035 31.0269C207.834 31.0269 206.826 30.6113 206.01 29.7801C205.194 28.9567 204.786 27.9331 204.786 26.7095C204.786 25.4858 205.194 24.4623 206.01 23.6388C206.826 22.8076 207.834 22.3921 209.035 22.3921C210.235 22.3921 211.243 22.8115 212.059 23.6503C212.875 24.4738 213.283 25.4935 213.283 26.7095ZM205.872 26.7095C205.872 27.6638 206.172 28.4526 206.772 29.076C207.38 29.6993 208.134 30.011 209.035 30.011C209.935 30.011 210.685 29.6993 211.286 29.076C211.894 28.4603 212.198 27.6714 212.198 26.7095C212.198 25.7475 211.894 24.9586 211.286 24.343C210.685 23.7196 209.935 23.4079 209.035 23.4079C208.134 23.4079 207.38 23.7196 206.772 24.343C206.172 24.9663 205.872 25.7552 205.872 26.7095ZM214.295 25.1857H215.311V25.9707H215.357C215.519 25.6936 215.765 25.4627 216.096 25.278C216.434 25.0933 216.785 25.001 217.146 25.001C217.839 25.001 218.37 25.2011 218.739 25.6013C219.116 25.9937 219.305 26.5555 219.305 27.2867V30.8422H218.243V27.3559C218.22 26.4324 217.754 25.9707 216.846 25.9707C216.423 25.9707 216.069 26.1438 215.784 26.4901C215.499 26.8287 215.357 27.2366 215.357 27.7138V30.8422H214.295V25.1857ZM223.091 31.0269C222.26 31.0269 221.575 30.7421 221.036 30.1726C220.498 29.6031 220.228 28.8836 220.228 28.0139C220.228 27.152 220.49 26.4363 221.013 25.8668C221.537 25.2896 222.206 25.001 223.022 25.001C223.861 25.001 224.527 25.2742 225.019 25.8206C225.519 26.3593 225.769 27.1173 225.769 28.0947L225.758 28.2102H221.314C221.329 28.7643 221.514 29.2106 221.868 29.5493C222.222 29.8879 222.645 30.0572 223.137 30.0572C223.815 30.0572 224.346 29.7186 224.731 29.0413L225.677 29.5031C225.423 29.9802 225.069 30.3535 224.615 30.6228C224.169 30.8922 223.661 31.0269 223.091 31.0269ZM221.394 27.3328H224.638C224.607 26.9403 224.446 26.6171 224.153 26.3631C223.869 26.1015 223.484 25.9707 222.999 25.9707C222.599 25.9707 222.252 26.0938 221.96 26.3401C221.675 26.5863 221.487 26.9173 221.394 27.3328ZM231.863 31.0269C231.024 31.0269 230.328 30.7421 229.774 30.1726C229.227 29.5877 228.954 28.8682 228.954 28.0139C228.954 27.1443 229.227 26.4247 229.774 25.8552C230.328 25.2857 231.024 25.001 231.863 25.001C232.44 25.001 232.944 25.1472 233.375 25.4396C233.806 25.7244 234.129 26.1207 234.345 26.6287L233.375 27.0327C233.075 26.3247 232.548 25.9707 231.794 25.9707C231.309 25.9707 230.889 26.1669 230.535 26.5594C230.189 26.9519 230.016 27.4367 230.016 28.0139C230.016 28.5911 230.189 29.076 230.535 29.4684C230.889 29.8609 231.309 30.0572 231.794 30.0572C232.571 30.0572 233.117 29.7032 233.433 28.9951L234.38 29.3992C234.172 29.9071 233.845 30.3073 233.398 30.5997C232.96 30.8845 232.448 31.0269 231.863 31.0269ZM236.37 22.5768V30.8422H235.308V22.5768H236.37ZM239.038 23.2348C239.038 23.4425 238.965 23.6196 238.819 23.7658C238.673 23.912 238.496 23.9851 238.288 23.9851C238.08 23.9851 237.903 23.912 237.757 23.7658C237.611 23.6196 237.538 23.4425 237.538 23.2348C237.538 23.027 237.611 22.85 237.757 22.7037C237.903 22.5575 238.08 22.4844 238.288 22.4844C238.496 22.4844 238.673 22.5575 238.819 22.7037C238.965 22.85 239.038 23.027 239.038 23.2348ZM238.819 25.1857V30.8422H237.757V25.1857H238.819ZM242.73 31.0269C241.892 31.0269 241.195 30.7421 240.641 30.1726C240.095 29.5877 239.821 28.8682 239.821 28.0139C239.821 27.1443 240.095 26.4247 240.641 25.8552C241.195 25.2857 241.892 25.001 242.73 25.001C243.308 25.001 243.812 25.1472 244.243 25.4396C244.674 25.7244 244.997 26.1207 245.212 26.6287L244.243 27.0327C243.943 26.3247 243.415 25.9707 242.661 25.9707C242.176 25.9707 241.757 26.1669 241.403 26.5594C241.057 26.9519 240.883 27.4367 240.883 28.0139C240.883 28.5911 241.057 29.076 241.403 29.4684C241.757 29.8609 242.176 30.0572 242.661 30.0572C243.438 30.0572 243.985 29.7032 244.3 28.9951L245.247 29.3992C245.039 29.9071 244.712 30.3073 244.266 30.5997C243.827 30.8845 243.315 31.0269 242.73 31.0269ZM251.151 30.8422H249.87L248.104 28.1755L247.238 29.0298V30.8422H246.176V22.5768H247.238V27.6676L249.685 25.1857H251.047V25.2318L248.842 27.4252L251.151 30.796V30.8422ZM255.972 29.2722C255.972 29.7647 255.757 30.1803 255.326 30.5189C254.895 30.8576 254.352 31.0269 253.698 31.0269C253.129 31.0269 252.628 30.8806 252.198 30.5882C251.767 30.2881 251.459 29.8956 251.274 29.4107L252.221 29.0067C252.359 29.3453 252.559 29.6108 252.821 29.8032C253.09 29.9879 253.383 30.0803 253.698 30.0803C254.037 30.0803 254.318 30.0072 254.541 29.8609C254.772 29.7147 254.887 29.5416 254.887 29.3415C254.887 28.9798 254.61 28.7142 254.056 28.5449L253.086 28.3025C251.986 28.0255 251.436 27.4944 251.436 26.7095C251.436 26.1938 251.643 25.7821 252.059 25.4743C252.482 25.1587 253.021 25.001 253.675 25.001C254.175 25.001 254.626 25.1203 255.026 25.3588C255.434 25.5974 255.718 25.9168 255.88 26.317L254.933 26.7095C254.826 26.4709 254.649 26.2862 254.402 26.1554C254.164 26.0168 253.894 25.9476 253.594 25.9476C253.317 25.9476 253.067 26.0168 252.844 26.1554C252.628 26.2939 252.521 26.4632 252.521 26.6633C252.521 26.9865 252.825 27.2174 253.433 27.3559L254.287 27.5753C255.411 27.8523 255.972 28.418 255.972 29.2722ZM257.266 21.838C257.589 22.2074 257.874 22.5998 258.12 23.0154C258.374 23.431 258.59 23.8735 258.767 24.343C259.136 25.2665 259.321 26.1938 259.321 27.125C259.321 28.0562 259.136 28.9874 258.767 29.9187C258.413 30.8268 257.913 31.6579 257.266 32.4121L256.481 31.858C257.012 31.227 257.443 30.4805 257.774 29.6185C258.097 28.7797 258.259 27.9485 258.259 27.125C258.259 26.3093 258.097 25.4781 257.774 24.6316C257.443 23.7696 257.012 23.0231 256.481 22.3921L257.266 21.838Z" fill="#7584B5"/>
<path d="M48.9781 57.807V47.3186L46.5836 48.3278L45.6337 46.1312L49.6114 44.271H51.5705V57.807H48.9781ZM60.2745 57.807V55.3135H54.021V53.2158L60.037 44.271H62.8471V52.8992H64.549V55.3135H62.8471V57.807H60.2745ZM60.2745 48.13H60.1162L56.8905 52.8992H60.2745V48.13ZM71.7961 49.0996C72.3107 49.0996 72.812 49.2118 73.3001 49.4361C73.7883 49.6471 74.2236 49.944 74.6062 50.3266C74.9888 50.7092 75.2923 51.1709 75.5166 51.7118C75.754 52.2528 75.8728 52.8464 75.8728 53.4929C75.8728 54.1657 75.7408 54.7858 75.477 55.3531C75.2131 55.9204 74.8569 56.4086 74.4083 56.8175C73.973 57.2265 73.4651 57.5497 72.8846 57.7872C72.3173 58.0115 71.717 58.1236 71.0837 58.1236C70.3449 58.1236 69.6787 57.9983 69.085 57.7476C68.4913 57.4838 67.9768 57.1408 67.5414 56.7186C67.1192 56.2832 66.7894 55.7819 66.5519 55.2146C66.3276 54.6341 66.2155 54.0272 66.2155 53.394C66.2155 52.4836 66.3936 51.6525 66.7498 50.9005C67.1192 50.1353 67.581 49.3569 68.1351 48.5653L71.4201 43.8752L73.4189 45.2605L70.6483 49.1788L70.7473 49.2975C71.0507 49.1656 71.4003 49.0996 71.7961 49.0996ZM71.0441 55.7291C71.3344 55.7291 71.618 55.6763 71.8951 55.5708C72.1721 55.4653 72.4162 55.3135 72.6273 55.1156C72.8384 54.9177 73.0033 54.6869 73.122 54.423C73.254 54.146 73.3199 53.8425 73.3199 53.5127C73.3199 53.1829 73.254 52.8794 73.122 52.6024C73.0033 52.3253 72.8384 52.0878 72.6273 51.89C72.4162 51.6921 72.1721 51.5403 71.8951 51.4348C71.618 51.3293 71.3344 51.2765 71.0441 51.2765C70.7407 51.2765 70.4505 51.3293 70.1734 51.4348C69.9095 51.5403 69.6655 51.6921 69.4412 51.89C69.2301 52.0878 69.0586 52.3253 68.9267 52.6024C68.8079 52.8794 68.7486 53.1829 68.7486 53.5127C68.7486 53.8425 68.8079 54.146 68.9267 54.423C69.0586 54.6869 69.2301 54.9177 69.4412 55.1156C69.6655 55.3135 69.9095 55.4653 70.1734 55.5708C70.4505 55.6763 70.7407 55.7291 71.0441 55.7291Z" fill="#86C9FF"/>
<g clip-path="url(#clip1)">
<g filter="url(#filter1_i)">
<rect x="331.474" y="21" width="19.7895" height="19.7895" rx="4.94737" fill="#1A223F"/>
</g>
<path d="M341.823 27.9089V34.1228H340.913V27.9089H338.934V27.0382H343.802V27.9089H341.823Z" fill="#7584B5"/>
</g>
<g clip-path="url(#clip2)">
<g filter="url(#filter2_ddii)">
<rect x="361.158" y="21" width="19.7895" height="19.7895" rx="4.94737" fill="#599FFF"/>
</g>
<path d="M374.506 27.0382H375.456L373.566 34.1228H372.636L371.113 29.4525H371.073L369.549 34.1228H368.619L366.65 27.0382H367.6L369.094 32.6089H369.134L370.667 27.9881H371.518L373.052 32.6089H373.092L374.506 27.0382Z" fill="white"/>
</g>
<g clip-path="url(#clip3)">
<g filter="url(#filter3_i)">
<rect x="390.842" y="21" width="19.7895" height="19.7895" rx="4.94737" fill="#1A223F"/>
</g>
<path d="M398.253 34.1228H397.343V27.0382H398.253L400.717 31.3523H400.756L403.22 27.0382H404.13V34.1228H403.22V29.9175L403.26 28.7302H403.22L401.004 32.6188H400.469L398.253 28.7302H398.213L398.253 29.9175V34.1228Z" fill="#7584B5"/>
</g>
<g clip-path="url(#clip4)">
<g filter="url(#filter4_i)">
<rect x="420.526" y="21" width="19.7895" height="19.7895" rx="4.94737" fill="#1A223F"/>
</g>
<path d="M430.897 30.8279V34.1228H429.987V30.8279L427.602 27.0382H428.671L430.422 29.9175H430.462L432.174 27.0382H433.242L430.897 30.8279Z" fill="#7584B5"/>
</g>
<g filter="url(#filter5_i)">
<rect x="65.9649" y="91.5264" width="6.59649" height="112.14" rx="3.29825" fill="#1A223F"/>
</g>
<g filter="url(#filter6_ddii)">
<rect x="65.9649" y="98.1228" width="6.59649" height="105.544" rx="3.29825" fill="#FFD464"/>
</g>
<g filter="url(#filter7_i)">
<rect x="122.035" y="91.5264" width="6.59649" height="112.14" rx="3.29825" fill="#1A223F"/>
</g>
<g filter="url(#filter8_ddii)">
<rect x="122.035" y="131.105" width="6.59649" height="72.5614" rx="3.29825" fill="#FFD464"/>
</g>
<g filter="url(#filter9_i)">
<rect x="178.105" y="91.5264" width="6.59649" height="112.14" rx="3.29825" fill="#1A223F"/>
</g>
<g filter="url(#filter10_ddii)">
<rect x="178.105" y="151.719" width="6.59649" height="51.9474" rx="3.29825" fill="#FFD464"/>
</g>
<g filter="url(#filter11_i)">
<rect x="234.175" y="91.5264" width="6.59649" height="112.14" rx="3.29825" fill="#1A223F"/>
</g>
<g filter="url(#filter12_ddii)">
<rect x="234.175" y="117.912" width="6.59649" height="85.7544" rx="3.29825" fill="#FFD464"/>
</g>
<g filter="url(#filter13_i)">
<rect x="290.246" y="91.5264" width="6.59649" height="112.14" rx="3.29825" fill="#1A223F"/>
</g>
<g filter="url(#filter14_ddii)">
<rect x="290.246" y="135.228" width="6.59649" height="68.4386" rx="3.29825" fill="#FFD464"/>
</g>
<g filter="url(#filter15_i)">
<rect x="346.316" y="91.5264" width="6.59649" height="112.14" rx="3.29825" fill="#1A223F"/>
</g>
<g filter="url(#filter16_ddii)">
<rect x="346.316" y="107.193" width="6.59649" height="96.4737" rx="3.29825" fill="#FFD464"/>
</g>
<g filter="url(#filter17_i)">
<rect x="402.386" y="91.5264" width="6.59649" height="112.14" rx="3.29825" fill="#1A223F"/>
</g>
<g filter="url(#filter18_ddii)">
<rect x="402.386" y="98.1228" width="6.59649" height="105.544" rx="3.29825" fill="#FFD464"/>
</g>
<path d="M56.1565 222.561H55.2462V215.477H56.1565L58.6203 219.791H58.6599L61.1237 215.477H62.034V222.561H61.1237V218.356L61.1633 217.169H61.1237L58.9073 221.057H58.373L56.1565 217.169H56.117L56.1565 218.356V222.561ZM63.8193 221.077C63.8193 221.315 63.9183 221.513 64.1161 221.671C64.3206 221.829 64.5581 221.908 64.8286 221.908C65.2112 221.908 65.5509 221.767 65.8477 221.483C66.1512 221.199 66.3029 220.866 66.3029 220.484C66.0192 220.259 65.6234 220.147 65.1155 220.147C64.7461 220.147 64.4361 220.236 64.1854 220.414C63.9413 220.592 63.8193 220.813 63.8193 221.077ZM64.9968 217.555C65.6696 217.555 66.2006 217.736 66.5898 218.099C66.979 218.455 67.1736 218.947 67.1736 219.573V222.561H66.3029V221.889H66.2633C65.8873 222.443 65.386 222.72 64.7593 222.72C64.225 222.72 63.7764 222.561 63.4136 222.245C63.0574 221.928 62.8793 221.532 62.8793 221.057C62.8793 220.556 63.0673 220.157 63.4433 219.86C63.8259 219.563 64.3338 219.415 64.9671 219.415C65.508 219.415 65.9533 219.514 66.3029 219.712V219.504C66.3029 219.187 66.1776 218.92 65.9269 218.702C65.6762 218.478 65.3827 218.366 65.0463 218.366C64.5383 218.366 64.1359 218.58 63.8391 219.009L63.0376 218.505C63.4796 217.871 64.1326 217.555 64.9968 217.555ZM69.1107 222.561H68.2004V217.713H69.0711V218.505H69.1107C69.203 218.247 69.391 218.03 69.6747 217.852C69.9649 217.667 70.2486 217.574 70.5256 217.574C70.7895 217.574 71.0138 217.614 71.1985 217.693L70.9214 218.574C70.8093 218.528 70.6312 218.505 70.3871 218.505C70.0441 218.505 69.7439 218.643 69.4867 218.92C69.236 219.197 69.1107 219.52 69.1107 219.89V222.561ZM78.5575 215.793V222.561H77.6472V216.921L76.3312 217.495L75.9849 216.724L77.9737 215.793H78.5575ZM81.8999 220.088C81.3589 220.088 80.8675 219.873 80.4255 219.445C79.9968 219.003 79.7824 218.488 79.7824 217.901C79.7824 217.288 80.0133 216.76 80.475 216.318C80.9368 215.863 81.4777 215.635 82.0977 215.635C82.7508 215.635 83.3016 215.859 83.7502 216.308C84.1987 216.756 84.423 217.288 84.423 217.901C84.423 218.448 84.202 219.072 83.7601 219.771L81.791 222.72L81.0588 222.215L82.731 219.9L82.7112 219.88C82.5001 220.018 82.2297 220.088 81.8999 220.088ZM83.5028 217.891C83.5028 217.508 83.3643 217.182 83.0872 216.912C82.8168 216.641 82.4869 216.506 82.0977 216.506C81.7086 216.506 81.3787 216.641 81.1083 216.912C80.8378 217.182 80.7026 217.508 80.7026 217.891C80.7026 218.274 80.8378 218.6 81.1083 218.871C81.3919 219.141 81.7217 219.276 82.0977 219.276C82.4737 219.276 82.8036 219.141 83.0872 218.871C83.3643 218.607 83.5028 218.28 83.5028 217.891Z" fill="#7584B5"/>
<path d="M112.203 222.561H111.292V215.477H112.203L114.666 219.791H114.706L117.17 215.477H118.08V222.561H117.17V218.356L117.209 217.169H117.17L114.953 221.057H114.419L112.203 217.169H112.163L112.203 218.356V222.561ZM119.865 221.077C119.865 221.315 119.964 221.513 120.162 221.671C120.367 221.829 120.604 221.908 120.875 221.908C121.257 221.908 121.597 221.767 121.894 221.483C122.197 221.199 122.349 220.866 122.349 220.484C122.065 220.259 121.669 220.147 121.162 220.147C120.792 220.147 120.482 220.236 120.231 220.414C119.987 220.592 119.865 220.813 119.865 221.077ZM121.043 217.555C121.716 217.555 122.247 217.736 122.636 218.099C123.025 218.455 123.22 218.947 123.22 219.573V222.561H122.349V221.889H122.309C121.933 222.443 121.432 222.72 120.805 222.72C120.271 222.72 119.822 222.561 119.46 222.245C119.103 221.928 118.925 221.532 118.925 221.057C118.925 220.556 119.113 220.157 119.489 219.86C119.872 219.563 120.38 219.415 121.013 219.415C121.554 219.415 121.999 219.514 122.349 219.712V219.504C122.349 219.187 122.224 218.92 121.973 218.702C121.722 218.478 121.429 218.366 121.092 218.366C120.584 218.366 120.182 218.58 119.885 219.009L119.084 218.505C119.526 217.871 120.179 217.555 121.043 217.555ZM125.157 222.561H124.246V217.713H125.117V218.505H125.157C125.249 218.247 125.437 218.03 125.721 217.852C126.011 217.667 126.295 217.574 126.572 217.574C126.835 217.574 127.06 217.614 127.244 217.693L126.967 218.574C126.855 218.528 126.677 218.505 126.433 218.505C126.09 218.505 125.79 218.643 125.533 218.92C125.282 219.197 125.157 219.52 125.157 219.89V222.561ZM134.171 221.691V222.561H129.857V221.651L131.608 219.88C132.195 219.28 132.601 218.831 132.825 218.534C133.049 218.231 133.162 217.914 133.162 217.584C133.162 217.288 133.046 217.034 132.815 216.822C132.584 216.611 132.288 216.506 131.925 216.506C131.615 216.506 131.348 216.598 131.123 216.783C130.899 216.968 130.754 217.192 130.688 217.456L129.857 217.119C129.989 216.704 130.243 216.354 130.619 216.07C130.995 215.78 131.437 215.635 131.945 215.635C132.558 215.635 133.069 215.823 133.478 216.199C133.887 216.575 134.092 217.037 134.092 217.584C134.092 218.237 133.732 218.943 133.013 219.702L131.034 221.691H134.171ZM135.037 219.177C135.037 218.148 135.291 217.301 135.799 216.634C136.307 215.968 136.96 215.635 137.758 215.635C138.556 215.635 139.209 215.972 139.717 216.644C140.225 217.311 140.479 218.155 140.479 219.177C140.479 220.193 140.225 221.041 139.717 221.72C139.209 222.387 138.556 222.72 137.758 222.72C136.96 222.72 136.307 222.387 135.799 221.72C135.291 221.041 135.037 220.193 135.037 219.177ZM139.549 219.177C139.549 218.399 139.384 217.759 139.054 217.258C138.731 216.756 138.299 216.506 137.758 216.506C137.217 216.506 136.785 216.756 136.462 217.258C136.132 217.759 135.967 218.399 135.967 219.177C135.967 219.956 136.132 220.599 136.462 221.107C136.785 221.602 137.217 221.849 137.758 221.849C138.299 221.849 138.731 221.598 139.054 221.097C139.384 220.589 139.549 219.949 139.549 219.177Z" fill="#7584B5"/>
<path d="M169.165 222.561H168.255V215.477H169.165L171.629 219.791H171.668L174.132 215.477H175.042V222.561H174.132V218.356L174.172 217.169H174.132L171.916 221.057H171.381L169.165 217.169H169.125L169.165 218.356V222.561ZM176.828 221.077C176.828 221.315 176.927 221.513 177.125 221.671C177.329 221.829 177.566 221.908 177.837 221.908C178.22 221.908 178.559 221.767 178.856 221.483C179.16 221.199 179.311 220.866 179.311 220.484C179.028 220.259 178.632 220.147 178.124 220.147C177.754 220.147 177.444 220.236 177.194 220.414C176.95 220.592 176.828 220.813 176.828 221.077ZM178.005 217.555C178.678 217.555 179.209 217.736 179.598 218.099C179.987 218.455 180.182 218.947 180.182 219.573V222.561H179.311V221.889H179.272C178.896 222.443 178.394 222.72 177.768 222.72C177.233 222.72 176.785 222.561 176.422 222.245C176.066 221.928 175.888 221.532 175.888 221.057C175.888 220.556 176.076 220.157 176.452 219.86C176.834 219.563 177.342 219.415 177.975 219.415C178.516 219.415 178.962 219.514 179.311 219.712V219.504C179.311 219.187 179.186 218.92 178.935 218.702C178.685 218.478 178.391 218.366 178.055 218.366C177.547 218.366 177.144 218.58 176.847 219.009L176.046 218.505C176.488 217.871 177.141 217.555 178.005 217.555ZM182.119 222.561H181.209V217.713H182.079V218.505H182.119C182.211 218.247 182.399 218.03 182.683 217.852C182.973 217.667 183.257 217.574 183.534 217.574C183.798 217.574 184.022 217.614 184.207 217.693L183.93 218.574C183.818 218.528 183.64 218.505 183.395 218.505C183.052 218.505 182.752 218.643 182.495 218.92C182.244 219.197 182.119 219.52 182.119 219.89V222.561ZM191.133 221.691V222.561H186.819V221.651L188.571 219.88C189.158 219.28 189.563 218.831 189.788 218.534C190.012 218.231 190.124 217.914 190.124 217.584C190.124 217.288 190.009 217.034 189.778 216.822C189.547 216.611 189.25 216.506 188.887 216.506C188.577 216.506 188.31 216.598 188.086 216.783C187.861 216.968 187.716 217.192 187.65 217.456L186.819 217.119C186.951 216.704 187.205 216.354 187.581 216.07C187.957 215.78 188.399 215.635 188.907 215.635C189.52 215.635 190.032 215.823 190.441 216.199C190.85 216.575 191.054 217.037 191.054 217.584C191.054 218.237 190.695 218.943 189.976 219.702L187.997 221.691H191.133ZM194.436 215.793V222.561H193.525V216.921L192.209 217.495L191.863 216.724L193.852 215.793H194.436Z" fill="#7584B5"/>
<path d="M224.515 222.561H223.605V215.477H224.515L226.979 219.791H227.019L229.482 215.477H230.393V222.561H229.482V218.356L229.522 217.169H229.482L227.266 221.057H226.732L224.515 217.169H224.476L224.515 218.356V222.561ZM232.178 221.077C232.178 221.315 232.277 221.513 232.475 221.671C232.679 221.829 232.917 221.908 233.187 221.908C233.57 221.908 233.91 221.767 234.206 221.483C234.51 221.199 234.662 220.866 234.662 220.484C234.378 220.259 233.982 220.147 233.474 220.147C233.105 220.147 232.795 220.236 232.544 220.414C232.3 220.592 232.178 220.813 232.178 221.077ZM233.355 217.555C234.028 217.555 234.559 217.736 234.949 218.099C235.338 218.455 235.532 218.947 235.532 219.573V222.561H234.662V221.889H234.622C234.246 222.443 233.745 222.72 233.118 222.72C232.584 222.72 232.135 222.561 231.772 222.245C231.416 221.928 231.238 221.532 231.238 221.057C231.238 220.556 231.426 220.157 231.802 219.86C232.185 219.563 232.693 219.415 233.326 219.415C233.867 219.415 234.312 219.514 234.662 219.712V219.504C234.662 219.187 234.536 218.92 234.286 218.702C234.035 218.478 233.741 218.366 233.405 218.366C232.897 218.366 232.495 218.58 232.198 219.009L231.396 218.505C231.838 217.871 232.491 217.555 233.355 217.555ZM237.469 222.561H236.559V217.713H237.43V218.505H237.469C237.562 218.247 237.75 218.03 238.033 217.852C238.324 217.667 238.607 217.574 238.884 217.574C239.148 217.574 239.372 217.614 239.557 217.693L239.28 218.574C239.168 218.528 238.99 218.505 238.746 218.505C238.403 218.505 238.103 218.643 237.845 218.92C237.595 219.197 237.469 219.52 237.469 219.89V222.561ZM246.484 221.691V222.561H242.169V221.651L243.921 219.88C244.508 219.28 244.914 218.831 245.138 218.534C245.362 218.231 245.474 217.914 245.474 217.584C245.474 217.288 245.359 217.034 245.128 216.822C244.897 216.611 244.6 216.506 244.237 216.506C243.927 216.506 243.66 216.598 243.436 216.783C243.212 216.968 243.067 217.192 243.001 217.456L242.169 217.119C242.301 216.704 242.555 216.354 242.931 216.07C243.307 215.78 243.749 215.635 244.257 215.635C244.871 215.635 245.382 215.823 245.791 216.199C246.2 216.575 246.404 217.037 246.404 217.584C246.404 218.237 246.045 218.943 245.326 219.702L243.347 221.691H246.484ZM251.624 221.691V222.561H247.31V221.651L249.061 219.88C249.649 219.28 250.054 218.831 250.278 218.534C250.503 218.231 250.615 217.914 250.615 217.584C250.615 217.288 250.499 217.034 250.269 216.822C250.038 216.611 249.741 216.506 249.378 216.506C249.068 216.506 248.801 216.598 248.577 216.783C248.352 216.968 248.207 217.192 248.141 217.456L247.31 217.119C247.442 216.704 247.696 216.354 248.072 216.07C248.448 215.78 248.89 215.635 249.398 215.635C250.011 215.635 250.523 215.823 250.932 216.199C251.341 216.575 251.545 217.037 251.545 217.584C251.545 218.237 251.186 218.943 250.466 219.702L248.488 221.691H251.624Z" fill="#7584B5"/>
<path d="M280.527 222.561H279.617V215.477H280.527L282.991 219.791H283.031L285.495 215.477H286.405V222.561H285.495V218.356L285.534 217.169H285.495L283.278 221.057H282.744L280.527 217.169H280.488L280.527 218.356V222.561ZM288.19 221.077C288.19 221.315 288.289 221.513 288.487 221.671C288.691 221.829 288.929 221.908 289.199 221.908C289.582 221.908 289.922 221.767 290.219 221.483C290.522 221.199 290.674 220.866 290.674 220.484C290.39 220.259 289.994 220.147 289.486 220.147C289.117 220.147 288.807 220.236 288.556 220.414C288.312 220.592 288.19 220.813 288.19 221.077ZM289.368 217.555C290.04 217.555 290.571 217.736 290.961 218.099C291.35 218.455 291.544 218.947 291.544 219.573V222.561H290.674V221.889H290.634C290.258 222.443 289.757 222.72 289.13 222.72C288.596 222.72 288.147 222.561 287.784 222.245C287.428 221.928 287.25 221.532 287.25 221.057C287.25 220.556 287.438 220.157 287.814 219.86C288.197 219.563 288.705 219.415 289.338 219.415C289.879 219.415 290.324 219.514 290.674 219.712V219.504C290.674 219.187 290.548 218.92 290.298 218.702C290.047 218.478 289.754 218.366 289.417 218.366C288.909 218.366 288.507 218.58 288.21 219.009L287.408 218.505C287.85 217.871 288.503 217.555 289.368 217.555ZM293.482 222.561H292.571V217.713H293.442V218.505H293.482C293.574 218.247 293.762 218.03 294.046 217.852C294.336 217.667 294.619 217.574 294.896 217.574C295.16 217.574 295.385 217.614 295.569 217.693L295.292 218.574C295.18 218.528 295.002 218.505 294.758 218.505C294.415 218.505 294.115 218.643 293.858 218.92C293.607 219.197 293.482 219.52 293.482 219.89V222.561ZM302.496 221.691V222.561H298.182V221.651L299.933 219.88C300.52 219.28 300.926 218.831 301.15 218.534C301.374 218.231 301.486 217.914 301.486 217.584C301.486 217.288 301.371 217.034 301.14 216.822C300.909 216.611 300.612 216.506 300.25 216.506C299.94 216.506 299.672 216.598 299.448 216.783C299.224 216.968 299.079 217.192 299.013 217.456L298.182 217.119C298.314 216.704 298.567 216.354 298.943 216.07C299.319 215.78 299.761 215.635 300.269 215.635C300.883 215.635 301.394 215.823 301.803 216.199C302.212 216.575 302.417 217.037 302.417 217.584C302.417 218.237 302.057 218.943 301.338 219.702L299.359 221.691H302.496ZM307.785 220.642C307.785 221.236 307.564 221.73 307.122 222.126C306.686 222.522 306.146 222.72 305.499 222.72C304.991 222.72 304.533 222.568 304.124 222.265C303.708 221.948 303.428 221.536 303.283 221.028L304.114 220.681C304.219 221.057 304.391 221.348 304.628 221.552C304.872 221.75 305.163 221.849 305.499 221.849C305.868 221.849 306.188 221.734 306.459 221.503C306.723 221.265 306.855 220.978 306.855 220.642C306.855 220.305 306.716 220.022 306.439 219.791C306.169 219.56 305.842 219.445 305.459 219.445H304.876V218.594H305.39C305.753 218.594 306.05 218.495 306.281 218.297C306.512 218.092 306.627 217.828 306.627 217.505C306.627 217.208 306.518 216.968 306.301 216.783C306.083 216.598 305.796 216.506 305.44 216.506C304.866 216.506 304.473 216.799 304.262 217.386L303.421 217.03C303.573 216.615 303.827 216.278 304.183 216.021C304.539 215.764 304.958 215.635 305.44 215.635C306.04 215.635 306.545 215.813 306.954 216.169C307.356 216.512 307.557 216.958 307.557 217.505C307.557 218.158 307.254 218.643 306.647 218.96V218.999C307.003 219.151 307.28 219.372 307.478 219.662C307.683 219.952 307.785 220.279 307.785 220.642Z" fill="#7584B5"/>
<path d="M336.725 222.561H335.814V215.477H336.725L339.189 219.791H339.228L341.692 215.477H342.602V222.561H341.692V218.356L341.732 217.169H341.692L339.476 221.057H338.941L336.725 217.169H336.685L336.725 218.356V222.561ZM344.388 221.077C344.388 221.315 344.487 221.513 344.684 221.671C344.889 221.829 345.126 221.908 345.397 221.908C345.779 221.908 346.119 221.767 346.416 221.483C346.719 221.199 346.871 220.866 346.871 220.484C346.588 220.259 346.192 220.147 345.684 220.147C345.314 220.147 345.004 220.236 344.754 220.414C344.51 220.592 344.388 220.813 344.388 221.077ZM345.565 217.555C346.238 217.555 346.769 217.736 347.158 218.099C347.547 218.455 347.742 218.947 347.742 219.573V222.561H346.871V221.889H346.832C346.456 222.443 345.954 222.72 345.328 222.72C344.793 222.72 344.345 222.561 343.982 222.245C343.626 221.928 343.448 221.532 343.448 221.057C343.448 220.556 343.636 220.157 344.012 219.86C344.394 219.563 344.902 219.415 345.535 219.415C346.076 219.415 346.522 219.514 346.871 219.712V219.504C346.871 219.187 346.746 218.92 346.495 218.702C346.244 218.478 345.951 218.366 345.615 218.366C345.107 218.366 344.704 218.58 344.407 219.009L343.606 218.505C344.048 217.871 344.701 217.555 345.565 217.555ZM349.679 222.561H348.769V217.713H349.639V218.505H349.679C349.771 218.247 349.959 218.03 350.243 217.852C350.533 217.667 350.817 217.574 351.094 217.574C351.358 217.574 351.582 217.614 351.767 217.693L351.49 218.574C351.378 218.528 351.199 218.505 350.955 218.505C350.612 218.505 350.312 218.643 350.055 218.92C349.804 219.197 349.679 219.52 349.679 219.89V222.561ZM358.693 221.691V222.561H354.379V221.651L356.13 219.88C356.717 219.28 357.123 218.831 357.347 218.534C357.572 218.231 357.684 217.914 357.684 217.584C357.684 217.288 357.568 217.034 357.338 216.822C357.107 216.611 356.81 216.506 356.447 216.506C356.137 216.506 355.87 216.598 355.646 216.783C355.421 216.968 355.276 217.192 355.21 217.456L354.379 217.119C354.511 216.704 354.765 216.354 355.141 216.07C355.517 215.78 355.959 215.635 356.467 215.635C357.08 215.635 357.592 215.823 358 216.199C358.409 216.575 358.614 217.037 358.614 217.584C358.614 218.237 358.254 218.943 357.535 219.702L355.556 221.691H358.693ZM363.646 221.137V222.561H362.735V221.137H359.52V220.444L362.656 215.793H363.646V220.286H364.516V221.137H363.646ZM360.549 220.286H362.735V217.129H362.696L360.549 220.286Z" fill="#7584B5"/>
<path d="M392.552 222.561H391.641V215.477H392.552L395.016 219.791H395.055L397.519 215.477H398.429V222.561H397.519V218.356L397.559 217.169H397.519L395.303 221.057H394.768L392.552 217.169H392.512L392.552 218.356V222.561ZM400.215 221.077C400.215 221.315 400.314 221.513 400.511 221.671C400.716 221.829 400.953 221.908 401.224 221.908C401.606 221.908 401.946 221.767 402.243 221.483C402.546 221.199 402.698 220.866 402.698 220.484C402.415 220.259 402.019 220.147 401.511 220.147C401.141 220.147 400.831 220.236 400.581 220.414C400.337 220.592 400.215 220.813 400.215 221.077ZM401.392 217.555C402.065 217.555 402.596 217.736 402.985 218.099C403.374 218.455 403.569 218.947 403.569 219.573V222.561H402.698V221.889H402.659C402.283 222.443 401.781 222.72 401.155 222.72C400.62 222.72 400.172 222.561 399.809 222.245C399.453 221.928 399.275 221.532 399.275 221.057C399.275 220.556 399.463 220.157 399.839 219.86C400.221 219.563 400.729 219.415 401.362 219.415C401.903 219.415 402.349 219.514 402.698 219.712V219.504C402.698 219.187 402.573 218.92 402.322 218.702C402.071 218.478 401.778 218.366 401.442 218.366C400.934 218.366 400.531 218.58 400.234 219.009L399.433 218.505C399.875 217.871 400.528 217.555 401.392 217.555ZM405.506 222.561H404.596V217.713H405.466V218.505H405.506C405.598 218.247 405.786 218.03 406.07 217.852C406.36 217.667 406.644 217.574 406.921 217.574C407.185 217.574 407.409 217.614 407.594 217.693L407.317 218.574C407.205 218.528 407.026 218.505 406.782 218.505C406.439 218.505 406.139 218.643 405.882 218.92C405.631 219.197 405.506 219.52 405.506 219.89V222.561ZM414.52 221.691V222.561H410.206V221.651L411.957 219.88C412.544 219.28 412.95 218.831 413.174 218.534C413.399 218.231 413.511 217.914 413.511 217.584C413.511 217.288 413.395 217.034 413.165 216.822C412.934 216.611 412.637 216.506 412.274 216.506C411.964 216.506 411.697 216.598 411.473 216.783C411.248 216.968 411.103 217.192 411.037 217.456L410.206 217.119C410.338 216.704 410.592 216.354 410.968 216.07C411.344 215.78 411.786 215.635 412.294 215.635C412.907 215.635 413.419 215.823 413.827 216.199C414.236 216.575 414.441 217.037 414.441 217.584C414.441 218.237 414.081 218.943 413.362 219.702L411.383 221.691H414.52ZM419.967 220.444C419.967 221.09 419.743 221.631 419.295 222.067C418.846 222.502 418.292 222.72 417.632 222.72C417.105 222.72 416.626 222.555 416.198 222.225C415.769 221.895 415.485 221.45 415.347 220.889L416.158 220.563C416.257 220.958 416.435 221.272 416.692 221.503C416.956 221.734 417.263 221.849 417.613 221.849C418.035 221.849 418.378 221.72 418.642 221.463C418.912 221.199 419.047 220.863 419.047 220.454C419.047 220.038 418.912 219.699 418.642 219.435C418.378 219.171 418.038 219.039 417.622 219.039C417.141 219.039 416.762 219.233 416.485 219.623L415.564 219.227L416 215.793H419.552V216.664H416.762L416.514 218.604L416.554 218.613C416.89 218.343 417.299 218.208 417.781 218.208C418.388 218.208 418.902 218.422 419.324 218.851C419.753 219.28 419.967 219.811 419.967 220.444Z" fill="#7584B5"/>
</g>
<defs>
<filter id="filter0_ddii" x="-40" y="-40" width="580" height="360.667" filterUnits="userSpaceOnUse" color-interpolation-filters="sRGB">
<feFlood flood-opacity="0" result="BackgroundImageFix"/>
<feColorMatrix in="SourceAlpha" type="matrix" values="0 0 0 0 0 0 0 0 0 0 0 0 0 0 0 0 0 0 127 0"/>
<feOffset dx="30" dy="30"/>
<feGaussianBlur stdDeviation="20"/>
<feColorMatrix type="matrix" values="0 0 0 0 0 0 0 0 0 0 0 0 0 0 0 0 0 0 0.2 0"/>
<feBlend mode="normal" in2="BackgroundImageFix" result="effect1_dropShadow"/>
<feColorMatrix in="SourceAlpha" type="matrix" values="0 0 0 0 0 0 0 0 0 0 0 0 0 0 0 0 0 0 127 0"/>
<feOffset dx="-10" dy="-10"/>
<feGaussianBlur stdDeviation="15"/>
<feColorMatrix type="matrix" values="0 0 0 0 0.100933 0 0 0 0 0.14801 0 0 0 0 0.303725 0 0 0 1 0"/>
<feBlend mode="normal" in2="effect1_dropShadow" result="effect2_dropShadow"/>
<feBlend mode="normal" in="SourceGraphic" in2="effect2_dropShadow" result="shape"/>
<feColorMatrix in="SourceAlpha" type="matrix" values="0 0 0 0 0 0 0 0 0 0 0 0 0 0 0 0 0 0 127 0" result="hardAlpha"/>
<feOffset dx="6" dy="6"/>
<feGaussianBlur stdDeviation="5"/>
<feComposite in2="hardAlpha" operator="arithmetic" k2="-1" k3="1"/>
<feColorMatrix type="matrix" values="0 0 0 0 0.192853 0 0 0 0 0.251381 0 0 0 0 0.444973 0 0 0 1 0"/>
<feBlend mode="normal" in2="shape" result="effect3_innerShadow"/>
<feColorMatrix in="SourceAlpha" type="matrix" values="0 0 0 0 0 0 0 0 0 0 0 0 0 0 0 0 0 0 127 0" result="hardAlpha"/>
<feOffset dx="-6" dy="-6"/>
<feGaussianBlur stdDeviation="5"/>
<feComposite in2="hardAlpha" operator="arithmetic" k2="-1" k3="1"/>
<feColorMatrix type="matrix" values="0 0 0 0 0.103918 0 0 0 0 0.154724 0 0 0 0 0.322775 0 0 0 1 0"/>
<feBlend mode="normal" in2="effect3_innerShadow" result="effect4_innerShadow"/>
</filter>
<filter id="filter1_i" x="331.474" y="21" width="22.7895" height="22.7895" filterUnits="userSpaceOnUse" color-interpolation-filters="sRGB">
<feFlood flood-opacity="0" result="BackgroundImageFix"/>
<feBlend mode="normal" in="SourceGraphic" in2="BackgroundImageFix" result="shape"/>
<feColorMatrix in="SourceAlpha" type="matrix" values="0 0 0 0 0 0 0 0 0 0 0 0 0 0 0 0 0 0 127 0" result="hardAlpha"/>
<feOffset dx="3" dy="3"/>
<feGaussianBlur stdDeviation="2"/>
<feComposite in2="hardAlpha" operator="arithmetic" k2="-1" k3="1"/>
<feColorMatrix type="matrix" values="0 0 0 0 0 0 0 0 0 0 0 0 0 0 0 0 0 0 0.1 0"/>
<feBlend mode="normal" in2="shape" result="effect1_innerShadow"/>
</filter>
<filter id="filter2_ddii" x="321.158" y="-19" width="99.7895" height="99.7895" filterUnits="userSpaceOnUse" color-interpolation-filters="sRGB">
<feFlood flood-opacity="0" result="BackgroundImageFix"/>
<feColorMatrix in="SourceAlpha" type="matrix" values="0 0 0 0 0 0 0 0 0 0 0 0 0 0 0 0 0 0 127 0"/>
<feOffset dx="10" dy="10"/>
<feGaussianBlur stdDeviation="15"/>
<feColorMatrix type="matrix" values="0 0 0 0 0.0344006 0 0 0 0 0.24043 0 0 0 0 0.522985 0 0 0 0.4 0"/>
<feBlend mode="normal" in2="BackgroundImageFix" result="effect1_dropShadow"/>
<feColorMatrix in="SourceAlpha" type="matrix" values="0 0 0 0 0 0 0 0 0 0 0 0 0 0 0 0 0 0 127 0"/>
<feOffset dx="-10" dy="-10"/>
<feGaussianBlur stdDeviation="15"/>
<feColorMatrix type="matrix" values="0 0 0 0 0.106163 0 0 0 0 0.257163 0 0 0 0 0.464249 0 0 0 0.6 0"/>
<feBlend mode="normal" in2="effect1_dropShadow" result="effect2_dropShadow"/>
<feBlend mode="normal" in="SourceGraphic" in2="effect2_dropShadow" result="shape"/>
<feColorMatrix in="SourceAlpha" type="matrix" values="0 0 0 0 0 0 0 0 0 0 0 0 0 0 0 0 0 0 127 0" result="hardAlpha"/>
<feOffset dx="2" dy="2"/>
<feGaussianBlur stdDeviation="2"/>
<feComposite in2="hardAlpha" operator="arithmetic" k2="-1" k3="1"/>
<feColorMatrix type="matrix" values="0 0 0 0 0.498171 0 0 0 0 0.709785 0 0 0 0 1 0 0 0 1 0"/>
<feBlend mode="normal" in2="shape" result="effect3_innerShadow"/>
<feColorMatrix in="SourceAlpha" type="matrix" values="0 0 0 0 0 0 0 0 0 0 0 0 0 0 0 0 0 0 127 0" result="hardAlpha"/>
<feOffset dx="-2" dy="-2"/>
<feGaussianBlur stdDeviation="2"/>
<feComposite in2="hardAlpha" operator="arithmetic" k2="-1" k3="1"/>
<feColorMatrix type="matrix" values="0 0 0 0 0.228705 0 0 0 0 0.550273 0 0 0 0 0.991282 0 0 0 1 0"/>
<feBlend mode="normal" in2="effect3_innerShadow" result="effect4_innerShadow"/>
</filter>
<filter id="filter3_i" x="390.842" y="21" width="22.7895" height="22.7895" filterUnits="userSpaceOnUse" color-interpolation-filters="sRGB">
<feFlood flood-opacity="0" result="BackgroundImageFix"/>
<feBlend mode="normal" in="SourceGraphic" in2="BackgroundImageFix" result="shape"/>
<feColorMatrix in="SourceAlpha" type="matrix" values="0 0 0 0 0 0 0 0 0 0 0 0 0 0 0 0 0 0 127 0" result="hardAlpha"/>
<feOffset dx="3" dy="3"/>
<feGaussianBlur stdDeviation="2"/>
<feComposite in2="hardAlpha" operator="arithmetic" k2="-1" k3="1"/>
<feColorMatrix type="matrix" values="0 0 0 0 0 0 0 0 0 0 0 0 0 0 0 0 0 0 0.1 0"/>
<feBlend mode="normal" in2="shape" result="effect1_innerShadow"/>
</filter>
<filter id="filter4_i" x="420.526" y="21" width="22.7895" height="22.7895" filterUnits="userSpaceOnUse" color-interpolation-filters="sRGB">
<feFlood flood-opacity="0" result="BackgroundImageFix"/>
<feBlend mode="normal" in="SourceGraphic" in2="BackgroundImageFix" result="shape"/>
<feColorMatrix in="SourceAlpha" type="matrix" values="0 0 0 0 0 0 0 0 0 0 0 0 0 0 0 0 0 0 127 0" result="hardAlpha"/>
<feOffset dx="3" dy="3"/>
<feGaussianBlur stdDeviation="2"/>
<feComposite in2="hardAlpha" operator="arithmetic" k2="-1" k3="1"/>
<feColorMatrix type="matrix" values="0 0 0 0 0 0 0 0 0 0 0 0 0 0 0 0 0 0 0.1 0"/>
<feBlend mode="normal" in2="shape" result="effect1_innerShadow"/>
</filter>
<filter id="filter5_i" x="65.9649" y="91.5264" width="8.59649" height="114.14" filterUnits="userSpaceOnUse" color-interpolation-filters="sRGB">
<feFlood flood-opacity="0" result="BackgroundImageFix"/>
<feBlend mode="normal" in="SourceGraphic" in2="BackgroundImageFix" result="shape"/>
<feColorMatrix in="SourceAlpha" type="matrix" values="0 0 0 0 0 0 0 0 0 0 0 0 0 0 0 0 0 0 127 0" result="hardAlpha"/>
<feOffset dx="2" dy="2"/>
<feGaussianBlur stdDeviation="1"/>
<feComposite in2="hardAlpha" operator="arithmetic" k2="-1" k3="1"/>
<feColorMatrix type="matrix" values="0 0 0 0 0 0 0 0 0 0 0 0 0 0 0 0 0 0 0.1 0"/>
<feBlend mode="normal" in2="shape" result="effect1_innerShadow"/>
</filter>
<filter id="filter6_ddii" x="35.9649" y="68.1228" width="76.5965" height="175.544" filterUnits="userSpaceOnUse" color-interpolation-filters="sRGB">
<feFlood flood-opacity="0" result="BackgroundImageFix"/>
<feColorMatrix in="SourceAlpha" type="matrix" values="0 0 0 0 0 0 0 0 0 0 0 0 0 0 0 0 0 0 127 0"/>
<feOffset dx="10" dy="10"/>
<feGaussianBlur stdDeviation="15"/>
<feColorMatrix type="matrix" values="0 0 0 0 0 0 0 0 0 0 0 0 0 0 0 0 0 0 0.4 0"/>
<feBlend mode="normal" in2="BackgroundImageFix" result="effect1_dropShadow"/>
<feColorMatrix in="SourceAlpha" type="matrix" values="0 0 0 0 0 0 0 0 0 0 0 0 0 0 0 0 0 0 127 0"/>
<feOffset dx="-10" dy="-10"/>
<feGaussianBlur stdDeviation="10"/>
<feColorMatrix type="matrix" values="0 0 0 0 0 0 0 0 0 0 0 0 0 0 0 0 0 0 0.1 0"/>
<feBlend mode="normal" in2="effect1_dropShadow" result="effect2_dropShadow"/>
<feBlend mode="normal" in="SourceGraphic" in2="effect2_dropShadow" result="shape"/>
<feColorMatrix in="SourceAlpha" type="matrix" values="0 0 0 0 0 0 0 0 0 0 0 0 0 0 0 0 0 0 127 0" result="hardAlpha"/>
<feOffset dx="2" dy="2"/>
<feGaussianBlur stdDeviation="2"/>
<feComposite in2="hardAlpha" operator="arithmetic" k2="-1" k3="1"/>
<feColorMatrix type="matrix" values="0 0 0 0 1 0 0 0 0 0.871413 0 0 0 0 0.53649 0 0 0 1 0"/>
<feBlend mode="normal" in2="shape" result="effect3_innerShadow"/>
<feColorMatrix in="SourceAlpha" type="matrix" values="0 0 0 0 0 0 0 0 0 0 0 0 0 0 0 0 0 0 127 0" result="hardAlpha"/>
<feOffset dx="-2" dy="-2"/>
<feGaussianBlur stdDeviation="2"/>
<feComposite in2="hardAlpha" operator="arithmetic" k2="-1" k3="1"/>
<feColorMatrix type="matrix" values="0 0 0 0 0.88018 0 0 0 0 0.703899 0 0 0 0 0.24475 0 0 0 1 0"/>
<feBlend mode="normal" in2="effect3_innerShadow" result="effect4_innerShadow"/>
</filter>
<filter id="filter7_i" x="122.035" y="91.5264" width="8.59649" height="114.14" filterUnits="userSpaceOnUse" color-interpolation-filters="sRGB">
<feFlood flood-opacity="0" result="BackgroundImageFix"/>
<feBlend mode="normal" in="SourceGraphic" in2="BackgroundImageFix" result="shape"/>
<feColorMatrix in="SourceAlpha" type="matrix" values="0 0 0 0 0 0 0 0 0 0 0 0 0 0 0 0 0 0 127 0" result="hardAlpha"/>
<feOffset dx="2" dy="2"/>
<feGaussianBlur stdDeviation="1"/>
<feComposite in2="hardAlpha" operator="arithmetic" k2="-1" k3="1"/>
<feColorMatrix type="matrix" values="0 0 0 0 0 0 0 0 0 0 0 0 0 0 0 0 0 0 0.1 0"/>
<feBlend mode="normal" in2="shape" result="effect1_innerShadow"/>
</filter>
<filter id="filter8_ddii" x="92.0351" y="101.105" width="76.5965" height="142.561" filterUnits="userSpaceOnUse" color-interpolation-filters="sRGB">
<feFlood flood-opacity="0" result="BackgroundImageFix"/>
<feColorMatrix in="SourceAlpha" type="matrix" values="0 0 0 0 0 0 0 0 0 0 0 0 0 0 0 0 0 0 127 0"/>
<feOffset dx="10" dy="10"/>
<feGaussianBlur stdDeviation="15"/>
<feColorMatrix type="matrix" values="0 0 0 0 0 0 0 0 0 0 0 0 0 0 0 0 0 0 0.4 0"/>
<feBlend mode="normal" in2="BackgroundImageFix" result="effect1_dropShadow"/>
<feColorMatrix in="SourceAlpha" type="matrix" values="0 0 0 0 0 0 0 0 0 0 0 0 0 0 0 0 0 0 127 0"/>
<feOffset dx="-10" dy="-10"/>
<feGaussianBlur stdDeviation="10"/>
<feColorMatrix type="matrix" values="0 0 0 0 0 0 0 0 0 0 0 0 0 0 0 0 0 0 0.1 0"/>
<feBlend mode="normal" in2="effect1_dropShadow" result="effect2_dropShadow"/>
<feBlend mode="normal" in="SourceGraphic" in2="effect2_dropShadow" result="shape"/>
<feColorMatrix in="SourceAlpha" type="matrix" values="0 0 0 0 0 0 0 0 0 0 0 0 0 0 0 0 0 0 127 0" result="hardAlpha"/>
<feOffset dx="2" dy="2"/>
<feGaussianBlur stdDeviation="2"/>
<feComposite in2="hardAlpha" operator="arithmetic" k2="-1" k3="1"/>
<feColorMatrix type="matrix" values="0 0 0 0 1 0 0 0 0 0.871413 0 0 0 0 0.53649 0 0 0 1 0"/>
<feBlend mode="normal" in2="shape" result="effect3_innerShadow"/>
<feColorMatrix in="SourceAlpha" type="matrix" values="0 0 0 0 0 0 0 0 0 0 0 0 0 0 0 0 0 0 127 0" result="hardAlpha"/>
<feOffset dx="-2" dy="-2"/>
<feGaussianBlur stdDeviation="2"/>
<feComposite in2="hardAlpha" operator="arithmetic" k2="-1" k3="1"/>
<feColorMatrix type="matrix" values="0 0 0 0 0.88018 0 0 0 0 0.703899 0 0 0 0 0.24475 0 0 0 1 0"/>
<feBlend mode="normal" in2="effect3_innerShadow" result="effect4_innerShadow"/>
</filter>
<filter id="filter9_i" x="178.105" y="91.5264" width="8.59649" height="114.14" filterUnits="userSpaceOnUse" color-interpolation-filters="sRGB">
<feFlood flood-opacity="0" result="BackgroundImageFix"/>
<feBlend mode="normal" in="SourceGraphic" in2="BackgroundImageFix" result="shape"/>
<feColorMatrix in="SourceAlpha" type="matrix" values="0 0 0 0 0 0 0 0 0 0 0 0 0 0 0 0 0 0 127 0" result="hardAlpha"/>
<feOffset dx="2" dy="2"/>
<feGaussianBlur stdDeviation="1"/>
<feComposite in2="hardAlpha" operator="arithmetic" k2="-1" k3="1"/>
<feColorMatrix type="matrix" values="0 0 0 0 0 0 0 0 0 0 0 0 0 0 0 0 0 0 0.1 0"/>
<feBlend mode="normal" in2="shape" result="effect1_innerShadow"/>
</filter>
<filter id="filter10_ddii" x="148.105" y="121.719" width="76.5965" height="121.947" filterUnits="userSpaceOnUse" color-interpolation-filters="sRGB">
<feFlood flood-opacity="0" result="BackgroundImageFix"/>
<feColorMatrix in="SourceAlpha" type="matrix" values="0 0 0 0 0 0 0 0 0 0 0 0 0 0 0 0 0 0 127 0"/>
<feOffset dx="10" dy="10"/>
<feGaussianBlur stdDeviation="15"/>
<feColorMatrix type="matrix" values="0 0 0 0 0 0 0 0 0 0 0 0 0 0 0 0 0 0 0.4 0"/>
<feBlend mode="normal" in2="BackgroundImageFix" result="effect1_dropShadow"/>
<feColorMatrix in="SourceAlpha" type="matrix" values="0 0 0 0 0 0 0 0 0 0 0 0 0 0 0 0 0 0 127 0"/>
<feOffset dx="-10" dy="-10"/>
<feGaussianBlur stdDeviation="10"/>
<feColorMatrix type="matrix" values="0 0 0 0 0 0 0 0 0 0 0 0 0 0 0 0 0 0 0.1 0"/>
<feBlend mode="normal" in2="effect1_dropShadow" result="effect2_dropShadow"/>
<feBlend mode="normal" in="SourceGraphic" in2="effect2_dropShadow" result="shape"/>
<feColorMatrix in="SourceAlpha" type="matrix" values="0 0 0 0 0 0 0 0 0 0 0 0 0 0 0 0 0 0 127 0" result="hardAlpha"/>
<feOffset dx="2" dy="2"/>
<feGaussianBlur stdDeviation="2"/>
<feComposite in2="hardAlpha" operator="arithmetic" k2="-1" k3="1"/>
<feColorMatrix type="matrix" values="0 0 0 0 1 0 0 0 0 0.871413 0 0 0 0 0.53649 0 0 0 1 0"/>
<feBlend mode="normal" in2="shape" result="effect3_innerShadow"/>
<feColorMatrix in="SourceAlpha" type="matrix" values="0 0 0 0 0 0 0 0 0 0 0 0 0 0 0 0 0 0 127 0" result="hardAlpha"/>
<feOffset dx="-2" dy="-2"/>
<feGaussianBlur stdDeviation="2"/>
<feComposite in2="hardAlpha" operator="arithmetic" k2="-1" k3="1"/>
<feColorMatrix type="matrix" values="0 0 0 0 0.88018 0 0 0 0 0.703899 0 0 0 0 0.24475 0 0 0 1 0"/>
<feBlend mode="normal" in2="effect3_innerShadow" result="effect4_innerShadow"/>
</filter>
<filter id="filter11_i" x="234.175" y="91.5264" width="8.59649" height="114.14" filterUnits="userSpaceOnUse" color-interpolation-filters="sRGB">
<feFlood flood-opacity="0" result="BackgroundImageFix"/>
<feBlend mode="normal" in="SourceGraphic" in2="BackgroundImageFix" result="shape"/>
<feColorMatrix in="SourceAlpha" type="matrix" values="0 0 0 0 0 0 0 0 0 0 0 0 0 0 0 0 0 0 127 0" result="hardAlpha"/>
<feOffset dx="2" dy="2"/>
<feGaussianBlur stdDeviation="1"/>
<feComposite in2="hardAlpha" operator="arithmetic" k2="-1" k3="1"/>
<feColorMatrix type="matrix" values="0 0 0 0 0 0 0 0 0 0 0 0 0 0 0 0 0 0 0.1 0"/>
<feBlend mode="normal" in2="shape" result="effect1_innerShadow"/>
</filter>
<filter id="filter12_ddii" x="204.175" y="87.9124" width="76.5965" height="155.754" filterUnits="userSpaceOnUse" color-interpolation-filters="sRGB">
<feFlood flood-opacity="0" result="BackgroundImageFix"/>
<feColorMatrix in="SourceAlpha" type="matrix" values="0 0 0 0 0 0 0 0 0 0 0 0 0 0 0 0 0 0 127 0"/>
<feOffset dx="10" dy="10"/>
<feGaussianBlur stdDeviation="15"/>
<feColorMatrix type="matrix" values="0 0 0 0 0 0 0 0 0 0 0 0 0 0 0 0 0 0 0.4 0"/>
<feBlend mode="normal" in2="BackgroundImageFix" result="effect1_dropShadow"/>
<feColorMatrix in="SourceAlpha" type="matrix" values="0 0 0 0 0 0 0 0 0 0 0 0 0 0 0 0 0 0 127 0"/>
<feOffset dx="-10" dy="-10"/>
<feGaussianBlur stdDeviation="10"/>
<feColorMatrix type="matrix" values="0 0 0 0 0 0 0 0 0 0 0 0 0 0 0 0 0 0 0.1 0"/>
<feBlend mode="normal" in2="effect1_dropShadow" result="effect2_dropShadow"/>
<feBlend mode="normal" in="SourceGraphic" in2="effect2_dropShadow" result="shape"/>
<feColorMatrix in="SourceAlpha" type="matrix" values="0 0 0 0 0 0 0 0 0 0 0 0 0 0 0 0 0 0 127 0" result="hardAlpha"/>
<feOffset dx="2" dy="2"/>
<feGaussianBlur stdDeviation="2"/>
<feComposite in2="hardAlpha" operator="arithmetic" k2="-1" k3="1"/>
<feColorMatrix type="matrix" values="0 0 0 0 1 0 0 0 0 0.871413 0 0 0 0 0.53649 0 0 0 1 0"/>
<feBlend mode="normal" in2="shape" result="effect3_innerShadow"/>
<feColorMatrix in="SourceAlpha" type="matrix" values="0 0 0 0 0 0 0 0 0 0 0 0 0 0 0 0 0 0 127 0" result="hardAlpha"/>
<feOffset dx="-2" dy="-2"/>
<feGaussianBlur stdDeviation="2"/>
<feComposite in2="hardAlpha" operator="arithmetic" k2="-1" k3="1"/>
<feColorMatrix type="matrix" values="0 0 0 0 0.88018 0 0 0 0 0.703899 0 0 0 0 0.24475 0 0 0 1 0"/>
<feBlend mode="normal" in2="effect3_innerShadow" result="effect4_innerShadow"/>
</filter>
<filter id="filter13_i" x="290.246" y="91.5264" width="8.59649" height="114.14" filterUnits="userSpaceOnUse" color-interpolation-filters="sRGB">
<feFlood flood-opacity="0" result="BackgroundImageFix"/>
<feBlend mode="normal" in="SourceGraphic" in2="BackgroundImageFix" result="shape"/>
<feColorMatrix in="SourceAlpha" type="matrix" values="0 0 0 0 0 0 0 0 0 0 0 0 0 0 0 0 0 0 127 0" result="hardAlpha"/>
<feOffset dx="2" dy="2"/>
<feGaussianBlur stdDeviation="1"/>
<feComposite in2="hardAlpha" operator="arithmetic" k2="-1" k3="1"/>
<feColorMatrix type="matrix" values="0 0 0 0 0 0 0 0 0 0 0 0 0 0 0 0 0 0 0.1 0"/>
<feBlend mode="normal" in2="shape" result="effect1_innerShadow"/>
</filter>
<filter id="filter14_ddii" x="260.246" y="105.228" width="76.5965" height="138.439" filterUnits="userSpaceOnUse" color-interpolation-filters="sRGB">
<feFlood flood-opacity="0" result="BackgroundImageFix"/>
<feColorMatrix in="SourceAlpha" type="matrix" values="0 0 0 0 0 0 0 0 0 0 0 0 0 0 0 0 0 0 127 0"/>
<feOffset dx="10" dy="10"/>
<feGaussianBlur stdDeviation="15"/>
<feColorMatrix type="matrix" values="0 0 0 0 0 0 0 0 0 0 0 0 0 0 0 0 0 0 0.4 0"/>
<feBlend mode="normal" in2="BackgroundImageFix" result="effect1_dropShadow"/>
<feColorMatrix in="SourceAlpha" type="matrix" values="0 0 0 0 0 0 0 0 0 0 0 0 0 0 0 0 0 0 127 0"/>
<feOffset dx="-10" dy="-10"/>
<feGaussianBlur stdDeviation="10"/>
<feColorMatrix type="matrix" values="0 0 0 0 0 0 0 0 0 0 0 0 0 0 0 0 0 0 0.1 0"/>
<feBlend mode="normal" in2="effect1_dropShadow" result="effect2_dropShadow"/>
<feBlend mode="normal" in="SourceGraphic" in2="effect2_dropShadow" result="shape"/>
<feColorMatrix in="SourceAlpha" type="matrix" values="0 0 0 0 0 0 0 0 0 0 0 0 0 0 0 0 0 0 127 0" result="hardAlpha"/>
<feOffset dx="2" dy="2"/>
<feGaussianBlur stdDeviation="2"/>
<feComposite in2="hardAlpha" operator="arithmetic" k2="-1" k3="1"/>
<feColorMatrix type="matrix" values="0 0 0 0 1 0 0 0 0 0.871413 0 0 0 0 0.53649 0 0 0 1 0"/>
<feBlend mode="normal" in2="shape" result="effect3_innerShadow"/>
<feColorMatrix in="SourceAlpha" type="matrix" values="0 0 0 0 0 0 0 0 0 0 0 0 0 0 0 0 0 0 127 0" result="hardAlpha"/>
<feOffset dx="-2" dy="-2"/>
<feGaussianBlur stdDeviation="2"/>
<feComposite in2="hardAlpha" operator="arithmetic" k2="-1" k3="1"/>
<feColorMatrix type="matrix" values="0 0 0 0 0.88018 0 0 0 0 0.703899 0 0 0 0 0.24475 0 0 0 1 0"/>
<feBlend mode="normal" in2="effect3_innerShadow" result="effect4_innerShadow"/>
</filter>
<filter id="filter15_i" x="346.316" y="91.5264" width="8.59649" height="114.14" filterUnits="userSpaceOnUse" color-interpolation-filters="sRGB">
<feFlood flood-opacity="0" result="BackgroundImageFix"/>
<feBlend mode="normal" in="SourceGraphic" in2="BackgroundImageFix" result="shape"/>
<feColorMatrix in="SourceAlpha" type="matrix" values="0 0 0 0 0 0 0 0 0 0 0 0 0 0 0 0 0 0 127 0" result="hardAlpha"/>
<feOffset dx="2" dy="2"/>
<feGaussianBlur stdDeviation="1"/>
<feComposite in2="hardAlpha" operator="arithmetic" k2="-1" k3="1"/>
<feColorMatrix type="matrix" values="0 0 0 0 0 0 0 0 0 0 0 0 0 0 0 0 0 0 0.1 0"/>
<feBlend mode="normal" in2="shape" result="effect1_innerShadow"/>
</filter>
<filter id="filter16_ddii" x="316.316" y="77.193" width="76.5965" height="166.474" filterUnits="userSpaceOnUse" color-interpolation-filters="sRGB">
<feFlood flood-opacity="0" result="BackgroundImageFix"/>
<feColorMatrix in="SourceAlpha" type="matrix" values="0 0 0 0 0 0 0 0 0 0 0 0 0 0 0 0 0 0 127 0"/>
<feOffset dx="10" dy="10"/>
<feGaussianBlur stdDeviation="15"/>
<feColorMatrix type="matrix" values="0 0 0 0 0 0 0 0 0 0 0 0 0 0 0 0 0 0 0.4 0"/>
<feBlend mode="normal" in2="BackgroundImageFix" result="effect1_dropShadow"/>
<feColorMatrix in="SourceAlpha" type="matrix" values="0 0 0 0 0 0 0 0 0 0 0 0 0 0 0 0 0 0 127 0"/>
<feOffset dx="-10" dy="-10"/>
<feGaussianBlur stdDeviation="10"/>
<feColorMatrix type="matrix" values="0 0 0 0 0 0 0 0 0 0 0 0 0 0 0 0 0 0 0.1 0"/>
<feBlend mode="normal" in2="effect1_dropShadow" result="effect2_dropShadow"/>
<feBlend mode="normal" in="SourceGraphic" in2="effect2_dropShadow" result="shape"/>
<feColorMatrix in="SourceAlpha" type="matrix" values="0 0 0 0 0 0 0 0 0 0 0 0 0 0 0 0 0 0 127 0" result="hardAlpha"/>
<feOffset dx="2" dy="2"/>
<feGaussianBlur stdDeviation="2"/>
<feComposite in2="hardAlpha" operator="arithmetic" k2="-1" k3="1"/>
<feColorMatrix type="matrix" values="0 0 0 0 1 0 0 0 0 0.871413 0 0 0 0 0.53649 0 0 0 1 0"/>
<feBlend mode="normal" in2="shape" result="effect3_innerShadow"/>
<feColorMatrix in="SourceAlpha" type="matrix" values="0 0 0 0 0 0 0 0 0 0 0 0 0 0 0 0 0 0 127 0" result="hardAlpha"/>
<feOffset dx="-2" dy="-2"/>
<feGaussianBlur stdDeviation="2"/>
<feComposite in2="hardAlpha" operator="arithmetic" k2="-1" k3="1"/>
<feColorMatrix type="matrix" values="0 0 0 0 0.88018 0 0 0 0 0.703899 0 0 0 0 0.24475 0 0 0 1 0"/>
<feBlend mode="normal" in2="effect3_innerShadow" result="effect4_innerShadow"/>
</filter>
<filter id="filter17_i" x="402.386" y="91.5264" width="8.59649" height="114.14" filterUnits="userSpaceOnUse" color-interpolation-filters="sRGB">
<feFlood flood-opacity="0" result="BackgroundImageFix"/>
<feBlend mode="normal" in="SourceGraphic" in2="BackgroundImageFix" result="shape"/>
<feColorMatrix in="SourceAlpha" type="matrix" values="0 0 0 0 0 0 0 0 0 0 0 0 0 0 0 0 0 0 127 0" result="hardAlpha"/>
<feOffset dx="2" dy="2"/>
<feGaussianBlur stdDeviation="1"/>
<feComposite in2="hardAlpha" operator="arithmetic" k2="-1" k3="1"/>
<feColorMatrix type="matrix" values="0 0 0 0 0 0 0 0 0 0 0 0 0 0 0 0 0 0 0.1 0"/>
<feBlend mode="normal" in2="shape" result="effect1_innerShadow"/>
</filter>
<filter id="filter18_ddii" x="372.386" y="68.1228" width="76.5965" height="175.544" filterUnits="userSpaceOnUse" color-interpolation-filters="sRGB">
<feFlood flood-opacity="0" result="BackgroundImageFix"/>
<feColorMatrix in="SourceAlpha" type="matrix" values="0 0 0 0 0 0 0 0 0 0 0 0 0 0 0 0 0 0 127 0"/>
<feOffset dx="10" dy="10"/>
<feGaussianBlur stdDeviation="15"/>
<feColorMatrix type="matrix" values="0 0 0 0 0 0 0 0 0 0 0 0 0 0 0 0 0 0 0.4 0"/>
<feBlend mode="normal" in2="BackgroundImageFix" result="effect1_dropShadow"/>
<feColorMatrix in="SourceAlpha" type="matrix" values="0 0 0 0 0 0 0 0 0 0 0 0 0 0 0 0 0 0 127 0"/>
<feOffset dx="-10" dy="-10"/>
<feGaussianBlur stdDeviation="10"/>
<feColorMatrix type="matrix" values="0 0 0 0 0 0 0 0 0 0 0 0 0 0 0 0 0 0 0.1 0"/>
<feBlend mode="normal" in2="effect1_dropShadow" result="effect2_dropShadow"/>
<feBlend mode="normal" in="SourceGraphic" in2="effect2_dropShadow" result="shape"/>
<feColorMatrix in="SourceAlpha" type="matrix" values="0 0 0 0 0 0 0 0 0 0 0 0 0 0 0 0 0 0 127 0" result="hardAlpha"/>
<feOffset dx="2" dy="2"/>
<feGaussianBlur stdDeviation="2"/>
<feComposite in2="hardAlpha" operator="arithmetic" k2="-1" k3="1"/>
<feColorMatrix type="matrix" values="0 0 0 0 1 0 0 0 0 0.871413 0 0 0 0 0.53649 0 0 0 1 0"/>
<feBlend mode="normal" in2="shape" result="effect3_innerShadow"/>
<feColorMatrix in="SourceAlpha" type="matrix" values="0 0 0 0 0 0 0 0 0 0 0 0 0 0 0 0 0 0 127 0" result="hardAlpha"/>
<feOffset dx="-2" dy="-2"/>
<feGaussianBlur stdDeviation="2"/>
<feComposite in2="hardAlpha" operator="arithmetic" k2="-1" k3="1"/>
<feColorMatrix type="matrix" values="0 0 0 0 0.88018 0 0 0 0 0.703899 0 0 0 0 0.24475 0 0 0 1 0"/>
<feBlend mode="normal" in2="effect3_innerShadow" result="effect4_innerShadow"/>
</filter>
<clipPath id="clip0">
<rect width="470" height="251" fill="white"/>
</clipPath>
<clipPath id="clip1">
<rect width="20" height="20" fill="white" transform="translate(331.474 21)"/>
</clipPath>
<clipPath id="clip2">
<rect width="20" height="20" fill="white" transform="translate(361.158 21)"/>
</clipPath>
<clipPath id="clip3">
<rect width="20" height="20" fill="white" transform="translate(390.842 21)"/>
</clipPath>
<clipPath id="clip4">
<rect width="20" height="20" fill="white" transform="translate(420.526 21)"/>
</clipPath>
</defs>
</svg>
