<svg width="320" height="171" viewBox="0 0 320 171" fill="none" xmlns="http://www.w3.org/2000/svg">
<g clip-path="url(#clip0)">
<g filter="url(#filter0_ddii)">
<rect width="320" height="170.667" rx="10.8936" fill="#293661"/>
</g>
<path d="M33.1402 16.7702L32.2206 19.3088H34.0912L33.1716 16.7702H33.1402ZM31.4268 21.5095H30.6251L32.7472 15.882H33.5646L35.6867 21.5095H34.885L34.3427 19.9847H31.9769L31.4268 21.5095ZM37.8663 21.6353C37.2952 21.6353 36.821 21.4414 36.4437 21.0537C36.0717 20.6554 35.8857 20.1655 35.8857 19.5839C35.8857 18.9918 36.0717 18.5019 36.4437 18.1142C36.821 17.7264 37.2952 17.5325 37.8663 17.5325C38.2593 17.5325 38.6025 17.6321 38.8959 17.8312C39.1894 18.0251 39.4094 18.2949 39.5562 18.6407L38.8959 18.9158C38.6916 18.4338 38.3327 18.1927 37.8192 18.1927C37.4891 18.1927 37.2035 18.3264 36.9625 18.5936C36.7267 18.8608 36.6088 19.1909 36.6088 19.5839C36.6088 19.9769 36.7267 20.307 36.9625 20.5742C37.2035 20.8415 37.4891 20.9751 37.8192 20.9751C38.3484 20.9751 38.7204 20.734 38.9352 20.252L39.5797 20.5271C39.4383 20.8729 39.2156 21.1454 38.9117 21.3445C38.613 21.5383 38.2646 21.6353 37.8663 21.6353ZM41.9343 21.6353C41.3632 21.6353 40.889 21.4414 40.5117 21.0537C40.1397 20.6554 39.9537 20.1655 39.9537 19.5839C39.9537 18.9918 40.1397 18.5019 40.5117 18.1142C40.889 17.7264 41.3632 17.5325 41.9343 17.5325C42.3273 17.5325 42.6705 17.6321 42.9639 17.8312C43.2574 18.0251 43.4774 18.2949 43.6241 18.6407L42.9639 18.9158C42.7596 18.4338 42.4007 18.1927 41.8872 18.1927C41.5571 18.1927 41.2715 18.3264 41.0305 18.5936C40.7947 18.8608 40.6768 19.1909 40.6768 19.5839C40.6768 19.9769 40.7947 20.307 41.0305 20.5742C41.2715 20.8415 41.5571 20.9751 41.8872 20.9751C42.4164 20.9751 42.7884 20.734 43.0032 20.252L43.6477 20.5271C43.5062 20.8729 43.2836 21.1454 42.9796 21.3445C42.681 21.5383 42.3325 21.6353 41.9343 21.6353ZM44.0217 19.5839C44.0217 18.9918 44.2077 18.5019 44.5797 18.1142C44.957 17.7264 45.4312 17.5325 46.0023 17.5325C46.5734 17.5325 47.045 17.7264 47.417 18.1142C47.7943 18.5019 47.9829 18.9918 47.9829 19.5839C47.9829 20.1812 47.7943 20.6712 47.417 21.0537C47.045 21.4414 46.5734 21.6353 46.0023 21.6353C45.4312 21.6353 44.957 21.4414 44.5797 21.0537C44.2077 20.6659 44.0217 20.176 44.0217 19.5839ZM44.7448 19.5839C44.7448 19.9978 44.8653 20.3332 45.1063 20.5899C45.3473 20.8467 45.646 20.9751 46.0023 20.9751C46.3586 20.9751 46.6573 20.8467 46.8983 20.5899C47.1393 20.3332 47.2598 19.9978 47.2598 19.5839C47.2598 19.1752 47.1393 18.8425 46.8983 18.5857C46.652 18.3237 46.3534 18.1927 46.0023 18.1927C45.6512 18.1927 45.3526 18.3237 45.1063 18.5857C44.8653 18.8425 44.7448 19.1752 44.7448 19.5839ZM51.981 21.5095H51.2894V20.9751H51.2579C51.1479 21.1637 50.9776 21.3209 50.7471 21.4466C50.5218 21.5724 50.286 21.6353 50.0397 21.6353C49.5681 21.6353 49.204 21.5017 48.9472 21.2344C48.6957 20.962 48.5699 20.5768 48.5699 20.0791V17.6583H49.293V20.0319C49.3088 20.6607 49.6258 20.9751 50.2441 20.9751C50.5322 20.9751 50.7733 20.8598 50.9671 20.6292C51.161 20.3935 51.2579 20.1131 51.2579 19.7883V17.6583H51.981V21.5095ZM52.8613 17.6583H53.5529V18.1927H53.5843C53.6944 18.0041 53.862 17.8469 54.0874 17.7212C54.3179 17.5954 54.5563 17.5325 54.8026 17.5325C55.2742 17.5325 55.6357 17.6688 55.8872 17.9412C56.144 18.2085 56.2723 18.591 56.2723 19.0887V21.5095H55.5493V19.1359C55.5335 18.5071 55.2165 18.1927 54.5982 18.1927C54.31 18.1927 54.069 18.3106 53.8751 18.5464C53.6813 18.777 53.5843 19.0547 53.5843 19.3796V21.5095H52.8613V17.6583ZM58.4463 21.5724C58.1319 21.5724 57.87 21.4755 57.6604 21.2816C57.456 21.0877 57.3512 20.8179 57.346 20.472V18.3185H56.6701V17.6583H57.346V16.4793H58.0691V17.6583H59.0122V18.3185H58.0691V20.2363C58.0691 20.493 58.1188 20.6685 58.2184 20.7629C58.318 20.8519 58.4306 20.8965 58.5564 20.8965C58.614 20.8965 58.669 20.8912 58.7214 20.8807C58.7791 20.865 58.8315 20.8467 58.8786 20.8257L59.1065 21.4702C58.9179 21.5383 58.6978 21.5724 58.4463 21.5724ZM64.8067 21.5095H64.115V20.9751H64.0836C63.9736 21.1637 63.8033 21.3209 63.5727 21.4466C63.3474 21.5724 63.1116 21.6353 62.8654 21.6353C62.3938 21.6353 62.0296 21.5017 61.7729 21.2344C61.5214 20.962 61.3956 20.5768 61.3956 20.0791V17.6583H62.1187V20.0319C62.1344 20.6607 62.4514 20.9751 63.0697 20.9751C63.3579 20.9751 63.5989 20.8598 63.7928 20.6292C63.9867 20.3935 64.0836 20.1131 64.0836 19.7883V17.6583H64.8067V21.5095ZM68.5959 20.4406C68.5959 20.776 68.4492 21.0589 68.1558 21.2895C67.8623 21.52 67.4929 21.6353 67.0476 21.6353C66.6598 21.6353 66.3192 21.5357 66.0258 21.3366C65.7324 21.1323 65.5228 20.865 65.397 20.5349L66.0415 20.2598C66.1358 20.4904 66.2721 20.6712 66.4502 20.8022C66.6336 20.9279 66.8327 20.9908 67.0476 20.9908C67.2781 20.9908 67.4694 20.941 67.6213 20.8415C67.7785 20.7419 67.8571 20.624 67.8571 20.4878C67.8571 20.2415 67.6685 20.0607 67.2912 19.9455L66.631 19.7804C65.8817 19.5918 65.5071 19.2302 65.5071 18.6958C65.5071 18.3447 65.6485 18.0644 65.9315 17.8548C66.2197 17.64 66.5865 17.5325 67.0318 17.5325C67.3724 17.5325 67.6789 17.6138 67.9514 17.7762C68.2291 17.9386 68.423 18.1561 68.533 18.4285L67.8885 18.6958C67.8152 18.5333 67.6947 18.4076 67.527 18.3185C67.3646 18.2242 67.1812 18.177 66.9768 18.177C66.7882 18.177 66.6179 18.2242 66.4659 18.3185C66.3192 18.4128 66.2459 18.5281 66.2459 18.6643C66.2459 18.8844 66.4528 19.0416 66.8668 19.1359L67.4484 19.2852C68.2134 19.4739 68.5959 19.859 68.5959 20.4406ZM70.9928 21.6353C70.4269 21.6353 69.9606 21.4414 69.5938 21.0537C69.227 20.6659 69.0436 20.176 69.0436 19.5839C69.0436 18.9971 69.2217 18.5098 69.5781 18.122C69.9344 17.729 70.3902 17.5325 70.9456 17.5325C71.5168 17.5325 71.97 17.7186 72.3053 18.0906C72.6459 18.4574 72.8162 18.9735 72.8162 19.6389L72.8084 19.7175H69.7824C69.7929 20.0948 69.9186 20.3987 70.1597 20.6292C70.4007 20.8598 70.6889 20.9751 71.0242 20.9751C71.4853 20.9751 71.8469 20.7445 72.1089 20.2834L72.7533 20.5978C72.5804 20.9227 72.3394 21.1768 72.0303 21.3602C71.7264 21.5436 71.3805 21.6353 70.9928 21.6353ZM69.8374 19.1202H72.046C72.025 18.853 71.915 18.6329 71.7159 18.46C71.522 18.2818 71.26 18.1927 70.9299 18.1927C70.6574 18.1927 70.4217 18.2766 70.2225 18.4443C70.0287 18.6119 69.9003 18.8372 69.8374 19.1202ZM75.245 20.9751C75.6013 20.9751 75.8921 20.8467 76.1174 20.5899C76.3532 20.3332 76.4711 19.9978 76.4711 19.5839C76.4711 19.1804 76.3532 18.8477 76.1174 18.5857C75.8869 18.3237 75.596 18.1927 75.245 18.1927C74.8992 18.1927 74.6083 18.3237 74.3726 18.5857C74.1368 18.8477 74.0189 19.1804 74.0189 19.5839C74.0189 19.9926 74.1368 20.3253 74.3726 20.5821C74.6083 20.8441 74.8992 20.9751 75.245 20.9751ZM75.1271 21.6353C74.6241 21.6353 74.1918 21.4362 73.8302 21.0379C73.4739 20.6345 73.2958 20.1498 73.2958 19.5839C73.2958 19.018 73.4739 18.5333 73.8302 18.1299C74.1918 17.7316 74.6241 17.5325 75.1271 17.5325C75.41 17.5325 75.6668 17.5928 75.8973 17.7133C76.1331 17.8338 76.3139 17.9936 76.4396 18.1927H76.4711L76.4396 17.6583V15.882H77.1627V21.5095H76.4711V20.9751H76.4396C76.3139 21.1742 76.1331 21.334 75.8973 21.4545C75.6668 21.575 75.41 21.6353 75.1271 21.6353ZM80.7066 16.33C80.7066 16.4715 80.6569 16.592 80.5573 16.6916C80.4577 16.7911 80.3372 16.8409 80.1958 16.8409C80.0543 16.8409 79.9338 16.7911 79.8342 16.6916C79.7347 16.592 79.6849 16.4715 79.6849 16.33C79.6849 16.1885 79.7347 16.068 79.8342 15.9685C79.9338 15.8689 80.0543 15.8191 80.1958 15.8191C80.3372 15.8191 80.4577 15.8689 80.5573 15.9685C80.6569 16.068 80.7066 16.1885 80.7066 16.33ZM80.5573 17.6583V21.5095H79.8342V17.6583H80.5573ZM81.4983 17.6583H82.19V18.1927H82.2214C82.3314 18.0041 82.4991 17.8469 82.7244 17.7212C82.955 17.5954 83.1934 17.5325 83.4396 17.5325C83.9112 17.5325 84.2728 17.6688 84.5243 17.9412C84.781 18.2085 84.9094 18.591 84.9094 19.0887V21.5095H84.1863V19.1359C84.1706 18.5071 83.8536 18.1927 83.2353 18.1927C82.9471 18.1927 82.7061 18.3106 82.5122 18.5464C82.3183 18.777 82.2214 19.0547 82.2214 19.3796V21.5095H81.4983V17.6583ZM90.1061 21.6353C89.273 21.6353 88.5761 21.3549 88.0154 20.7943C87.46 20.2336 87.1823 19.5341 87.1823 18.6958C87.1823 17.8574 87.46 17.1605 88.0154 16.6051C88.5709 16.0392 89.2677 15.7563 90.1061 15.7563C90.9549 15.7563 91.644 16.0628 92.1732 16.6758L91.6545 17.1789C91.251 16.6916 90.7349 16.4479 90.1061 16.4479C89.4826 16.4479 88.9612 16.6575 88.542 17.0767C88.1281 17.4906 87.9211 18.0303 87.9211 18.6958C87.9211 19.3612 88.1281 19.9009 88.542 20.3149C88.9612 20.734 89.4826 20.9436 90.1061 20.9436C90.7611 20.9436 91.3296 20.6685 91.8117 20.1184L92.3382 20.6292C92.071 20.9489 91.7435 21.1978 91.3558 21.3759C90.968 21.5488 90.5515 21.6353 90.1061 21.6353ZM93.4306 20.3306C93.4306 20.5192 93.5092 20.6764 93.6664 20.8022C93.8288 20.9279 94.0175 20.9908 94.2323 20.9908C94.5362 20.9908 94.8061 20.8781 95.0418 20.6528C95.2829 20.4275 95.4034 20.1629 95.4034 19.859C95.1781 19.6808 94.8637 19.5918 94.4602 19.5918C94.1668 19.5918 93.9205 19.6625 93.7214 19.804C93.5276 19.9455 93.4306 20.121 93.4306 20.3306ZM94.3659 17.5325C94.9004 17.5325 95.3222 17.6766 95.6313 17.9648C95.9405 18.2478 96.095 18.6381 96.095 19.1359V21.5095H95.4034V20.9751H95.3719C95.0733 21.4152 94.6751 21.6353 94.1773 21.6353C93.7529 21.6353 93.3966 21.5095 93.1084 21.258C92.8254 21.0065 92.6839 20.6921 92.6839 20.3149C92.6839 19.9166 92.8333 19.5996 93.1319 19.3638C93.4359 19.128 93.8393 19.0102 94.3423 19.0102C94.772 19.0102 95.1257 19.0887 95.4034 19.2459V19.0809C95.4034 18.8294 95.3038 18.6172 95.1047 18.4443C94.9056 18.2661 94.6724 18.177 94.4052 18.177C94.0018 18.177 93.6821 18.3473 93.4463 18.6879L92.8097 18.2871C93.1608 17.784 93.6795 17.5325 94.3659 17.5325ZM98.7969 20.9751C99.1427 20.9751 99.4335 20.8441 99.6693 20.5821C99.9051 20.3253 100.023 19.9926 100.023 19.5839C100.023 19.1804 99.9051 18.8477 99.6693 18.5857C99.4335 18.3237 99.1427 18.1927 98.7969 18.1927C98.4459 18.1927 98.1524 18.3237 97.9166 18.5857C97.6861 18.8477 97.5708 19.1804 97.5708 19.5839C97.5708 19.9926 97.6861 20.328 97.9166 20.5899C98.1524 20.8467 98.4459 20.9751 98.7969 20.9751ZM98.9148 21.6353C98.6319 21.6353 98.3725 21.575 98.1367 21.4545C97.9062 21.334 97.728 21.1742 97.6022 20.9751H97.5708L97.6022 21.5095V23.2072H96.8792V17.6583H97.5708V18.1927H97.6022C97.728 17.9936 97.9062 17.8338 98.1367 17.7133C98.3725 17.5928 98.6319 17.5325 98.9148 17.5325C99.4231 17.5325 99.8527 17.7316 100.204 18.1299C100.565 18.5333 100.746 19.018 100.746 19.5839C100.746 20.155 100.565 20.6397 100.204 21.0379C99.8527 21.4362 99.4231 21.6353 98.9148 21.6353ZM102.78 21.5724C102.465 21.5724 102.203 21.4755 101.994 21.2816C101.789 21.0877 101.685 20.8179 101.679 20.472V18.3185H101.003V17.6583H101.679V16.4793H102.402V17.6583H103.346V18.3185H102.402V20.2363C102.402 20.493 102.452 20.6685 102.552 20.7629C102.651 20.8519 102.764 20.8965 102.89 20.8965C102.947 20.8965 103.002 20.8912 103.055 20.8807C103.112 20.865 103.165 20.8467 103.212 20.8257L103.44 21.4702C103.251 21.5383 103.031 21.5724 102.78 21.5724ZM105.756 21.6353C105.184 21.6353 104.71 21.4414 104.333 21.0537C103.961 20.6554 103.775 20.1655 103.775 19.5839C103.775 18.9918 103.961 18.5019 104.333 18.1142C104.71 17.7264 105.184 17.5325 105.756 17.5325C106.149 17.5325 106.492 17.6321 106.785 17.8312C107.079 18.0251 107.299 18.2949 107.445 18.6407L106.785 18.9158C106.581 18.4338 106.222 18.1927 105.708 18.1927C105.378 18.1927 105.093 18.3264 104.852 18.5936C104.616 18.8608 104.498 19.1909 104.498 19.5839C104.498 19.9769 104.616 20.307 104.852 20.5742C105.093 20.8415 105.378 20.9751 105.708 20.9751C106.238 20.9751 106.61 20.734 106.824 20.252L107.469 20.5271C107.328 20.8729 107.105 21.1454 106.801 21.3445C106.502 21.5383 106.154 21.6353 105.756 21.6353ZM108.101 15.882H108.824V17.6583L108.793 18.1927H108.824C108.935 18.0041 109.102 17.8469 109.327 17.7212C109.558 17.5954 109.796 17.5325 110.043 17.5325C110.514 17.5325 110.876 17.6688 111.127 17.9412C111.384 18.2085 111.512 18.591 111.512 19.0887V21.5095H110.789V19.2302C110.789 18.5386 110.483 18.1927 109.87 18.1927C109.576 18.1927 109.327 18.3159 109.123 18.5622C108.924 18.8032 108.824 19.0861 108.824 19.411V21.5095H108.101V15.882ZM112.849 20.3306C112.849 20.5192 112.928 20.6764 113.085 20.8022C113.248 20.9279 113.436 20.9908 113.651 20.9908C113.955 20.9908 114.225 20.8781 114.461 20.6528C114.702 20.4275 114.822 20.1629 114.822 19.859C114.597 19.6808 114.283 19.5918 113.879 19.5918C113.586 19.5918 113.339 19.6625 113.14 19.804C112.946 19.9455 112.849 20.121 112.849 20.3306ZM113.785 17.5325C114.319 17.5325 114.741 17.6766 115.05 17.9648C115.359 18.2478 115.514 18.6381 115.514 19.1359V21.5095H114.822V20.9751H114.791C114.492 21.4152 114.094 21.6353 113.596 21.6353C113.172 21.6353 112.815 21.5095 112.527 21.258C112.244 21.0065 112.103 20.6921 112.103 20.3149C112.103 19.9166 112.252 19.5996 112.551 19.3638C112.855 19.128 113.258 19.0102 113.761 19.0102C114.191 19.0102 114.545 19.0887 114.822 19.2459V19.0809C114.822 18.8294 114.723 18.6172 114.524 18.4443C114.324 18.2661 114.091 18.177 113.824 18.177C113.421 18.177 113.101 18.3473 112.865 18.6879L112.229 18.2871C112.58 17.784 113.098 17.5325 113.785 17.5325ZM119.785 16.5737V21.5095H119.062V16.5737H117.49V15.882H121.357V16.5737H119.785ZM121.137 19.5839C121.137 18.9918 121.323 18.5019 121.695 18.1142C122.072 17.7264 122.546 17.5325 123.117 17.5325C123.689 17.5325 124.16 17.7264 124.532 18.1142C124.909 18.5019 125.098 18.9918 125.098 19.5839C125.098 20.1812 124.909 20.6712 124.532 21.0537C124.16 21.4414 123.689 21.6353 123.117 21.6353C122.546 21.6353 122.072 21.4414 121.695 21.0537C121.323 20.6659 121.137 20.176 121.137 19.5839ZM121.86 19.5839C121.86 19.9978 121.98 20.3332 122.221 20.5899C122.462 20.8467 122.761 20.9751 123.117 20.9751C123.474 20.9751 123.772 20.8467 124.013 20.5899C124.254 20.3332 124.375 19.9978 124.375 19.5839C124.375 19.1752 124.254 18.8425 124.013 18.5857C123.767 18.3237 123.468 18.1927 123.117 18.1927C122.766 18.1927 122.468 18.3237 122.221 18.5857C121.98 18.8425 121.86 19.1752 121.86 19.5839ZM125.535 19.5839C125.535 18.9918 125.721 18.5019 126.093 18.1142C126.47 17.7264 126.944 17.5325 127.515 17.5325C128.087 17.5325 128.558 17.7264 128.93 18.1142C129.307 18.5019 129.496 18.9918 129.496 19.5839C129.496 20.1812 129.307 20.6712 128.93 21.0537C128.558 21.4414 128.087 21.6353 127.515 21.6353C126.944 21.6353 126.47 21.4414 126.093 21.0537C125.721 20.6659 125.535 20.176 125.535 19.5839ZM126.258 19.5839C126.258 19.9978 126.378 20.3332 126.619 20.5899C126.86 20.8467 127.159 20.9751 127.515 20.9751C127.872 20.9751 128.17 20.8467 128.411 20.5899C128.652 20.3332 128.773 19.9978 128.773 19.5839C128.773 19.1752 128.652 18.8425 128.411 18.5857C128.165 18.3237 127.867 18.1927 127.515 18.1927C127.164 18.1927 126.866 18.3237 126.619 18.5857C126.378 18.8425 126.258 19.1752 126.258 19.5839ZM130.838 15.882V21.5095H130.115V15.882H130.838ZM134.628 20.4406C134.628 20.776 134.481 21.0589 134.188 21.2895C133.894 21.52 133.525 21.6353 133.079 21.6353C132.692 21.6353 132.351 21.5357 132.058 21.3366C131.764 21.1323 131.555 20.865 131.429 20.5349L132.073 20.2598C132.168 20.4904 132.304 20.6712 132.482 20.8022C132.665 20.9279 132.865 20.9908 133.079 20.9908C133.31 20.9908 133.501 20.941 133.653 20.8415C133.81 20.7419 133.889 20.624 133.889 20.4878C133.889 20.2415 133.7 20.0607 133.323 19.9455L132.663 19.7804C131.914 19.5918 131.539 19.2302 131.539 18.6958C131.539 18.3447 131.68 18.0644 131.963 17.8548C132.251 17.64 132.618 17.5325 133.064 17.5325C133.404 17.5325 133.711 17.6138 133.983 17.7762C134.261 17.9386 134.455 18.1561 134.565 18.4285L133.92 18.6958C133.847 18.5333 133.726 18.4076 133.559 18.3185C133.396 18.2242 133.213 18.177 133.009 18.177C132.82 18.177 132.65 18.2242 132.498 18.3185C132.351 18.4128 132.278 18.5281 132.278 18.6643C132.278 18.8844 132.485 19.0416 132.899 19.1359L133.48 19.2852C134.245 19.4739 134.628 19.859 134.628 20.4406ZM138.98 15.7563C138.619 16.1859 138.325 16.6942 138.1 17.281C137.88 17.8574 137.77 18.4233 137.77 18.9787C137.77 19.5394 137.88 20.1053 138.1 20.6764C138.325 21.2633 138.619 21.7715 138.98 22.2012L138.446 22.5784C138.011 22.0702 137.668 21.5043 137.416 20.8807C137.17 20.2363 137.047 19.6022 137.047 18.9787C137.047 18.3499 137.17 17.7186 137.416 17.0845C137.663 16.461 138.006 15.8925 138.446 15.379L138.98 15.7563ZM145.214 18.6958C145.214 19.5289 144.936 20.2258 144.381 20.7864C143.82 21.3523 143.134 21.6353 142.321 21.6353C141.504 21.6353 140.818 21.3523 140.262 20.7864C139.707 20.2258 139.429 19.5289 139.429 18.6958C139.429 17.8626 139.707 17.1658 140.262 16.6051C140.818 16.0392 141.504 15.7563 142.321 15.7563C143.139 15.7563 143.825 16.0418 144.381 16.613C144.936 17.1736 145.214 17.8679 145.214 18.6958ZM140.168 18.6958C140.168 19.3455 140.372 19.8826 140.781 20.307C141.195 20.7314 141.708 20.9436 142.321 20.9436C142.934 20.9436 143.445 20.7314 143.854 20.307C144.268 19.8878 144.475 19.3507 144.475 18.6958C144.475 18.0408 144.268 17.5037 143.854 17.0845C143.445 16.6601 142.934 16.4479 142.321 16.4479C141.708 16.4479 141.195 16.6601 140.781 17.0845C140.372 17.509 140.168 18.046 140.168 18.6958ZM145.903 17.6583H146.595V18.1927H146.626C146.736 18.0041 146.904 17.8469 147.129 17.7212C147.36 17.5954 147.598 17.5325 147.844 17.5325C148.316 17.5325 148.677 17.6688 148.929 17.9412C149.186 18.2085 149.314 18.591 149.314 19.0887V21.5095H148.591V19.1359C148.575 18.5071 148.258 18.1927 147.64 18.1927C147.352 18.1927 147.111 18.3106 146.917 18.5464C146.723 18.777 146.626 19.0547 146.626 19.3796V21.5095H145.903V17.6583ZM151.892 21.6353C151.326 21.6353 150.86 21.4414 150.493 21.0537C150.126 20.6659 149.943 20.176 149.943 19.5839C149.943 18.9971 150.121 18.5098 150.477 18.122C150.833 17.729 151.289 17.5325 151.845 17.5325C152.416 17.5325 152.869 17.7186 153.204 18.0906C153.545 18.4574 153.715 18.9735 153.715 19.6389L153.707 19.7175H150.682C150.692 20.0948 150.818 20.3987 151.059 20.6292C151.3 20.8598 151.588 20.9751 151.923 20.9751C152.384 20.9751 152.746 20.7445 153.008 20.2834L153.652 20.5978C153.48 20.9227 153.239 21.1768 152.929 21.3602C152.625 21.5436 152.28 21.6353 151.892 21.6353ZM150.737 19.1202H152.945C152.924 18.853 152.814 18.6329 152.615 18.46C152.421 18.2818 152.159 18.1927 151.829 18.1927C151.557 18.1927 151.321 18.2766 151.122 18.4443C150.928 18.6119 150.799 18.8372 150.737 19.1202ZM157.864 21.6353C157.293 21.6353 156.819 21.4414 156.442 21.0537C156.07 20.6554 155.884 20.1655 155.884 19.5839C155.884 18.9918 156.07 18.5019 156.442 18.1142C156.819 17.7264 157.293 17.5325 157.864 17.5325C158.257 17.5325 158.6 17.6321 158.894 17.8312C159.187 18.0251 159.407 18.2949 159.554 18.6407L158.894 18.9158C158.689 18.4338 158.33 18.1927 157.817 18.1927C157.487 18.1927 157.201 18.3264 156.96 18.5936C156.724 18.8608 156.607 19.1909 156.607 19.5839C156.607 19.9769 156.724 20.307 156.96 20.5742C157.201 20.8415 157.487 20.9751 157.817 20.9751C158.346 20.9751 158.718 20.734 158.933 20.252L159.578 20.5271C159.436 20.8729 159.213 21.1454 158.909 21.3445C158.611 21.5383 158.262 21.6353 157.864 21.6353ZM160.933 15.882V21.5095H160.21V15.882H160.933ZM162.749 16.33C162.749 16.4715 162.7 16.592 162.6 16.6916C162.501 16.7911 162.38 16.8409 162.239 16.8409C162.097 16.8409 161.977 16.7911 161.877 16.6916C161.777 16.592 161.728 16.4715 161.728 16.33C161.728 16.1885 161.777 16.068 161.877 15.9685C161.977 15.8689 162.097 15.8191 162.239 15.8191C162.38 15.8191 162.501 15.8689 162.6 15.9685C162.7 16.068 162.749 16.1885 162.749 16.33ZM162.6 17.6583V21.5095H161.877V17.6583H162.6ZM165.263 21.6353C164.692 21.6353 164.218 21.4414 163.841 21.0537C163.469 20.6554 163.283 20.1655 163.283 19.5839C163.283 18.9918 163.469 18.5019 163.841 18.1142C164.218 17.7264 164.692 17.5325 165.263 17.5325C165.656 17.5325 165.999 17.6321 166.293 17.8312C166.586 18.0251 166.806 18.2949 166.953 18.6407L166.293 18.9158C166.089 18.4338 165.73 18.1927 165.216 18.1927C164.886 18.1927 164.6 18.3264 164.359 18.5936C164.124 18.8608 164.006 19.1909 164.006 19.5839C164.006 19.9769 164.124 20.307 164.359 20.5742C164.6 20.8415 164.886 20.9751 165.216 20.9751C165.745 20.9751 166.117 20.734 166.332 20.252L166.977 20.5271C166.835 20.8729 166.613 21.1454 166.309 21.3445C166.01 21.5383 165.661 21.6353 165.263 21.6353ZM170.997 21.5095H170.124L168.922 19.6939L168.332 20.2756V21.5095H167.609V15.882H168.332V19.3481L169.998 17.6583H170.926V17.6897L169.425 19.1831L170.997 21.4781V21.5095ZM174.279 20.4406C174.279 20.776 174.132 21.0589 173.839 21.2895C173.545 21.52 173.176 21.6353 172.731 21.6353C172.343 21.6353 172.002 21.5357 171.709 21.3366C171.415 21.1323 171.206 20.865 171.08 20.5349L171.725 20.2598C171.819 20.4904 171.955 20.6712 172.133 20.8022C172.317 20.9279 172.516 20.9908 172.731 20.9908C172.961 20.9908 173.152 20.941 173.304 20.8415C173.462 20.7419 173.54 20.624 173.54 20.4878C173.54 20.2415 173.352 20.0607 172.974 19.9455L172.314 19.7804C171.565 19.5918 171.19 19.2302 171.19 18.6958C171.19 18.3447 171.332 18.0644 171.615 17.8548C171.903 17.64 172.27 17.5325 172.715 17.5325C173.056 17.5325 173.362 17.6138 173.635 17.7762C173.912 17.9386 174.106 18.1561 174.216 18.4285L173.572 18.6958C173.498 18.5333 173.378 18.4076 173.21 18.3185C173.048 18.2242 172.864 18.177 172.66 18.177C172.471 18.177 172.301 18.2242 172.149 18.3185C172.002 18.4128 171.929 18.5281 171.929 18.6643C171.929 18.8844 172.136 19.0416 172.55 19.1359L173.132 19.2852C173.897 19.4739 174.279 19.859 174.279 20.4406ZM175.16 15.379C175.38 15.6305 175.574 15.8977 175.742 16.1807C175.914 16.4636 176.061 16.7649 176.182 17.0845C176.433 17.7133 176.559 18.3447 176.559 18.9787C176.559 19.6127 176.433 20.2467 176.182 20.8807C175.941 21.499 175.6 22.0649 175.16 22.5784L174.625 22.2012C174.987 21.7715 175.28 21.2633 175.506 20.6764C175.726 20.1053 175.836 19.5394 175.836 18.9787C175.836 18.4233 175.726 17.8574 175.506 17.281C175.28 16.6942 174.987 16.1859 174.625 15.7563L175.16 15.379Z" fill="#7584B5"/>
<path d="M33.3468 39.4218V32.2807L31.7164 32.9679L31.0697 31.4723L33.7779 30.2058H35.1118V39.4218H33.3468ZM41.0379 39.4218V37.7241H36.7802V36.2959L40.8762 30.2058H42.7895V36.0803H43.9482V37.7241H42.7895V39.4218H41.0379ZM41.0379 32.8331H40.9301L38.7339 36.0803H41.0379V32.8331ZM48.8824 33.4933C49.2328 33.4933 49.5741 33.5697 49.9064 33.7224C50.2388 33.8661 50.5352 34.0682 50.7957 34.3287C51.0562 34.5892 51.2628 34.9036 51.4155 35.2719C51.5772 35.6401 51.658 36.0443 51.658 36.4845C51.658 36.9426 51.5682 37.3648 51.3886 37.751C51.2089 38.1373 50.9664 38.4696 50.661 38.7481C50.3646 39.0265 50.0187 39.2466 49.6235 39.4083C49.2373 39.561 48.8286 39.6373 48.3974 39.6373C47.8944 39.6373 47.4408 39.552 47.0366 39.3813C46.6323 39.2017 46.282 38.9681 45.9856 38.6807C45.6982 38.3843 45.4736 38.0429 45.3119 37.6567C45.1592 37.2615 45.0829 36.8483 45.0829 36.4171C45.0829 35.7973 45.2041 35.2314 45.4467 34.7194C45.6982 34.1985 46.0126 33.6685 46.3898 33.1295L48.6264 29.9363L49.9873 30.8794L48.101 33.5472L48.1683 33.6281C48.3749 33.5382 48.613 33.4933 48.8824 33.4933ZM48.3704 38.007C48.5681 38.007 48.7612 37.9711 48.9498 37.8992C49.1384 37.8274 49.3046 37.7241 49.4483 37.5893C49.5921 37.4546 49.7043 37.2974 49.7852 37.1178C49.875 36.9291 49.9199 36.7225 49.9199 36.498C49.9199 36.2734 49.875 36.0668 49.7852 35.8782C49.7043 35.6895 49.5921 35.5279 49.4483 35.3931C49.3046 35.2584 49.1384 35.1551 48.9498 35.0832C48.7612 35.0114 48.5681 34.9754 48.3704 34.9754C48.1638 34.9754 47.9662 35.0114 47.7776 35.0832C47.598 35.1551 47.4318 35.2584 47.2791 35.3931C47.1354 35.5279 47.0186 35.6895 46.9288 35.8782C46.8479 36.0668 46.8075 36.2734 46.8075 36.498C46.8075 36.7225 46.8479 36.9291 46.9288 37.1178C47.0186 37.2974 47.1354 37.4546 47.2791 37.5893C47.4318 37.7241 47.598 37.8274 47.7776 37.8992C47.9662 37.9711 48.1638 38.007 48.3704 38.007Z" fill="#86C9FF"/>
<g clip-path="url(#clip1)">
<g filter="url(#filter1_i)">
<rect x="225.684" y="14.2979" width="13.4737" height="13.4737" rx="3.36842" fill="#1A223F"/>
</g>
<path d="M232.731 18.8741V23.1049H232.111V18.8741H230.764V18.2813H234.078V18.8741H232.731Z" fill="#7584B5"/>
</g>
<g clip-path="url(#clip2)">
<g filter="url(#filter2_ddii)">
<rect x="245.895" y="14.2979" width="13.4737" height="13.4737" rx="3.36842" fill="#599FFF"/>
</g>
<path d="M254.983 18.2813H255.63L254.343 23.1049H253.71L252.672 19.9251H252.645L251.608 23.1049H250.975L249.634 18.2813H250.281L251.298 22.0741H251.325L252.369 18.928H252.949L253.993 22.0741H254.02L254.983 18.2813Z" fill="white"/>
</g>
<g clip-path="url(#clip3)">
<g filter="url(#filter3_i)">
<rect x="266.105" y="14.2979" width="13.4737" height="13.4737" rx="3.36842" fill="#1A223F"/>
</g>
<path d="M271.151 23.1049H270.531V18.2813H271.151L272.828 21.2185H272.855L274.533 18.2813H275.153V23.1049H274.533V20.2417L274.56 19.4333H274.533L273.024 22.0809H272.66L271.151 19.4333H271.124L271.151 20.2417V23.1049Z" fill="#7584B5"/>
</g>
<g clip-path="url(#clip4)">
<g filter="url(#filter4_i)">
<rect x="286.316" y="14.2979" width="13.4737" height="13.4737" rx="3.36842" fill="#1A223F"/>
</g>
<path d="M292.877 20.8615V23.1049H292.257V20.8615L290.633 18.2813H291.361L292.553 20.2417H292.58L293.746 18.2813H294.473L292.877 20.8615Z" fill="#7584B5"/>
</g>
<g filter="url(#filter5_i)">
<rect x="44.9122" y="62.3158" width="4.49123" height="76.3509" rx="2.24561" fill="#1A223F"/>
</g>
<g filter="url(#filter6_ddii)">
<rect x="44.9122" y="66.807" width="4.49123" height="71.8596" rx="2.24561" fill="#FFD464"/>
</g>
<g filter="url(#filter7_i)">
<rect x="83.0878" y="62.3158" width="4.49123" height="76.3509" rx="2.24561" fill="#1A223F"/>
</g>
<g filter="url(#filter8_ddii)">
<rect x="83.0878" y="89.2632" width="4.49123" height="49.4035" rx="2.24561" fill="#FFD464"/>
</g>
<g filter="url(#filter9_i)">
<rect x="121.263" y="62.3158" width="4.49123" height="76.3509" rx="2.24561" fill="#1A223F"/>
</g>
<g filter="url(#filter10_ddii)">
<rect x="121.263" y="103.298" width="4.49123" height="35.3684" rx="2.24561" fill="#FFD464"/>
</g>
<g filter="url(#filter11_i)">
<rect x="159.439" y="62.3158" width="4.49123" height="76.3509" rx="2.24561" fill="#1A223F"/>
</g>
<g filter="url(#filter12_ddii)">
<rect x="159.439" y="80.2808" width="4.49123" height="58.386" rx="2.24561" fill="#FFD464"/>
</g>
<g filter="url(#filter13_i)">
<rect x="197.614" y="62.3158" width="4.49123" height="76.3509" rx="2.24561" fill="#1A223F"/>
</g>
<g filter="url(#filter14_ddii)">
<rect x="197.614" y="92.0702" width="4.49123" height="46.5965" rx="2.24561" fill="#FFD464"/>
</g>
<g filter="url(#filter15_i)">
<rect x="235.789" y="62.3158" width="4.49123" height="76.3509" rx="2.24561" fill="#1A223F"/>
</g>
<g filter="url(#filter16_ddii)">
<rect x="235.789" y="72.9824" width="4.49123" height="65.6842" rx="2.24561" fill="#FFD464"/>
</g>
<g filter="url(#filter17_i)">
<rect x="273.965" y="62.3158" width="4.49123" height="76.3509" rx="2.24561" fill="#1A223F"/>
</g>
<g filter="url(#filter18_ddii)">
<rect x="273.965" y="66.807" width="4.49123" height="71.8596" rx="2.24561" fill="#FFD464"/>
</g>
<path d="M38.2342 151.404H37.6144V146.58H38.2342L39.9117 149.517H39.9387L41.6161 146.58H42.2359V151.404H41.6161V148.54L41.6431 147.732H41.6161L40.1071 150.38H39.7433L38.2342 147.732H38.2073L38.2342 148.54V151.404ZM43.4514 150.393C43.4514 150.555 43.5188 150.689 43.6535 150.797C43.7928 150.905 43.9545 150.959 44.1386 150.959C44.3991 150.959 44.6304 150.862 44.8325 150.669C45.0391 150.476 45.1424 150.249 45.1424 149.989C44.9493 149.836 44.6798 149.76 44.334 149.76C44.0825 149.76 43.8714 149.82 43.7007 149.942C43.5345 150.063 43.4514 150.213 43.4514 150.393ZM44.2531 147.995C44.7112 147.995 45.0728 148.118 45.3378 148.365C45.6027 148.608 45.7352 148.942 45.7352 149.369V151.404H45.1424V150.945H45.1154C44.8594 151.323 44.5181 151.511 44.0914 151.511C43.7277 151.511 43.4222 151.404 43.1752 151.188C42.9327 150.972 42.8114 150.703 42.8114 150.38C42.8114 150.038 42.9394 149.767 43.1954 149.564C43.4559 149.362 43.8018 149.261 44.2329 149.261C44.6012 149.261 44.9044 149.329 45.1424 149.463V149.322C45.1424 149.106 45.0571 148.924 44.8864 148.776C44.7157 148.623 44.5159 148.547 44.2868 148.547C43.941 148.547 43.667 148.693 43.4649 148.985L42.9192 148.641C43.2201 148.21 43.6648 147.995 44.2531 147.995ZM47.0541 151.404H46.4343V148.103H47.0271V148.641H47.0541C47.1169 148.466 47.2449 148.318 47.4381 148.197C47.6357 148.071 47.8288 148.008 48.0174 148.008C48.1971 148.008 48.3498 148.035 48.4755 148.089L48.2869 148.689C48.2106 148.657 48.0893 148.641 47.9231 148.641C47.6896 148.641 47.4852 148.736 47.3101 148.924C47.1394 149.113 47.0541 149.333 47.0541 149.585V151.404ZM53.486 146.796V151.404H52.8662V147.564L51.9702 147.954L51.7344 147.429L53.0885 146.796H53.486ZM55.7616 149.719C55.3933 149.719 55.0587 149.573 54.7578 149.281C54.4659 148.981 54.3199 148.63 54.3199 148.231C54.3199 147.813 54.4771 147.454 54.7915 147.153C55.1059 146.843 55.4742 146.688 55.8963 146.688C56.341 146.688 56.716 146.84 57.0214 147.146C57.3268 147.451 57.4795 147.813 57.4795 148.231C57.4795 148.603 57.329 149.028 57.0281 149.504L55.6875 151.511L55.189 151.168L56.3275 149.591L56.314 149.578C56.1703 149.672 55.9862 149.719 55.7616 149.719ZM56.853 148.224C56.853 147.963 56.7587 147.741 56.57 147.557C56.3859 147.373 56.1613 147.281 55.8963 147.281C55.6314 147.281 55.4068 147.373 55.2227 147.557C55.0385 147.741 54.9464 147.963 54.9464 148.224C54.9464 148.484 55.0385 148.707 55.2227 148.891C55.4158 149.075 55.6403 149.167 55.8963 149.167C56.1523 149.167 56.3769 149.075 56.57 148.891C56.7587 148.711 56.853 148.489 56.853 148.224Z" fill="#7584B5"/>
<path d="M76.3932 151.404H75.7734V146.58H76.3932L78.0707 149.517H78.0976L79.7751 146.58H80.3949V151.404H79.7751V148.54L79.802 147.732H79.7751L78.266 150.38H77.9023L76.3932 147.732H76.3663L76.3932 148.54V151.404ZM81.6104 150.393C81.6104 150.555 81.6778 150.689 81.8125 150.797C81.9517 150.905 82.1134 150.959 82.2976 150.959C82.5581 150.959 82.7894 150.862 82.9915 150.669C83.1981 150.476 83.3014 150.249 83.3014 149.989C83.1082 149.836 82.8388 149.76 82.4929 149.76C82.2414 149.76 82.0303 149.82 81.8597 149.942C81.6935 150.063 81.6104 150.213 81.6104 150.393ZM82.4121 147.995C82.8702 147.995 83.2317 148.118 83.4967 148.365C83.7617 148.608 83.8942 148.942 83.8942 149.369V151.404H83.3014V150.945H83.2744C83.0184 151.323 82.6771 151.511 82.2504 151.511C81.8866 151.511 81.5812 151.404 81.3342 151.188C81.0917 150.972 80.9704 150.703 80.9704 150.38C80.9704 150.038 81.0984 149.767 81.3544 149.564C81.6149 149.362 81.9607 149.261 82.3919 149.261C82.7602 149.261 83.0633 149.329 83.3014 149.463V149.322C83.3014 149.106 83.216 148.924 83.0454 148.776C82.8747 148.623 82.6748 148.547 82.4458 148.547C82.1 148.547 81.826 148.693 81.6239 148.985L81.0782 148.641C81.3791 148.21 81.8237 147.995 82.4121 147.995ZM85.213 151.404H84.5933V148.103H85.1861V148.641H85.213C85.2759 148.466 85.4039 148.318 85.597 148.197C85.7947 148.071 85.9878 148.008 86.1764 148.008C86.3561 148.008 86.5088 148.035 86.6345 148.089L86.4459 148.689C86.3695 148.657 86.2483 148.641 86.0821 148.641C85.8485 148.641 85.6442 148.736 85.469 148.924C85.2984 149.113 85.213 149.333 85.213 149.585V151.404ZM91.3504 150.811V151.404H88.4131V150.784L89.6055 149.578C90.0052 149.169 90.2814 148.864 90.4341 148.662C90.5868 148.455 90.6632 148.239 90.6632 148.015C90.6632 147.813 90.5846 147.64 90.4274 147.496C90.2702 147.352 90.0681 147.281 89.8211 147.281C89.61 147.281 89.4281 147.343 89.2754 147.469C89.1227 147.595 89.0239 147.748 88.979 147.927L88.4131 147.698C88.5029 147.415 88.6758 147.177 88.9318 146.984C89.1878 146.787 89.4887 146.688 89.8346 146.688C90.2523 146.688 90.6003 146.816 90.8788 147.072C91.1572 147.328 91.2965 147.642 91.2965 148.015C91.2965 148.46 91.0517 148.94 90.5621 149.457L89.2148 150.811H91.3504ZM91.94 149.1C91.94 148.399 92.113 147.822 92.4588 147.368C92.8046 146.915 93.2492 146.688 93.7927 146.688C94.3361 146.688 94.7807 146.917 95.1266 147.375C95.4724 147.829 95.6453 148.403 95.6453 149.1C95.6453 149.791 95.4724 150.368 95.1266 150.831C94.7807 151.285 94.3361 151.511 93.7927 151.511C93.2492 151.511 92.8046 151.285 92.4588 150.831C92.113 150.368 91.94 149.791 91.94 149.1ZM95.012 149.1C95.012 148.57 94.8998 148.134 94.6752 147.793C94.4551 147.451 94.161 147.281 93.7927 147.281C93.4244 147.281 93.1302 147.451 92.9101 147.793C92.6856 148.134 92.5733 148.57 92.5733 149.1C92.5733 149.63 92.6856 150.067 92.9101 150.413C93.1302 150.75 93.4244 150.919 93.7927 150.919C94.161 150.919 94.4551 150.748 94.6752 150.407C94.8998 150.061 95.012 149.625 95.012 149.1Z" fill="#7584B5"/>
<path d="M115.176 151.404H114.556V146.58H115.176L116.854 149.517H116.881L118.558 146.58H119.178V151.404H118.558V148.54L118.585 147.732H118.558L117.049 150.38H116.685L115.176 147.732H115.149L115.176 148.54V151.404ZM120.393 150.393C120.393 150.555 120.461 150.689 120.595 150.797C120.735 150.905 120.896 150.959 121.08 150.959C121.341 150.959 121.572 150.862 121.774 150.669C121.981 150.476 122.084 150.249 122.084 149.989C121.891 149.836 121.622 149.76 121.276 149.76C121.024 149.76 120.813 149.82 120.643 149.942C120.476 150.063 120.393 150.213 120.393 150.393ZM121.195 147.995C121.653 147.995 122.015 148.118 122.28 148.365C122.545 148.608 122.677 148.942 122.677 149.369V151.404H122.084V150.945H122.057C121.801 151.323 121.46 151.511 121.033 151.511C120.67 151.511 120.364 151.404 120.117 151.188C119.875 150.972 119.753 150.703 119.753 150.38C119.753 150.038 119.881 149.767 120.137 149.564C120.398 149.362 120.744 149.261 121.175 149.261C121.543 149.261 121.846 149.329 122.084 149.463V149.322C122.084 149.106 121.999 148.924 121.828 148.776C121.658 148.623 121.458 148.547 121.229 148.547C120.883 148.547 120.609 148.693 120.407 148.985L119.861 148.641C120.162 148.21 120.607 147.995 121.195 147.995ZM123.996 151.404H123.376V148.103H123.969V148.641H123.996C124.059 148.466 124.187 148.318 124.38 148.197C124.578 148.071 124.771 148.008 124.959 148.008C125.139 148.008 125.292 148.035 125.417 148.089L125.229 148.689C125.152 148.657 125.031 148.641 124.865 148.641C124.631 148.641 124.427 148.736 124.252 148.924C124.081 149.113 123.996 149.333 123.996 149.585V151.404ZM130.133 150.811V151.404H127.196V150.784L128.388 149.578C128.788 149.169 129.064 148.864 129.217 148.662C129.37 148.455 129.446 148.239 129.446 148.015C129.446 147.813 129.368 147.64 129.21 147.496C129.053 147.352 128.851 147.281 128.604 147.281C128.393 147.281 128.211 147.343 128.058 147.469C127.906 147.595 127.807 147.748 127.762 147.927L127.196 147.698C127.286 147.415 127.459 147.177 127.715 146.984C127.971 146.787 128.272 146.688 128.617 146.688C129.035 146.688 129.383 146.816 129.662 147.072C129.94 147.328 130.079 147.642 130.079 148.015C130.079 148.46 129.835 148.94 129.345 149.457L127.998 150.811H130.133ZM132.382 146.796V151.404H131.762V147.564L130.866 147.954L130.63 147.429L131.984 146.796H132.382Z" fill="#7584B5"/>
<path d="M152.861 151.404H152.242V146.58H152.861L154.539 149.517H154.566L156.243 146.58H156.863V151.404H156.243V148.54L156.27 147.732H156.243L154.734 150.38H154.37L152.861 147.732H152.834L152.861 148.54V151.404ZM158.079 150.393C158.079 150.555 158.146 150.689 158.281 150.797C158.42 150.905 158.582 150.959 158.766 150.959C159.026 150.959 159.258 150.862 159.46 150.669C159.666 150.476 159.77 150.249 159.77 149.989C159.576 149.836 159.307 149.76 158.961 149.76C158.71 149.76 158.499 149.82 158.328 149.942C158.162 150.063 158.079 150.213 158.079 150.393ZM158.88 147.995C159.338 147.995 159.7 148.118 159.965 148.365C160.23 148.608 160.362 148.942 160.362 149.369V151.404H159.77V150.945H159.743C159.487 151.323 159.145 151.511 158.719 151.511C158.355 151.511 158.049 151.404 157.802 151.188C157.56 150.972 157.439 150.703 157.439 150.38C157.439 150.038 157.567 149.767 157.823 149.564C158.083 149.362 158.429 149.261 158.86 149.261C159.228 149.261 159.532 149.329 159.77 149.463V149.322C159.77 149.106 159.684 148.924 159.514 148.776C159.343 148.623 159.143 148.547 158.914 148.547C158.568 148.547 158.294 148.693 158.092 148.985L157.546 148.641C157.847 148.21 158.292 147.995 158.88 147.995ZM161.681 151.404H161.061V148.103H161.654V148.641H161.681C161.744 148.466 161.872 148.318 162.065 148.197C162.263 148.071 162.456 148.008 162.645 148.008C162.824 148.008 162.977 148.035 163.103 148.089L162.914 148.689C162.838 148.657 162.716 148.641 162.55 148.641C162.317 148.641 162.112 148.736 161.937 148.924C161.767 149.113 161.681 149.333 161.681 149.585V151.404ZM167.819 150.811V151.404H164.881V150.784L166.074 149.578C166.473 149.169 166.75 148.864 166.902 148.662C167.055 148.455 167.131 148.239 167.131 148.015C167.131 147.813 167.053 147.64 166.896 147.496C166.738 147.352 166.536 147.281 166.289 147.281C166.078 147.281 165.896 147.343 165.744 147.469C165.591 147.595 165.492 147.748 165.447 147.927L164.881 147.698C164.971 147.415 165.144 147.177 165.4 146.984C165.656 146.787 165.957 146.688 166.303 146.688C166.72 146.688 167.069 146.816 167.347 147.072C167.625 147.328 167.765 147.642 167.765 148.015C167.765 148.46 167.52 148.94 167.03 149.457L165.683 150.811H167.819ZM171.319 150.811V151.404H168.381V150.784L169.574 149.578C169.973 149.169 170.25 148.864 170.402 148.662C170.555 148.455 170.631 148.239 170.631 148.015C170.631 147.813 170.553 147.64 170.396 147.496C170.238 147.352 170.036 147.281 169.789 147.281C169.578 147.281 169.396 147.343 169.244 147.469C169.091 147.595 168.992 147.748 168.947 147.927L168.381 147.698C168.471 147.415 168.644 147.177 168.9 146.984C169.156 146.787 169.457 146.688 169.803 146.688C170.22 146.688 170.569 146.816 170.847 147.072C171.125 147.328 171.265 147.642 171.265 148.015C171.265 148.46 171.02 148.94 170.53 149.457L169.183 150.811H171.319Z" fill="#7584B5"/>
<path d="M190.997 151.404H190.378V146.58H190.997L192.675 149.517H192.702L194.379 146.58H194.999V151.404H194.379V148.54L194.406 147.732H194.379L192.87 150.38H192.506L190.997 147.732H190.97L190.997 148.54V151.404ZM196.215 150.393C196.215 150.555 196.282 150.689 196.417 150.797C196.556 150.905 196.718 150.959 196.902 150.959C197.162 150.959 197.394 150.862 197.596 150.669C197.802 150.476 197.906 150.249 197.906 149.989C197.712 149.836 197.443 149.76 197.097 149.76C196.846 149.76 196.634 149.82 196.464 149.942C196.298 150.063 196.215 150.213 196.215 150.393ZM197.016 147.995C197.474 147.995 197.836 148.118 198.101 148.365C198.366 148.608 198.498 148.942 198.498 149.369V151.404H197.906V150.945H197.879C197.623 151.323 197.281 151.511 196.855 151.511C196.491 151.511 196.185 151.404 195.938 151.188C195.696 150.972 195.575 150.703 195.575 150.38C195.575 150.038 195.703 149.767 195.959 149.564C196.219 149.362 196.565 149.261 196.996 149.261C197.364 149.261 197.667 149.329 197.906 149.463V149.322C197.906 149.106 197.82 148.924 197.65 148.776C197.479 148.623 197.279 148.547 197.05 148.547C196.704 148.547 196.43 148.693 196.228 148.985L195.682 148.641C195.983 148.21 196.428 147.995 197.016 147.995ZM199.817 151.404H199.197V148.103H199.79V148.641H199.817C199.88 148.466 200.008 148.318 200.201 148.197C200.399 148.071 200.592 148.008 200.781 148.008C200.96 148.008 201.113 148.035 201.239 148.089L201.05 148.689C200.974 148.657 200.852 148.641 200.686 148.641C200.453 148.641 200.248 148.736 200.073 148.924C199.903 149.113 199.817 149.333 199.817 149.585V151.404ZM205.955 150.811V151.404H203.017V150.784L204.21 149.578C204.609 149.169 204.886 148.864 205.038 148.662C205.191 148.455 205.267 148.239 205.267 148.015C205.267 147.813 205.189 147.64 205.032 147.496C204.874 147.352 204.672 147.281 204.425 147.281C204.214 147.281 204.032 147.343 203.88 147.469C203.727 147.595 203.628 147.748 203.583 147.927L203.017 147.698C203.107 147.415 203.28 147.177 203.536 146.984C203.792 146.787 204.093 146.688 204.439 146.688C204.856 146.688 205.204 146.816 205.483 147.072C205.761 147.328 205.901 147.642 205.901 148.015C205.901 148.46 205.656 148.94 205.166 149.457L203.819 150.811H205.955ZM209.556 150.097C209.556 150.501 209.405 150.838 209.104 151.107C208.808 151.377 208.439 151.511 207.999 151.511C207.654 151.511 207.341 151.408 207.063 151.201C206.78 150.986 206.589 150.705 206.49 150.359L207.056 150.124C207.128 150.38 207.245 150.577 207.407 150.716C207.573 150.851 207.77 150.919 207.999 150.919C208.251 150.919 208.469 150.84 208.653 150.683C208.832 150.521 208.922 150.326 208.922 150.097C208.922 149.868 208.828 149.674 208.639 149.517C208.455 149.36 208.233 149.281 207.972 149.281H207.575V148.702H207.925C208.172 148.702 208.374 148.635 208.532 148.5C208.689 148.361 208.767 148.181 208.767 147.961C208.767 147.759 208.693 147.595 208.545 147.469C208.397 147.343 208.201 147.281 207.959 147.281C207.568 147.281 207.301 147.48 207.157 147.88L206.585 147.638C206.688 147.355 206.861 147.126 207.103 146.951C207.346 146.775 207.631 146.688 207.959 146.688C208.368 146.688 208.711 146.809 208.99 147.052C209.264 147.285 209.401 147.588 209.401 147.961C209.401 148.406 209.194 148.736 208.781 148.951V148.978C209.023 149.082 209.212 149.232 209.347 149.43C209.486 149.627 209.556 149.85 209.556 150.097Z" fill="#7584B5"/>
<path d="M229.259 151.404H228.64V146.58H229.259L230.937 149.517H230.964L232.641 146.58H233.261V151.404H232.641V148.54L232.668 147.732H232.641L231.132 150.38H230.769L229.259 147.732H229.233L229.259 148.54V151.404ZM234.477 150.393C234.477 150.555 234.544 150.689 234.679 150.797C234.818 150.905 234.98 150.959 235.164 150.959C235.424 150.959 235.656 150.862 235.858 150.669C236.064 150.476 236.168 150.249 236.168 149.989C235.974 149.836 235.705 149.76 235.359 149.76C235.108 149.76 234.897 149.82 234.726 149.942C234.56 150.063 234.477 150.213 234.477 150.393ZM235.278 147.995C235.736 147.995 236.098 148.118 236.363 148.365C236.628 148.608 236.76 148.942 236.76 149.369V151.404H236.168V150.945H236.141C235.885 151.323 235.543 151.511 235.117 151.511C234.753 151.511 234.447 151.404 234.2 151.188C233.958 150.972 233.837 150.703 233.837 150.38C233.837 150.038 233.965 149.767 234.221 149.564C234.481 149.362 234.827 149.261 235.258 149.261C235.626 149.261 235.93 149.329 236.168 149.463V149.322C236.168 149.106 236.082 148.924 235.912 148.776C235.741 148.623 235.541 148.547 235.312 148.547C234.966 148.547 234.692 148.693 234.49 148.985L233.944 148.641C234.245 148.21 234.69 147.995 235.278 147.995ZM238.079 151.404H237.46V148.103H238.052V148.641H238.079C238.142 148.466 238.27 148.318 238.463 148.197C238.661 148.071 238.854 148.008 239.043 148.008C239.222 148.008 239.375 148.035 239.501 148.089L239.312 148.689C239.236 148.657 239.115 148.641 238.948 148.641C238.715 148.641 238.51 148.736 238.335 148.924C238.165 149.113 238.079 149.333 238.079 149.585V151.404ZM244.217 150.811V151.404H241.279V150.784L242.472 149.578C242.871 149.169 243.148 148.864 243.3 148.662C243.453 148.455 243.529 148.239 243.529 148.015C243.529 147.813 243.451 147.64 243.294 147.496C243.136 147.352 242.934 147.281 242.687 147.281C242.476 147.281 242.294 147.343 242.142 147.469C241.989 147.595 241.89 147.748 241.845 147.927L241.279 147.698C241.369 147.415 241.542 147.177 241.798 146.984C242.054 146.787 242.355 146.688 242.701 146.688C243.119 146.688 243.467 146.816 243.745 147.072C244.023 147.328 244.163 147.642 244.163 148.015C244.163 148.46 243.918 148.94 243.428 149.457L242.081 150.811H244.217ZM247.589 150.433V151.404H246.969V150.433H244.779V149.962L246.915 146.796H247.589V149.854H248.181V150.433H247.589ZM245.48 149.854H246.969V147.705H246.942L245.48 149.854Z" fill="#7584B5"/>
<path d="M267.269 151.404H266.65V146.58H267.269L268.947 149.517H268.974L270.651 146.58H271.271V151.404H270.651V148.54L270.678 147.732H270.651L269.142 150.38H268.778L267.269 147.732H267.242L267.269 148.54V151.404ZM272.487 150.393C272.487 150.555 272.554 150.689 272.689 150.797C272.828 150.905 272.99 150.959 273.174 150.959C273.434 150.959 273.666 150.862 273.868 150.669C274.074 150.476 274.178 150.249 274.178 149.989C273.984 149.836 273.715 149.76 273.369 149.76C273.118 149.76 272.907 149.82 272.736 149.942C272.57 150.063 272.487 150.213 272.487 150.393ZM273.288 147.995C273.746 147.995 274.108 148.118 274.373 148.365C274.638 148.608 274.77 148.942 274.77 149.369V151.404H274.178V150.945H274.151C273.895 151.323 273.553 151.511 273.127 151.511C272.763 151.511 272.457 151.404 272.21 151.188C271.968 150.972 271.847 150.703 271.847 150.38C271.847 150.038 271.975 149.767 272.231 149.564C272.491 149.362 272.837 149.261 273.268 149.261C273.636 149.261 273.939 149.329 274.178 149.463V149.322C274.178 149.106 274.092 148.924 273.922 148.776C273.751 148.623 273.551 148.547 273.322 148.547C272.976 148.547 272.702 148.693 272.5 148.985L271.954 148.641C272.255 148.21 272.7 147.995 273.288 147.995ZM276.089 151.404H275.469V148.103H276.062V148.641H276.089C276.152 148.466 276.28 148.318 276.473 148.197C276.671 148.071 276.864 148.008 277.053 148.008C277.232 148.008 277.385 148.035 277.511 148.089L277.322 148.689C277.246 148.657 277.124 148.641 276.958 148.641C276.725 148.641 276.52 148.736 276.345 148.924C276.175 149.113 276.089 149.333 276.089 149.585V151.404ZM282.227 150.811V151.404H279.289V150.784L280.482 149.578C280.881 149.169 281.158 148.864 281.31 148.662C281.463 148.455 281.539 148.239 281.539 148.015C281.539 147.813 281.461 147.64 281.304 147.496C281.146 147.352 280.944 147.281 280.697 147.281C280.486 147.281 280.304 147.343 280.152 147.469C279.999 147.595 279.9 147.748 279.855 147.927L279.289 147.698C279.379 147.415 279.552 147.177 279.808 146.984C280.064 146.787 280.365 146.688 280.711 146.688C281.128 146.688 281.476 146.816 281.755 147.072C282.033 147.328 282.173 147.642 282.173 148.015C282.173 148.46 281.928 148.94 281.438 149.457L280.091 150.811H282.227ZM285.935 149.962C285.935 150.402 285.783 150.77 285.477 151.067C285.172 151.363 284.795 151.511 284.345 151.511C283.986 151.511 283.661 151.399 283.369 151.175C283.077 150.95 282.884 150.647 282.789 150.265L283.342 150.043C283.409 150.312 283.53 150.526 283.705 150.683C283.885 150.84 284.094 150.919 284.332 150.919C284.619 150.919 284.853 150.831 285.033 150.656C285.217 150.476 285.309 150.247 285.309 149.969C285.309 149.686 285.217 149.454 285.033 149.275C284.853 149.095 284.622 149.005 284.339 149.005C284.011 149.005 283.753 149.138 283.564 149.403L282.937 149.133L283.234 146.796H285.652V147.388H283.753L283.584 148.709L283.611 148.716C283.84 148.531 284.119 148.439 284.447 148.439C284.86 148.439 285.21 148.585 285.497 148.877C285.789 149.169 285.935 149.531 285.935 149.962Z" fill="#7584B5"/>
</g>
<defs>
<filter id="filter0_ddii" x="-27" y="-27" width="394" height="244.667" filterUnits="userSpaceOnUse" color-interpolation-filters="sRGB">
<feFlood flood-opacity="0" result="BackgroundImageFix"/>
<feColorMatrix in="SourceAlpha" type="matrix" values="0 0 0 0 0 0 0 0 0 0 0 0 0 0 0 0 0 0 127 0"/>
<feOffset dx="20" dy="20"/>
<feGaussianBlur stdDeviation="13.5"/>
<feColorMatrix type="matrix" values="0 0 0 0 0 0 0 0 0 0 0 0 0 0 0 0 0 0 0.2 0"/>
<feBlend mode="normal" in2="BackgroundImageFix" result="effect1_dropShadow"/>
<feColorMatrix in="SourceAlpha" type="matrix" values="0 0 0 0 0 0 0 0 0 0 0 0 0 0 0 0 0 0 127 0"/>
<feOffset dx="-7" dy="-7"/>
<feGaussianBlur stdDeviation="10"/>
<feColorMatrix type="matrix" values="0 0 0 0 0.100933 0 0 0 0 0.14801 0 0 0 0 0.303725 0 0 0 1 0"/>
<feBlend mode="normal" in2="effect1_dropShadow" result="effect2_dropShadow"/>
<feBlend mode="normal" in="SourceGraphic" in2="effect2_dropShadow" result="shape"/>
<feColorMatrix in="SourceAlpha" type="matrix" values="0 0 0 0 0 0 0 0 0 0 0 0 0 0 0 0 0 0 127 0" result="hardAlpha"/>
<feOffset dx="4" dy="4"/>
<feGaussianBlur stdDeviation="3.5"/>
<feComposite in2="hardAlpha" operator="arithmetic" k2="-1" k3="1"/>
<feColorMatrix type="matrix" values="0 0 0 0 0.192853 0 0 0 0 0.251381 0 0 0 0 0.444973 0 0 0 1 0"/>
<feBlend mode="normal" in2="shape" result="effect3_innerShadow"/>
<feColorMatrix in="SourceAlpha" type="matrix" values="0 0 0 0 0 0 0 0 0 0 0 0 0 0 0 0 0 0 127 0" result="hardAlpha"/>
<feOffset dx="-4" dy="-4"/>
<feGaussianBlur stdDeviation="3.5"/>
<feComposite in2="hardAlpha" operator="arithmetic" k2="-1" k3="1"/>
<feColorMatrix type="matrix" values="0 0 0 0 0.103918 0 0 0 0 0.154724 0 0 0 0 0.322775 0 0 0 1 0"/>
<feBlend mode="normal" in2="effect3_innerShadow" result="effect4_innerShadow"/>
</filter>
<filter id="filter1_i" x="225.684" y="14.2979" width="15.4737" height="15.4737" filterUnits="userSpaceOnUse" color-interpolation-filters="sRGB">
<feFlood flood-opacity="0" result="BackgroundImageFix"/>
<feBlend mode="normal" in="SourceGraphic" in2="BackgroundImageFix" result="shape"/>
<feColorMatrix in="SourceAlpha" type="matrix" values="0 0 0 0 0 0 0 0 0 0 0 0 0 0 0 0 0 0 127 0" result="hardAlpha"/>
<feOffset dx="2" dy="2"/>
<feGaussianBlur stdDeviation="1.5"/>
<feComposite in2="hardAlpha" operator="arithmetic" k2="-1" k3="1"/>
<feColorMatrix type="matrix" values="0 0 0 0 0 0 0 0 0 0 0 0 0 0 0 0 0 0 0.1 0"/>
<feBlend mode="normal" in2="shape" result="effect1_innerShadow"/>
</filter>
<filter id="filter2_ddii" x="218.895" y="-12.7021" width="67.4737" height="67.4737" filterUnits="userSpaceOnUse" color-interpolation-filters="sRGB">
<feFlood flood-opacity="0" result="BackgroundImageFix"/>
<feColorMatrix in="SourceAlpha" type="matrix" values="0 0 0 0 0 0 0 0 0 0 0 0 0 0 0 0 0 0 127 0"/>
<feOffset dx="7" dy="7"/>
<feGaussianBlur stdDeviation="10"/>
<feColorMatrix type="matrix" values="0 0 0 0 0.0344006 0 0 0 0 0.24043 0 0 0 0 0.522985 0 0 0 0.4 0"/>
<feBlend mode="normal" in2="BackgroundImageFix" result="effect1_dropShadow"/>
<feColorMatrix in="SourceAlpha" type="matrix" values="0 0 0 0 0 0 0 0 0 0 0 0 0 0 0 0 0 0 127 0"/>
<feOffset dx="-7" dy="-7"/>
<feGaussianBlur stdDeviation="10"/>
<feColorMatrix type="matrix" values="0 0 0 0 0.106163 0 0 0 0 0.257163 0 0 0 0 0.464249 0 0 0 0.6 0"/>
<feBlend mode="normal" in2="effect1_dropShadow" result="effect2_dropShadow"/>
<feBlend mode="normal" in="SourceGraphic" in2="effect2_dropShadow" result="shape"/>
<feColorMatrix in="SourceAlpha" type="matrix" values="0 0 0 0 0 0 0 0 0 0 0 0 0 0 0 0 0 0 127 0" result="hardAlpha"/>
<feOffset dx="1" dy="1"/>
<feGaussianBlur stdDeviation="1.5"/>
<feComposite in2="hardAlpha" operator="arithmetic" k2="-1" k3="1"/>
<feColorMatrix type="matrix" values="0 0 0 0 0.498171 0 0 0 0 0.709785 0 0 0 0 1 0 0 0 1 0"/>
<feBlend mode="normal" in2="shape" result="effect3_innerShadow"/>
<feColorMatrix in="SourceAlpha" type="matrix" values="0 0 0 0 0 0 0 0 0 0 0 0 0 0 0 0 0 0 127 0" result="hardAlpha"/>
<feOffset dx="-1" dy="-1"/>
<feGaussianBlur stdDeviation="1.5"/>
<feComposite in2="hardAlpha" operator="arithmetic" k2="-1" k3="1"/>
<feColorMatrix type="matrix" values="0 0 0 0 0.228705 0 0 0 0 0.550273 0 0 0 0 0.991282 0 0 0 1 0"/>
<feBlend mode="normal" in2="effect3_innerShadow" result="effect4_innerShadow"/>
</filter>
<filter id="filter3_i" x="266.105" y="14.2979" width="15.4737" height="15.4737" filterUnits="userSpaceOnUse" color-interpolation-filters="sRGB">
<feFlood flood-opacity="0" result="BackgroundImageFix"/>
<feBlend mode="normal" in="SourceGraphic" in2="BackgroundImageFix" result="shape"/>
<feColorMatrix in="SourceAlpha" type="matrix" values="0 0 0 0 0 0 0 0 0 0 0 0 0 0 0 0 0 0 127 0" result="hardAlpha"/>
<feOffset dx="2" dy="2"/>
<feGaussianBlur stdDeviation="1.5"/>
<feComposite in2="hardAlpha" operator="arithmetic" k2="-1" k3="1"/>
<feColorMatrix type="matrix" values="0 0 0 0 0 0 0 0 0 0 0 0 0 0 0 0 0 0 0.1 0"/>
<feBlend mode="normal" in2="shape" result="effect1_innerShadow"/>
</filter>
<filter id="filter4_i" x="286.316" y="14.2979" width="15.4737" height="15.4737" filterUnits="userSpaceOnUse" color-interpolation-filters="sRGB">
<feFlood flood-opacity="0" result="BackgroundImageFix"/>
<feBlend mode="normal" in="SourceGraphic" in2="BackgroundImageFix" result="shape"/>
<feColorMatrix in="SourceAlpha" type="matrix" values="0 0 0 0 0 0 0 0 0 0 0 0 0 0 0 0 0 0 127 0" result="hardAlpha"/>
<feOffset dx="2" dy="2"/>
<feGaussianBlur stdDeviation="1.5"/>
<feComposite in2="hardAlpha" operator="arithmetic" k2="-1" k3="1"/>
<feColorMatrix type="matrix" values="0 0 0 0 0 0 0 0 0 0 0 0 0 0 0 0 0 0 0.1 0"/>
<feBlend mode="normal" in2="shape" result="effect1_innerShadow"/>
</filter>
<filter id="filter5_i" x="44.9122" y="62.3158" width="5.49123" height="77.3509" filterUnits="userSpaceOnUse" color-interpolation-filters="sRGB">
<feFlood flood-opacity="0" result="BackgroundImageFix"/>
<feBlend mode="normal" in="SourceGraphic" in2="BackgroundImageFix" result="shape"/>
<feColorMatrix in="SourceAlpha" type="matrix" values="0 0 0 0 0 0 0 0 0 0 0 0 0 0 0 0 0 0 127 0" result="hardAlpha"/>
<feOffset dx="1" dy="1"/>
<feGaussianBlur stdDeviation="0.5"/>
<feComposite in2="hardAlpha" operator="arithmetic" k2="-1" k3="1"/>
<feColorMatrix type="matrix" values="0 0 0 0 0 0 0 0 0 0 0 0 0 0 0 0 0 0 0.1 0"/>
<feBlend mode="normal" in2="shape" result="effect1_innerShadow"/>
</filter>
<filter id="filter6_ddii" x="23.9122" y="45.807" width="52.4912" height="119.86" filterUnits="userSpaceOnUse" color-interpolation-filters="sRGB">
<feFlood flood-opacity="0" result="BackgroundImageFix"/>
<feColorMatrix in="SourceAlpha" type="matrix" values="0 0 0 0 0 0 0 0 0 0 0 0 0 0 0 0 0 0 127 0"/>
<feOffset dx="7" dy="7"/>
<feGaussianBlur stdDeviation="10"/>
<feColorMatrix type="matrix" values="0 0 0 0 0 0 0 0 0 0 0 0 0 0 0 0 0 0 0.4 0"/>
<feBlend mode="normal" in2="BackgroundImageFix" result="effect1_dropShadow"/>
<feColorMatrix in="SourceAlpha" type="matrix" values="0 0 0 0 0 0 0 0 0 0 0 0 0 0 0 0 0 0 127 0"/>
<feOffset dx="-7" dy="-7"/>
<feGaussianBlur stdDeviation="7"/>
<feColorMatrix type="matrix" values="0 0 0 0 0 0 0 0 0 0 0 0 0 0 0 0 0 0 0.1 0"/>
<feBlend mode="normal" in2="effect1_dropShadow" result="effect2_dropShadow"/>
<feBlend mode="normal" in="SourceGraphic" in2="effect2_dropShadow" result="shape"/>
<feColorMatrix in="SourceAlpha" type="matrix" values="0 0 0 0 0 0 0 0 0 0 0 0 0 0 0 0 0 0 127 0" result="hardAlpha"/>
<feOffset dx="1" dy="1"/>
<feGaussianBlur stdDeviation="1.5"/>
<feComposite in2="hardAlpha" operator="arithmetic" k2="-1" k3="1"/>
<feColorMatrix type="matrix" values="0 0 0 0 1 0 0 0 0 0.871413 0 0 0 0 0.53649 0 0 0 1 0"/>
<feBlend mode="normal" in2="shape" result="effect3_innerShadow"/>
<feColorMatrix in="SourceAlpha" type="matrix" values="0 0 0 0 0 0 0 0 0 0 0 0 0 0 0 0 0 0 127 0" result="hardAlpha"/>
<feOffset dx="-1" dy="-1"/>
<feGaussianBlur stdDeviation="1.5"/>
<feComposite in2="hardAlpha" operator="arithmetic" k2="-1" k3="1"/>
<feColorMatrix type="matrix" values="0 0 0 0 0.88018 0 0 0 0 0.703899 0 0 0 0 0.24475 0 0 0 1 0"/>
<feBlend mode="normal" in2="effect3_innerShadow" result="effect4_innerShadow"/>
</filter>
<filter id="filter7_i" x="83.0878" y="62.3158" width="5.49123" height="77.3509" filterUnits="userSpaceOnUse" color-interpolation-filters="sRGB">
<feFlood flood-opacity="0" result="BackgroundImageFix"/>
<feBlend mode="normal" in="SourceGraphic" in2="BackgroundImageFix" result="shape"/>
<feColorMatrix in="SourceAlpha" type="matrix" values="0 0 0 0 0 0 0 0 0 0 0 0 0 0 0 0 0 0 127 0" result="hardAlpha"/>
<feOffset dx="1" dy="1"/>
<feGaussianBlur stdDeviation="0.5"/>
<feComposite in2="hardAlpha" operator="arithmetic" k2="-1" k3="1"/>
<feColorMatrix type="matrix" values="0 0 0 0 0 0 0 0 0 0 0 0 0 0 0 0 0 0 0.1 0"/>
<feBlend mode="normal" in2="shape" result="effect1_innerShadow"/>
</filter>
<filter id="filter8_ddii" x="62.0878" y="68.2632" width="52.4912" height="97.4035" filterUnits="userSpaceOnUse" color-interpolation-filters="sRGB">
<feFlood flood-opacity="0" result="BackgroundImageFix"/>
<feColorMatrix in="SourceAlpha" type="matrix" values="0 0 0 0 0 0 0 0 0 0 0 0 0 0 0 0 0 0 127 0"/>
<feOffset dx="7" dy="7"/>
<feGaussianBlur stdDeviation="10"/>
<feColorMatrix type="matrix" values="0 0 0 0 0 0 0 0 0 0 0 0 0 0 0 0 0 0 0.4 0"/>
<feBlend mode="normal" in2="BackgroundImageFix" result="effect1_dropShadow"/>
<feColorMatrix in="SourceAlpha" type="matrix" values="0 0 0 0 0 0 0 0 0 0 0 0 0 0 0 0 0 0 127 0"/>
<feOffset dx="-7" dy="-7"/>
<feGaussianBlur stdDeviation="7"/>
<feColorMatrix type="matrix" values="0 0 0 0 0 0 0 0 0 0 0 0 0 0 0 0 0 0 0.1 0"/>
<feBlend mode="normal" in2="effect1_dropShadow" result="effect2_dropShadow"/>
<feBlend mode="normal" in="SourceGraphic" in2="effect2_dropShadow" result="shape"/>
<feColorMatrix in="SourceAlpha" type="matrix" values="0 0 0 0 0 0 0 0 0 0 0 0 0 0 0 0 0 0 127 0" result="hardAlpha"/>
<feOffset dx="1" dy="1"/>
<feGaussianBlur stdDeviation="1.5"/>
<feComposite in2="hardAlpha" operator="arithmetic" k2="-1" k3="1"/>
<feColorMatrix type="matrix" values="0 0 0 0 1 0 0 0 0 0.871413 0 0 0 0 0.53649 0 0 0 1 0"/>
<feBlend mode="normal" in2="shape" result="effect3_innerShadow"/>
<feColorMatrix in="SourceAlpha" type="matrix" values="0 0 0 0 0 0 0 0 0 0 0 0 0 0 0 0 0 0 127 0" result="hardAlpha"/>
<feOffset dx="-1" dy="-1"/>
<feGaussianBlur stdDeviation="1.5"/>
<feComposite in2="hardAlpha" operator="arithmetic" k2="-1" k3="1"/>
<feColorMatrix type="matrix" values="0 0 0 0 0.88018 0 0 0 0 0.703899 0 0 0 0 0.24475 0 0 0 1 0"/>
<feBlend mode="normal" in2="effect3_innerShadow" result="effect4_innerShadow"/>
</filter>
<filter id="filter9_i" x="121.263" y="62.3158" width="5.49123" height="77.3509" filterUnits="userSpaceOnUse" color-interpolation-filters="sRGB">
<feFlood flood-opacity="0" result="BackgroundImageFix"/>
<feBlend mode="normal" in="SourceGraphic" in2="BackgroundImageFix" result="shape"/>
<feColorMatrix in="SourceAlpha" type="matrix" values="0 0 0 0 0 0 0 0 0 0 0 0 0 0 0 0 0 0 127 0" result="hardAlpha"/>
<feOffset dx="1" dy="1"/>
<feGaussianBlur stdDeviation="0.5"/>
<feComposite in2="hardAlpha" operator="arithmetic" k2="-1" k3="1"/>
<feColorMatrix type="matrix" values="0 0 0 0 0 0 0 0 0 0 0 0 0 0 0 0 0 0 0.1 0"/>
<feBlend mode="normal" in2="shape" result="effect1_innerShadow"/>
</filter>
<filter id="filter10_ddii" x="100.263" y="82.2982" width="52.4912" height="83.3684" filterUnits="userSpaceOnUse" color-interpolation-filters="sRGB">
<feFlood flood-opacity="0" result="BackgroundImageFix"/>
<feColorMatrix in="SourceAlpha" type="matrix" values="0 0 0 0 0 0 0 0 0 0 0 0 0 0 0 0 0 0 127 0"/>
<feOffset dx="7" dy="7"/>
<feGaussianBlur stdDeviation="10"/>
<feColorMatrix type="matrix" values="0 0 0 0 0 0 0 0 0 0 0 0 0 0 0 0 0 0 0.4 0"/>
<feBlend mode="normal" in2="BackgroundImageFix" result="effect1_dropShadow"/>
<feColorMatrix in="SourceAlpha" type="matrix" values="0 0 0 0 0 0 0 0 0 0 0 0 0 0 0 0 0 0 127 0"/>
<feOffset dx="-7" dy="-7"/>
<feGaussianBlur stdDeviation="7"/>
<feColorMatrix type="matrix" values="0 0 0 0 0 0 0 0 0 0 0 0 0 0 0 0 0 0 0.1 0"/>
<feBlend mode="normal" in2="effect1_dropShadow" result="effect2_dropShadow"/>
<feBlend mode="normal" in="SourceGraphic" in2="effect2_dropShadow" result="shape"/>
<feColorMatrix in="SourceAlpha" type="matrix" values="0 0 0 0 0 0 0 0 0 0 0 0 0 0 0 0 0 0 127 0" result="hardAlpha"/>
<feOffset dx="1" dy="1"/>
<feGaussianBlur stdDeviation="1.5"/>
<feComposite in2="hardAlpha" operator="arithmetic" k2="-1" k3="1"/>
<feColorMatrix type="matrix" values="0 0 0 0 1 0 0 0 0 0.871413 0 0 0 0 0.53649 0 0 0 1 0"/>
<feBlend mode="normal" in2="shape" result="effect3_innerShadow"/>
<feColorMatrix in="SourceAlpha" type="matrix" values="0 0 0 0 0 0 0 0 0 0 0 0 0 0 0 0 0 0 127 0" result="hardAlpha"/>
<feOffset dx="-1" dy="-1"/>
<feGaussianBlur stdDeviation="1.5"/>
<feComposite in2="hardAlpha" operator="arithmetic" k2="-1" k3="1"/>
<feColorMatrix type="matrix" values="0 0 0 0 0.88018 0 0 0 0 0.703899 0 0 0 0 0.24475 0 0 0 1 0"/>
<feBlend mode="normal" in2="effect3_innerShadow" result="effect4_innerShadow"/>
</filter>
<filter id="filter11_i" x="159.439" y="62.3158" width="5.49123" height="77.3509" filterUnits="userSpaceOnUse" color-interpolation-filters="sRGB">
<feFlood flood-opacity="0" result="BackgroundImageFix"/>
<feBlend mode="normal" in="SourceGraphic" in2="BackgroundImageFix" result="shape"/>
<feColorMatrix in="SourceAlpha" type="matrix" values="0 0 0 0 0 0 0 0 0 0 0 0 0 0 0 0 0 0 127 0" result="hardAlpha"/>
<feOffset dx="1" dy="1"/>
<feGaussianBlur stdDeviation="0.5"/>
<feComposite in2="hardAlpha" operator="arithmetic" k2="-1" k3="1"/>
<feColorMatrix type="matrix" values="0 0 0 0 0 0 0 0 0 0 0 0 0 0 0 0 0 0 0.1 0"/>
<feBlend mode="normal" in2="shape" result="effect1_innerShadow"/>
</filter>
<filter id="filter12_ddii" x="138.439" y="59.2808" width="52.4912" height="106.386" filterUnits="userSpaceOnUse" color-interpolation-filters="sRGB">
<feFlood flood-opacity="0" result="BackgroundImageFix"/>
<feColorMatrix in="SourceAlpha" type="matrix" values="0 0 0 0 0 0 0 0 0 0 0 0 0 0 0 0 0 0 127 0"/>
<feOffset dx="7" dy="7"/>
<feGaussianBlur stdDeviation="10"/>
<feColorMatrix type="matrix" values="0 0 0 0 0 0 0 0 0 0 0 0 0 0 0 0 0 0 0.4 0"/>
<feBlend mode="normal" in2="BackgroundImageFix" result="effect1_dropShadow"/>
<feColorMatrix in="SourceAlpha" type="matrix" values="0 0 0 0 0 0 0 0 0 0 0 0 0 0 0 0 0 0 127 0"/>
<feOffset dx="-7" dy="-7"/>
<feGaussianBlur stdDeviation="7"/>
<feColorMatrix type="matrix" values="0 0 0 0 0 0 0 0 0 0 0 0 0 0 0 0 0 0 0.1 0"/>
<feBlend mode="normal" in2="effect1_dropShadow" result="effect2_dropShadow"/>
<feBlend mode="normal" in="SourceGraphic" in2="effect2_dropShadow" result="shape"/>
<feColorMatrix in="SourceAlpha" type="matrix" values="0 0 0 0 0 0 0 0 0 0 0 0 0 0 0 0 0 0 127 0" result="hardAlpha"/>
<feOffset dx="1" dy="1"/>
<feGaussianBlur stdDeviation="1.5"/>
<feComposite in2="hardAlpha" operator="arithmetic" k2="-1" k3="1"/>
<feColorMatrix type="matrix" values="0 0 0 0 1 0 0 0 0 0.871413 0 0 0 0 0.53649 0 0 0 1 0"/>
<feBlend mode="normal" in2="shape" result="effect3_innerShadow"/>
<feColorMatrix in="SourceAlpha" type="matrix" values="0 0 0 0 0 0 0 0 0 0 0 0 0 0 0 0 0 0 127 0" result="hardAlpha"/>
<feOffset dx="-1" dy="-1"/>
<feGaussianBlur stdDeviation="1.5"/>
<feComposite in2="hardAlpha" operator="arithmetic" k2="-1" k3="1"/>
<feColorMatrix type="matrix" values="0 0 0 0 0.88018 0 0 0 0 0.703899 0 0 0 0 0.24475 0 0 0 1 0"/>
<feBlend mode="normal" in2="effect3_innerShadow" result="effect4_innerShadow"/>
</filter>
<filter id="filter13_i" x="197.614" y="62.3158" width="5.49123" height="77.3509" filterUnits="userSpaceOnUse" color-interpolation-filters="sRGB">
<feFlood flood-opacity="0" result="BackgroundImageFix"/>
<feBlend mode="normal" in="SourceGraphic" in2="BackgroundImageFix" result="shape"/>
<feColorMatrix in="SourceAlpha" type="matrix" values="0 0 0 0 0 0 0 0 0 0 0 0 0 0 0 0 0 0 127 0" result="hardAlpha"/>
<feOffset dx="1" dy="1"/>
<feGaussianBlur stdDeviation="0.5"/>
<feComposite in2="hardAlpha" operator="arithmetic" k2="-1" k3="1"/>
<feColorMatrix type="matrix" values="0 0 0 0 0 0 0 0 0 0 0 0 0 0 0 0 0 0 0.1 0"/>
<feBlend mode="normal" in2="shape" result="effect1_innerShadow"/>
</filter>
<filter id="filter14_ddii" x="176.614" y="71.0702" width="52.4912" height="94.5965" filterUnits="userSpaceOnUse" color-interpolation-filters="sRGB">
<feFlood flood-opacity="0" result="BackgroundImageFix"/>
<feColorMatrix in="SourceAlpha" type="matrix" values="0 0 0 0 0 0 0 0 0 0 0 0 0 0 0 0 0 0 127 0"/>
<feOffset dx="7" dy="7"/>
<feGaussianBlur stdDeviation="10"/>
<feColorMatrix type="matrix" values="0 0 0 0 0 0 0 0 0 0 0 0 0 0 0 0 0 0 0.4 0"/>
<feBlend mode="normal" in2="BackgroundImageFix" result="effect1_dropShadow"/>
<feColorMatrix in="SourceAlpha" type="matrix" values="0 0 0 0 0 0 0 0 0 0 0 0 0 0 0 0 0 0 127 0"/>
<feOffset dx="-7" dy="-7"/>
<feGaussianBlur stdDeviation="7"/>
<feColorMatrix type="matrix" values="0 0 0 0 0 0 0 0 0 0 0 0 0 0 0 0 0 0 0.1 0"/>
<feBlend mode="normal" in2="effect1_dropShadow" result="effect2_dropShadow"/>
<feBlend mode="normal" in="SourceGraphic" in2="effect2_dropShadow" result="shape"/>
<feColorMatrix in="SourceAlpha" type="matrix" values="0 0 0 0 0 0 0 0 0 0 0 0 0 0 0 0 0 0 127 0" result="hardAlpha"/>
<feOffset dx="1" dy="1"/>
<feGaussianBlur stdDeviation="1.5"/>
<feComposite in2="hardAlpha" operator="arithmetic" k2="-1" k3="1"/>
<feColorMatrix type="matrix" values="0 0 0 0 1 0 0 0 0 0.871413 0 0 0 0 0.53649 0 0 0 1 0"/>
<feBlend mode="normal" in2="shape" result="effect3_innerShadow"/>
<feColorMatrix in="SourceAlpha" type="matrix" values="0 0 0 0 0 0 0 0 0 0 0 0 0 0 0 0 0 0 127 0" result="hardAlpha"/>
<feOffset dx="-1" dy="-1"/>
<feGaussianBlur stdDeviation="1.5"/>
<feComposite in2="hardAlpha" operator="arithmetic" k2="-1" k3="1"/>
<feColorMatrix type="matrix" values="0 0 0 0 0.88018 0 0 0 0 0.703899 0 0 0 0 0.24475 0 0 0 1 0"/>
<feBlend mode="normal" in2="effect3_innerShadow" result="effect4_innerShadow"/>
</filter>
<filter id="filter15_i" x="235.789" y="62.3158" width="5.49123" height="77.3509" filterUnits="userSpaceOnUse" color-interpolation-filters="sRGB">
<feFlood flood-opacity="0" result="BackgroundImageFix"/>
<feBlend mode="normal" in="SourceGraphic" in2="BackgroundImageFix" result="shape"/>
<feColorMatrix in="SourceAlpha" type="matrix" values="0 0 0 0 0 0 0 0 0 0 0 0 0 0 0 0 0 0 127 0" result="hardAlpha"/>
<feOffset dx="1" dy="1"/>
<feGaussianBlur stdDeviation="0.5"/>
<feComposite in2="hardAlpha" operator="arithmetic" k2="-1" k3="1"/>
<feColorMatrix type="matrix" values="0 0 0 0 0 0 0 0 0 0 0 0 0 0 0 0 0 0 0.1 0"/>
<feBlend mode="normal" in2="shape" result="effect1_innerShadow"/>
</filter>
<filter id="filter16_ddii" x="214.789" y="51.9824" width="52.4912" height="113.684" filterUnits="userSpaceOnUse" color-interpolation-filters="sRGB">
<feFlood flood-opacity="0" result="BackgroundImageFix"/>
<feColorMatrix in="SourceAlpha" type="matrix" values="0 0 0 0 0 0 0 0 0 0 0 0 0 0 0 0 0 0 127 0"/>
<feOffset dx="7" dy="7"/>
<feGaussianBlur stdDeviation="10"/>
<feColorMatrix type="matrix" values="0 0 0 0 0 0 0 0 0 0 0 0 0 0 0 0 0 0 0.4 0"/>
<feBlend mode="normal" in2="BackgroundImageFix" result="effect1_dropShadow"/>
<feColorMatrix in="SourceAlpha" type="matrix" values="0 0 0 0 0 0 0 0 0 0 0 0 0 0 0 0 0 0 127 0"/>
<feOffset dx="-7" dy="-7"/>
<feGaussianBlur stdDeviation="7"/>
<feColorMatrix type="matrix" values="0 0 0 0 0 0 0 0 0 0 0 0 0 0 0 0 0 0 0.1 0"/>
<feBlend mode="normal" in2="effect1_dropShadow" result="effect2_dropShadow"/>
<feBlend mode="normal" in="SourceGraphic" in2="effect2_dropShadow" result="shape"/>
<feColorMatrix in="SourceAlpha" type="matrix" values="0 0 0 0 0 0 0 0 0 0 0 0 0 0 0 0 0 0 127 0" result="hardAlpha"/>
<feOffset dx="1" dy="1"/>
<feGaussianBlur stdDeviation="1.5"/>
<feComposite in2="hardAlpha" operator="arithmetic" k2="-1" k3="1"/>
<feColorMatrix type="matrix" values="0 0 0 0 1 0 0 0 0 0.871413 0 0 0 0 0.53649 0 0 0 1 0"/>
<feBlend mode="normal" in2="shape" result="effect3_innerShadow"/>
<feColorMatrix in="SourceAlpha" type="matrix" values="0 0 0 0 0 0 0 0 0 0 0 0 0 0 0 0 0 0 127 0" result="hardAlpha"/>
<feOffset dx="-1" dy="-1"/>
<feGaussianBlur stdDeviation="1.5"/>
<feComposite in2="hardAlpha" operator="arithmetic" k2="-1" k3="1"/>
<feColorMatrix type="matrix" values="0 0 0 0 0.88018 0 0 0 0 0.703899 0 0 0 0 0.24475 0 0 0 1 0"/>
<feBlend mode="normal" in2="effect3_innerShadow" result="effect4_innerShadow"/>
</filter>
<filter id="filter17_i" x="273.965" y="62.3158" width="5.49123" height="77.3509" filterUnits="userSpaceOnUse" color-interpolation-filters="sRGB">
<feFlood flood-opacity="0" result="BackgroundImageFix"/>
<feBlend mode="normal" in="SourceGraphic" in2="BackgroundImageFix" result="shape"/>
<feColorMatrix in="SourceAlpha" type="matrix" values="0 0 0 0 0 0 0 0 0 0 0 0 0 0 0 0 0 0 127 0" result="hardAlpha"/>
<feOffset dx="1" dy="1"/>
<feGaussianBlur stdDeviation="0.5"/>
<feComposite in2="hardAlpha" operator="arithmetic" k2="-1" k3="1"/>
<feColorMatrix type="matrix" values="0 0 0 0 0 0 0 0 0 0 0 0 0 0 0 0 0 0 0.1 0"/>
<feBlend mode="normal" in2="shape" result="effect1_innerShadow"/>
</filter>
<filter id="filter18_ddii" x="252.965" y="45.807" width="52.4912" height="119.86" filterUnits="userSpaceOnUse" color-interpolation-filters="sRGB">
<feFlood flood-opacity="0" result="BackgroundImageFix"/>
<feColorMatrix in="SourceAlpha" type="matrix" values="0 0 0 0 0 0 0 0 0 0 0 0 0 0 0 0 0 0 127 0"/>
<feOffset dx="7" dy="7"/>
<feGaussianBlur stdDeviation="10"/>
<feColorMatrix type="matrix" values="0 0 0 0 0 0 0 0 0 0 0 0 0 0 0 0 0 0 0.4 0"/>
<feBlend mode="normal" in2="BackgroundImageFix" result="effect1_dropShadow"/>
<feColorMatrix in="SourceAlpha" type="matrix" values="0 0 0 0 0 0 0 0 0 0 0 0 0 0 0 0 0 0 127 0"/>
<feOffset dx="-7" dy="-7"/>
<feGaussianBlur stdDeviation="7"/>
<feColorMatrix type="matrix" values="0 0 0 0 0 0 0 0 0 0 0 0 0 0 0 0 0 0 0.1 0"/>
<feBlend mode="normal" in2="effect1_dropShadow" result="effect2_dropShadow"/>
<feBlend mode="normal" in="SourceGraphic" in2="effect2_dropShadow" result="shape"/>
<feColorMatrix in="SourceAlpha" type="matrix" values="0 0 0 0 0 0 0 0 0 0 0 0 0 0 0 0 0 0 127 0" result="hardAlpha"/>
<feOffset dx="1" dy="1"/>
<feGaussianBlur stdDeviation="1.5"/>
<feComposite in2="hardAlpha" operator="arithmetic" k2="-1" k3="1"/>
<feColorMatrix type="matrix" values="0 0 0 0 1 0 0 0 0 0.871413 0 0 0 0 0.53649 0 0 0 1 0"/>
<feBlend mode="normal" in2="shape" result="effect3_innerShadow"/>
<feColorMatrix in="SourceAlpha" type="matrix" values="0 0 0 0 0 0 0 0 0 0 0 0 0 0 0 0 0 0 127 0" result="hardAlpha"/>
<feOffset dx="-1" dy="-1"/>
<feGaussianBlur stdDeviation="1.5"/>
<feComposite in2="hardAlpha" operator="arithmetic" k2="-1" k3="1"/>
<feColorMatrix type="matrix" values="0 0 0 0 0.88018 0 0 0 0 0.703899 0 0 0 0 0.24475 0 0 0 1 0"/>
<feBlend mode="normal" in2="effect3_innerShadow" result="effect4_innerShadow"/>
</filter>
<clipPath id="clip0">
<rect width="320" height="171" fill="white"/>
</clipPath>
<clipPath id="clip1">
<rect width="14" height="14" fill="white" transform="translate(225.684 14.2979)"/>
</clipPath>
<clipPath id="clip2">
<rect width="14" height="14" fill="white" transform="translate(245.895 14.2979)"/>
</clipPath>
<clipPath id="clip3">
<rect width="14" height="14" fill="white" transform="translate(266.105 14.2979)"/>
</clipPath>
<clipPath id="clip4">
<rect width="14" height="14" fill="white" transform="translate(286.316 14.2979)"/>
</clipPath>
</defs>
</svg>
