<svg width="320" height="227" viewBox="0 0 320 227" fill="none" xmlns="http://www.w3.org/2000/svg">
<g filter="url(#filter0_ddii)">
<rect width="320" height="179.745" rx="10.8936" fill="#293661"/>
</g>
<g clip-path="url(#clip0)">
<g filter="url(#filter1_i)">
<path fill-rule="evenodd" clip-rule="evenodd" d="M37.4468 114.383C37.4468 88.0613 58.7847 66.7234 85.1063 66.7234C111.428 66.7234 132.766 88.0613 132.766 114.383C132.766 140.705 111.428 162.043 85.1063 162.043C58.7847 162.043 37.4468 140.705 37.4468 114.383ZM119.149 114.383C119.149 95.5818 103.908 80.3404 85.1064 80.3404C66.3052 80.3404 51.0638 95.5818 51.0638 114.383C51.0638 133.184 66.3052 148.426 85.1064 148.426C103.908 148.426 119.149 133.184 119.149 114.383Z" fill="#1A223F"/>
</g>
<g filter="url(#filter2_ddii)">
<path fill-rule="evenodd" clip-rule="evenodd" d="M85.7871 66.7234C111.733 66.7234 132.766 87.7565 132.766 113.702C132.766 117.462 129.718 120.511 125.957 120.511C122.261 120.511 119.252 117.565 119.151 113.893L119.149 113.702C119.149 95.277 104.212 80.3404 85.7871 80.3404C82.0269 80.3404 78.9786 77.2921 78.9786 73.5319C78.9786 69.7717 82.0269 66.7234 85.7871 66.7234Z" fill="#599FFF"/>
</g>
<circle cx="85.7872" cy="73.5319" r="2.7234" fill="#212C50"/>
<circle cx="125.957" cy="114.383" r="2.7234" fill="#212C50"/>
<path d="M67.6057 21.3969V23.7989H69.0164C69.3723 23.7989 69.6741 23.6846 69.922 23.4558C70.1698 23.2207 70.2937 22.9315 70.2937 22.5884C70.2937 22.2707 70.1762 21.9942 69.941 21.7591C69.7123 21.5176 69.4231 21.3969 69.0736 21.3969H67.6057ZM67.6057 27.3829H66.7288V20.5581H69.0546C69.6455 20.5581 70.1476 20.7551 70.5606 21.1491C70.98 21.5367 71.1897 22.0165 71.1897 22.5884C71.1897 23.0586 71.034 23.478 70.7227 23.8466C70.4176 24.2088 70.03 24.4408 69.5598 24.5424L69.5407 24.571L71.4566 27.3448V27.3829H70.4176L68.578 24.6187H67.6057V27.3829ZM74.0908 27.5354C73.4045 27.5354 72.839 27.3003 72.3942 26.8301C71.9493 26.3598 71.7269 25.7657 71.7269 25.0476C71.7269 24.3359 71.943 23.7449 72.3751 23.2747C72.8072 22.7981 73.3601 22.5598 74.0337 22.5598C74.7263 22.5598 75.276 22.7854 75.6827 23.2366C76.0957 23.6814 76.3022 24.3073 76.3022 25.1143L76.2927 25.2097H72.6229C72.6356 25.6672 72.7881 26.0358 73.0805 26.3154C73.3728 26.595 73.7223 26.7348 74.129 26.7348C74.6882 26.7348 75.1266 26.4552 75.4444 25.896L76.226 26.2772C76.0163 26.6712 75.724 26.9794 75.3491 27.2018C74.9805 27.4242 74.5611 27.5354 74.0908 27.5354ZM72.6897 24.4852H75.3681C75.3427 24.1611 75.2093 23.8943 74.9678 23.6846C74.7327 23.4685 74.4149 23.3605 74.0146 23.3605C73.6841 23.3605 73.3982 23.4621 73.1567 23.6655C72.9216 23.8688 72.7659 24.1421 72.6897 24.4852ZM81.5735 29.4418H80.6966V27.3829L80.7347 26.7348H80.6966C80.5441 26.9762 80.3249 27.1701 80.0389 27.3162C79.7593 27.4624 79.4479 27.5354 79.1048 27.5354C78.4947 27.5354 77.9705 27.294 77.532 26.811C77.0999 26.3217 76.8838 25.7339 76.8838 25.0476C76.8838 24.3613 77.0999 23.7735 77.532 23.2842C77.9705 22.8013 78.4947 22.5598 79.1048 22.5598C79.4479 22.5598 79.7593 22.6329 80.0389 22.779C80.3249 22.9252 80.5441 23.119 80.6966 23.3605H80.7347V22.7123H81.5735V29.4418ZM79.2478 26.7348C79.6799 26.7348 80.0326 26.5791 80.3058 26.2677C80.5918 25.9563 80.7347 25.5496 80.7347 25.0476C80.7347 24.5583 80.5918 24.1548 80.3058 23.8371C80.0262 23.5193 79.6735 23.3605 79.2478 23.3605C78.8284 23.3605 78.4757 23.5193 78.1897 23.8371C77.9038 24.1548 77.7608 24.5583 77.7608 25.0476C77.7608 25.5433 77.9038 25.9468 78.1897 26.2582C78.4757 26.5759 78.8284 26.7348 79.2478 26.7348ZM86.7042 27.3829H85.8654V26.7348H85.8273C85.6939 26.9635 85.4873 27.1542 85.2077 27.3067C84.9345 27.4592 84.6485 27.5354 84.3499 27.5354C83.7779 27.5354 83.3363 27.3734 83.0249 27.0493C82.7199 26.7189 82.5674 26.2518 82.5674 25.6481V22.7123H83.4443V25.5909C83.4634 26.3535 83.8478 26.7348 84.5977 26.7348C84.9472 26.7348 85.2395 26.595 85.4746 26.3154C85.7097 26.0294 85.8273 25.6894 85.8273 25.2954V22.7123H86.7042V27.3829ZM89.8222 27.5354C89.1359 27.5354 88.5704 27.3003 88.1255 26.8301C87.6807 26.3598 87.4583 25.7657 87.4583 25.0476C87.4583 24.3359 87.6744 23.7449 88.1065 23.2747C88.5386 22.7981 89.0914 22.5598 89.765 22.5598C90.4577 22.5598 91.0074 22.7854 91.4141 23.2366C91.8271 23.6814 92.0336 24.3073 92.0336 25.1143L92.0241 25.2097H88.3543C88.367 25.6672 88.5195 26.0358 88.8118 26.3154C89.1042 26.595 89.4537 26.7348 89.8604 26.7348C90.4196 26.7348 90.858 26.4552 91.1758 25.896L91.9574 26.2772C91.7477 26.6712 91.4554 26.9794 91.0804 27.2018C90.7119 27.4242 90.2925 27.5354 89.8222 27.5354ZM88.421 24.4852H91.0995C91.0741 24.1611 90.9406 23.8943 90.6992 23.6846C90.464 23.4685 90.1463 23.3605 89.746 23.3605C89.4155 23.3605 89.1296 23.4621 88.8881 23.6655C88.653 23.8688 88.4973 24.1421 88.421 24.4852ZM96.4566 26.0866C96.4566 26.4933 96.2787 26.8364 95.9228 27.116C95.5669 27.3956 95.1189 27.5354 94.5788 27.5354C94.1086 27.5354 93.6955 27.4147 93.3397 27.1732C92.9838 26.9254 92.7296 26.6013 92.5771 26.201L93.3587 25.8674C93.4731 26.147 93.6383 26.3662 93.8544 26.5251C94.0768 26.6776 94.3183 26.7538 94.5788 26.7538C94.8584 26.7538 95.0903 26.6935 95.2746 26.5727C95.4653 26.452 95.5606 26.309 95.5606 26.1438C95.5606 25.8451 95.3318 25.6259 94.8743 25.4861L94.0736 25.2859C93.1649 25.0571 92.7105 24.6187 92.7105 23.9705C92.7105 23.5448 92.8821 23.2048 93.2253 22.9506C93.5748 22.6901 94.0196 22.5598 94.5597 22.5598C94.9728 22.5598 95.3445 22.6583 95.675 22.8553C96.0118 23.0523 96.2469 23.316 96.3803 23.6464L95.5987 23.9705C95.5098 23.7735 95.3636 23.621 95.1602 23.513C94.9633 23.3986 94.7408 23.3414 94.493 23.3414C94.2642 23.3414 94.0577 23.3986 93.8734 23.513C93.6955 23.6274 93.6065 23.7672 93.6065 23.9324C93.6065 24.1993 93.8576 24.3899 94.3596 24.5043L95.0649 24.6854C95.9927 24.9142 96.4566 25.3812 96.4566 26.0866ZM99.0225 27.4592C98.6413 27.4592 98.3235 27.3416 98.0693 27.1065C97.8215 26.8714 97.6944 26.5441 97.6881 26.1247V23.513H96.8683V22.7123H97.6881V21.2825H98.565V22.7123H99.7088V23.513H98.565V25.8388C98.565 26.1501 98.6254 26.363 98.7461 26.4774C98.8668 26.5854 99.0035 26.6394 99.156 26.6394C99.2259 26.6394 99.2926 26.6331 99.3562 26.6204C99.4261 26.6013 99.4896 26.5791 99.5468 26.5537L99.8232 27.3353C99.5944 27.4179 99.3276 27.4592 99.0225 27.4592ZM104.211 26.0866C104.211 26.4933 104.033 26.8364 103.677 27.116C103.321 27.3956 102.873 27.5354 102.333 27.5354C101.863 27.5354 101.449 27.4147 101.094 27.1732C100.738 26.9254 100.484 26.6013 100.331 26.201L101.113 25.8674C101.227 26.147 101.392 26.3662 101.608 26.5251C101.831 26.6776 102.072 26.7538 102.333 26.7538C102.612 26.7538 102.844 26.6935 103.029 26.5727C103.219 26.452 103.315 26.309 103.315 26.1438C103.315 25.8451 103.086 25.6259 102.628 25.4861L101.828 25.2859C100.919 25.0571 100.465 24.6187 100.465 23.9705C100.465 23.5448 100.636 23.2048 100.979 22.9506C101.329 22.6901 101.774 22.5598 102.314 22.5598C102.727 22.5598 103.099 22.6583 103.429 22.8553C103.766 23.0523 104.001 23.316 104.134 23.6464L103.353 23.9705C103.264 23.7735 103.118 23.621 102.914 23.513C102.717 23.3986 102.495 23.3414 102.247 23.3414C102.018 23.3414 101.812 23.3986 101.627 23.513C101.449 23.6274 101.361 23.7672 101.361 23.9324C101.361 24.1993 101.612 24.3899 102.114 24.5043L102.819 24.6854C103.747 24.9142 104.211 25.3812 104.211 26.0866Z" fill="#7584B5"/>
<path d="M56.6477 49.9837C56.1484 49.9837 55.69 49.9111 55.2724 49.7659C54.8639 49.6206 54.5098 49.4254 54.2103 49.1803C53.9107 48.9262 53.6792 48.6311 53.5158 48.2952C53.3524 47.9503 53.2707 47.5781 53.2707 47.1786C53.2707 46.9063 53.307 46.6521 53.3796 46.4161C53.4613 46.1801 53.5657 45.9667 53.6928 45.7761C53.829 45.5854 53.9833 45.4175 54.1558 45.2723C54.3283 45.127 54.5098 45.0045 54.7005 44.9046V44.7957C54.4009 44.5959 54.1376 44.3327 53.9107 44.0059C53.6928 43.6791 53.5839 43.2978 53.5839 42.862C53.5839 42.4898 53.661 42.1449 53.8154 41.8271C53.9697 41.5003 54.183 41.2189 54.4554 40.9829C54.7277 40.7469 55.05 40.5653 55.4222 40.4382C55.7944 40.302 56.2029 40.234 56.6477 40.234C57.0925 40.234 57.501 40.302 57.8732 40.4382C58.2454 40.5653 58.5677 40.7469 58.84 40.9829C59.1124 41.2189 59.3257 41.5003 59.48 41.8271C59.6344 42.1449 59.7115 42.4898 59.7115 42.862C59.7115 43.2978 59.5981 43.6791 59.3711 44.0059C59.1532 44.3327 58.8945 44.5959 58.5949 44.7957V44.9046C58.7856 45.0045 58.9671 45.127 59.1396 45.2723C59.3121 45.4175 59.4619 45.5854 59.589 45.7761C59.7252 45.9667 59.8295 46.1801 59.9022 46.4161C59.9839 46.6521 60.0247 46.9063 60.0247 47.1786C60.0247 47.5781 59.943 47.9503 59.7796 48.2952C59.6162 48.6311 59.3847 48.9262 59.0852 49.1803C58.7856 49.4254 58.427 49.6206 58.0094 49.7659C57.6009 49.9111 57.147 49.9837 56.6477 49.9837ZM56.6477 44.1284C57.029 44.1284 57.3467 44.024 57.6009 43.8152C57.8551 43.5974 57.9822 43.3159 57.9822 42.971C57.9822 42.6169 57.8551 42.3401 57.6009 42.1403C57.3467 41.9315 57.029 41.8271 56.6477 41.8271C56.2664 41.8271 55.9487 41.9315 55.6945 42.1403C55.4403 42.3401 55.3132 42.6169 55.3132 42.971C55.3132 43.3159 55.4403 43.5974 55.6945 43.8152C55.9487 44.024 56.2664 44.1284 56.6477 44.1284ZM56.6477 48.3361C57.1107 48.3361 57.492 48.2181 57.7915 47.982C58.0911 47.7369 58.2409 47.4101 58.2409 47.0016C58.2409 46.811 58.2 46.6385 58.1183 46.4842C58.0366 46.3208 57.9232 46.1801 57.7779 46.062C57.6417 45.944 57.4738 45.8532 57.2741 45.7897C57.0834 45.7262 56.8747 45.6944 56.6477 45.6944C56.4208 45.6944 56.2074 45.7262 56.0077 45.7897C55.8171 45.8532 55.6491 45.944 55.5039 46.062C55.3677 46.1801 55.2588 46.3208 55.1771 46.4842C55.0954 46.6385 55.0545 46.811 55.0545 47.0016C55.0545 47.4101 55.2043 47.7369 55.5039 47.982C55.8034 48.2181 56.1847 48.3361 56.6477 48.3361ZM65.4194 49.7659V48.0501H61.1164V46.6067L65.256 40.4518H67.1896V46.3888H68.3607V48.0501H67.1896V49.7659H65.4194ZM65.4194 43.1071H65.3105L63.0909 46.3888H65.4194V43.1071ZM73.3474 43.7744C73.7014 43.7744 74.0464 43.8515 74.3823 44.0059C74.7182 44.1511 75.0177 44.3554 75.281 44.6186C75.5443 44.8819 75.7531 45.1996 75.9074 45.5718C76.0708 45.944 76.1525 46.3525 76.1525 46.7974C76.1525 47.2603 76.0617 47.687 75.8802 48.0774C75.6986 48.4677 75.4535 48.8036 75.1448 49.085C74.8453 49.3664 74.4958 49.5888 74.0963 49.7523C73.706 49.9066 73.2929 49.9837 72.8572 49.9837C72.3488 49.9837 71.8904 49.8975 71.4819 49.725C71.0733 49.5435 70.7193 49.3074 70.4197 49.0169C70.1292 48.7174 69.9023 48.3724 69.7389 47.982C69.5845 47.5826 69.5074 47.165 69.5074 46.7293C69.5074 46.1029 69.6299 45.531 69.875 45.0135C70.1292 44.487 70.447 43.9514 70.8282 43.4067L73.0887 40.1795L74.464 41.1327L72.5576 43.8288L72.6257 43.9105C72.8345 43.8198 73.075 43.7744 73.3474 43.7744ZM72.8299 48.3361C73.0297 48.3361 73.2248 48.2998 73.4155 48.2271C73.6061 48.1545 73.7741 48.0501 73.9193 47.914C74.0645 47.7778 74.178 47.6189 74.2597 47.4374C74.3505 47.2467 74.3959 47.0379 74.3959 46.811C74.3959 46.584 74.3505 46.3752 74.2597 46.1846C74.178 45.994 74.0645 45.8305 73.9193 45.6944C73.7741 45.5582 73.6061 45.4538 73.4155 45.3812C73.2248 45.3086 73.0297 45.2723 72.8299 45.2723C72.6211 45.2723 72.4214 45.3086 72.2308 45.3812C72.0492 45.4538 71.8813 45.5582 71.727 45.6944C71.5817 45.8305 71.4637 45.994 71.3729 46.1846C71.2912 46.3752 71.2504 46.584 71.2504 46.811C71.2504 47.0379 71.2912 47.2467 71.3729 47.4374C71.4637 47.6189 71.5817 47.7778 71.727 47.914C71.8813 48.0501 72.0492 48.1545 72.2308 48.2271C72.4214 48.2998 72.6211 48.3361 72.8299 48.3361Z" fill="#599FFF"/>
<path d="M77.0697 49.7659L81.114 40.0161H82.8706L78.8263 49.7659H77.0697ZM87.0841 43.7744C87.4381 43.7744 87.7831 43.8515 88.119 44.0059C88.4549 44.1511 88.7544 44.3554 89.0177 44.6186C89.281 44.8819 89.4898 45.1996 89.6441 45.5718C89.8075 45.944 89.8892 46.3525 89.8892 46.7974C89.8892 47.2603 89.7984 47.687 89.6169 48.0774C89.4353 48.4677 89.1902 48.8036 88.8815 49.085C88.582 49.3664 88.2325 49.5888 87.833 49.7523C87.4427 49.9066 87.0296 49.9837 86.5939 49.9837C86.0855 49.9837 85.6271 49.8975 85.2186 49.725C84.81 49.5435 84.456 49.3074 84.1564 49.0169C83.8659 48.7174 83.639 48.3724 83.4756 47.982C83.3212 47.5826 83.2441 47.165 83.2441 46.7293C83.2441 46.1029 83.3666 45.531 83.6117 45.0135C83.8659 44.487 84.1837 43.9514 84.5649 43.4067L86.8254 40.1795L88.2007 41.1327L86.2943 43.8288L86.3624 43.9105C86.5712 43.8198 86.8117 43.7744 87.0841 43.7744ZM86.5666 48.3361C86.7664 48.3361 86.9615 48.2998 87.1522 48.2271C87.3428 48.1545 87.5108 48.0501 87.656 47.914C87.8013 47.7778 87.9147 47.6189 87.9964 47.4374C88.0872 47.2467 88.1326 47.0379 88.1326 46.811C88.1326 46.584 88.0872 46.3752 87.9964 46.1846C87.9147 45.994 87.8013 45.8305 87.656 45.6944C87.5108 45.5582 87.3428 45.4538 87.1522 45.3812C86.9615 45.3086 86.7664 45.2723 86.5666 45.2723C86.3578 45.2723 86.1581 45.3086 85.9675 45.3812C85.7859 45.4538 85.618 45.5582 85.4637 45.6944C85.3184 45.8305 85.2004 45.994 85.1096 46.1846C85.0279 46.3752 84.9871 46.584 84.9871 46.811C84.9871 47.0379 85.0279 47.2467 85.1096 47.4374C85.2004 47.6189 85.3184 47.7778 85.4637 47.914C85.618 48.0501 85.7859 48.1545 85.9675 48.2271C86.1581 48.2998 86.3578 48.3361 86.5666 48.3361ZM94.946 49.9837C94.3469 49.9837 93.8067 49.8612 93.3256 49.6161C92.8444 49.3619 92.4314 49.0169 92.0864 48.5812C91.7505 48.1454 91.4918 47.6325 91.3103 47.0425C91.1287 46.4433 91.0379 45.7988 91.0379 45.1088C91.0379 44.4189 91.1287 43.7789 91.3103 43.1888C91.4918 42.5897 91.7505 42.0723 92.0864 41.6365C92.4314 41.2008 92.8444 40.8603 93.3256 40.6152C93.8067 40.361 94.3469 40.234 94.946 40.234C95.5452 40.234 96.0853 40.361 96.5664 40.6152C97.0476 40.8603 97.4561 41.2008 97.792 41.6365C98.1369 42.0723 98.4002 42.5897 98.5817 43.1888C98.7633 43.7789 98.8541 44.4189 98.8541 45.1088C98.8541 45.7988 98.7633 46.4433 98.5817 47.0425C98.4002 47.6325 98.1369 48.1454 97.792 48.5812C97.4561 49.0169 97.0476 49.3619 96.5664 49.6161C96.0853 49.8612 95.5452 49.9837 94.946 49.9837ZM94.946 48.2952C95.2728 48.2952 95.5678 48.2181 95.8311 48.0637C96.0944 47.9003 96.3168 47.6779 96.4983 47.3965C96.689 47.106 96.8297 46.7656 96.9205 46.3752C97.0203 45.9849 97.0703 45.5627 97.0703 45.1088C97.0703 44.6459 97.0203 44.2237 96.9205 43.8425C96.8297 43.4521 96.689 43.1162 96.4983 42.8348C96.3168 42.5443 96.0944 42.3219 95.8311 42.1676C95.5678 42.0042 95.2728 41.9225 94.946 41.9225C94.6101 41.9225 94.3105 42.0042 94.0473 42.1676C93.784 42.3219 93.5616 42.5443 93.38 42.8348C93.1985 43.1162 93.0578 43.4521 92.9579 43.8425C92.8671 44.2237 92.8217 44.6459 92.8217 45.1088C92.8217 45.5627 92.8671 45.9849 92.9579 46.3752C93.0578 46.7656 93.1985 47.106 93.38 47.3965C93.5616 47.6779 93.784 47.9003 94.0473 48.0637C94.3105 48.2181 94.6101 48.2952 94.946 48.2952ZM103.962 49.9837C103.363 49.9837 102.823 49.8612 102.342 49.6161C101.86 49.3619 101.447 49.0169 101.102 48.5812C100.767 48.1454 100.508 47.6325 100.326 47.0425C100.145 46.4433 100.054 45.7988 100.054 45.1088C100.054 44.4189 100.145 43.7789 100.326 43.1888C100.508 42.5897 100.767 42.0723 101.102 41.6365C101.447 41.2008 101.86 40.8603 102.342 40.6152C102.823 40.361 103.363 40.234 103.962 40.234C104.561 40.234 105.101 40.361 105.582 40.6152C106.064 40.8603 106.472 41.2008 106.808 41.6365C107.153 42.0723 107.416 42.5897 107.598 43.1888C107.779 43.7789 107.87 44.4189 107.87 45.1088C107.87 45.7988 107.779 46.4433 107.598 47.0425C107.416 47.6325 107.153 48.1454 106.808 48.5812C106.472 49.0169 106.064 49.3619 105.582 49.6161C105.101 49.8612 104.561 49.9837 103.962 49.9837ZM103.962 48.2952C104.289 48.2952 104.584 48.2181 104.847 48.0637C105.11 47.9003 105.333 47.6779 105.514 47.3965C105.705 47.106 105.846 46.7656 105.936 46.3752C106.036 45.9849 106.086 45.5627 106.086 45.1088C106.086 44.6459 106.036 44.2237 105.936 43.8425C105.846 43.4521 105.705 43.1162 105.514 42.8348C105.333 42.5443 105.11 42.3219 104.847 42.1676C104.584 42.0042 104.289 41.9225 103.962 41.9225C103.626 41.9225 103.327 42.0042 103.063 42.1676C102.8 42.3219 102.578 42.5443 102.396 42.8348C102.214 43.1162 102.074 43.4521 101.974 43.8425C101.883 44.2237 101.838 44.6459 101.838 45.1088C101.838 45.5627 101.883 45.9849 101.974 46.3752C102.074 46.7656 102.214 47.106 102.396 47.3965C102.578 47.6779 102.8 47.9003 103.063 48.0637C103.327 48.2181 103.626 48.2952 103.962 48.2952ZM112.978 49.9837C112.379 49.9837 111.839 49.8612 111.357 49.6161C110.876 49.3619 110.463 49.0169 110.118 48.5812C109.782 48.1454 109.524 47.6325 109.342 47.0425C109.161 46.4433 109.07 45.7988 109.07 45.1088C109.07 44.4189 109.161 43.7789 109.342 43.1888C109.524 42.5897 109.782 42.0723 110.118 41.6365C110.463 41.2008 110.876 40.8603 111.357 40.6152C111.839 40.361 112.379 40.234 112.978 40.234C113.577 40.234 114.117 40.361 114.598 40.6152C115.079 40.8603 115.488 41.2008 115.824 41.6365C116.169 42.0723 116.432 42.5897 116.614 43.1888C116.795 43.7789 116.886 44.4189 116.886 45.1088C116.886 45.7988 116.795 46.4433 116.614 47.0425C116.432 47.6325 116.169 48.1454 115.824 48.5812C115.488 49.0169 115.079 49.3619 114.598 49.6161C114.117 49.8612 113.577 49.9837 112.978 49.9837ZM112.978 48.2952C113.305 48.2952 113.6 48.2181 113.863 48.0637C114.126 47.9003 114.349 47.6779 114.53 47.3965C114.721 47.106 114.862 46.7656 114.952 46.3752C115.052 45.9849 115.102 45.5627 115.102 45.1088C115.102 44.6459 115.052 44.2237 114.952 43.8425C114.862 43.4521 114.721 43.1162 114.53 42.8348C114.349 42.5443 114.126 42.3219 113.863 42.1676C113.6 42.0042 113.305 41.9225 112.978 41.9225C112.642 41.9225 112.342 42.0042 112.079 42.1676C111.816 42.3219 111.594 42.5443 111.412 42.8348C111.23 43.1162 111.09 43.4521 110.99 43.8425C110.899 44.2237 110.854 44.6459 110.854 45.1088C110.854 45.5627 110.899 45.9849 110.99 46.3752C111.09 46.7656 111.23 47.106 111.412 47.3965C111.594 47.6779 111.816 47.9003 112.079 48.0637C112.342 48.2181 112.642 48.2952 112.978 48.2952Z" fill="#7584B5"/>
<g filter="url(#filter3_ddii)">
<path d="M56.6145 49.9837C56.1152 49.9837 55.6567 49.9111 55.2391 49.7659C54.8306 49.6206 54.4766 49.4254 54.177 49.1803C53.8774 48.9262 53.6459 48.6311 53.4825 48.2952C53.3191 47.9503 53.2374 47.5781 53.2374 47.1786C53.2374 46.9063 53.2737 46.6521 53.3464 46.4161C53.4281 46.1801 53.5325 45.9667 53.6596 45.7761C53.7957 45.5854 53.9501 45.4175 54.1225 45.2723C54.295 45.127 54.4766 45.0045 54.6672 44.9046V44.7957C54.3676 44.5959 54.1044 44.3327 53.8774 44.0059C53.6596 43.6791 53.5506 43.2978 53.5506 42.862C53.5506 42.4898 53.6278 42.1449 53.7821 41.8271C53.9364 41.5003 54.1498 41.2189 54.4221 40.9829C54.6945 40.7469 55.0167 40.5653 55.3889 40.4382C55.7611 40.302 56.1696 40.234 56.6145 40.234C57.0593 40.234 57.4678 40.302 57.84 40.4382C58.2122 40.5653 58.5345 40.7469 58.8068 40.9829C59.0791 41.2189 59.2925 41.5003 59.4468 41.8271C59.6011 42.1449 59.6783 42.4898 59.6783 42.862C59.6783 43.2978 59.5648 43.6791 59.3379 44.0059C59.12 44.3327 58.8613 44.5959 58.5617 44.7957V44.9046C58.7523 45.0045 58.9339 45.127 59.1064 45.2723C59.2789 45.4175 59.4286 45.5854 59.5557 45.7761C59.6919 45.9667 59.7963 46.1801 59.8689 46.4161C59.9506 46.6521 59.9915 46.9063 59.9915 47.1786C59.9915 47.5781 59.9098 47.9503 59.7464 48.2952C59.583 48.6311 59.3515 48.9262 59.0519 49.1803C58.7523 49.4254 58.3937 49.6206 57.9762 49.7659C57.5676 49.9111 57.1137 49.9837 56.6145 49.9837ZM56.6145 44.1284C56.9957 44.1284 57.3135 44.024 57.5676 43.8152C57.8218 43.5974 57.9489 43.3159 57.9489 42.971C57.9489 42.6169 57.8218 42.3401 57.5676 42.1403C57.3135 41.9315 56.9957 41.8271 56.6145 41.8271C56.2332 41.8271 55.9154 41.9315 55.6613 42.1403C55.4071 42.3401 55.28 42.6169 55.28 42.971C55.28 43.3159 55.4071 43.5974 55.6613 43.8152C55.9154 44.024 56.2332 44.1284 56.6145 44.1284ZM56.6145 48.3361C57.0774 48.3361 57.4587 48.2181 57.7583 47.982C58.0579 47.7369 58.2076 47.4101 58.2076 47.0016C58.2076 46.811 58.1668 46.6385 58.0851 46.4842C58.0034 46.3208 57.8899 46.1801 57.7447 46.062C57.6085 45.944 57.4406 45.8532 57.2408 45.7897C57.0502 45.7262 56.8414 45.6944 56.6145 45.6944C56.3875 45.6944 56.1742 45.7262 55.9745 45.7897C55.7838 45.8532 55.6159 45.944 55.4706 46.062C55.3345 46.1801 55.2255 46.3208 55.1438 46.4842C55.0621 46.6385 55.0213 46.811 55.0213 47.0016C55.0213 47.4101 55.1711 47.7369 55.4706 47.982C55.7702 48.2181 56.1515 48.3361 56.6145 48.3361ZM65.3862 49.7659V48.0501H61.0832V46.6067L65.2228 40.4518H67.1564V46.3888H68.3274V48.0501H67.1564V49.7659H65.3862ZM65.3862 43.1071H65.2772L63.0576 46.3888H65.3862V43.1071ZM73.3141 43.7744C73.6682 43.7744 74.0131 43.8515 74.349 44.0059C74.6849 44.1511 74.9845 44.3554 75.2478 44.6186C75.511 44.8819 75.7198 45.1996 75.8741 45.5718C76.0375 45.944 76.1192 46.3525 76.1192 46.7974C76.1192 47.2603 76.0285 47.687 75.8469 48.0774C75.6653 48.4677 75.4202 48.8036 75.1116 49.085C74.812 49.3664 74.4625 49.5888 74.0631 49.7523C73.6727 49.9066 73.2597 49.9837 72.8239 49.9837C72.3156 49.9837 71.8571 49.8975 71.4486 49.725C71.0401 49.5435 70.6861 49.3074 70.3865 49.0169C70.096 48.7174 69.869 48.3724 69.7056 47.982C69.5513 47.5826 69.4741 47.165 69.4741 46.7293C69.4741 46.1029 69.5967 45.531 69.8418 45.0135C70.096 44.487 70.4137 43.9514 70.795 43.4067L73.0554 40.1795L74.4307 41.1327L72.5243 43.8288L72.5924 43.9105C72.8012 43.8198 73.0418 43.7744 73.3141 43.7744ZM72.7967 48.3361C72.9964 48.3361 73.1916 48.2998 73.3822 48.2271C73.5729 48.1545 73.7408 48.0501 73.8861 47.914C74.0313 47.7778 74.1448 47.6189 74.2265 47.4374C74.3173 47.2467 74.3626 47.0379 74.3626 46.811C74.3626 46.584 74.3173 46.3752 74.2265 46.1846C74.1448 45.994 74.0313 45.8305 73.8861 45.6944C73.7408 45.5582 73.5729 45.4538 73.3822 45.3812C73.1916 45.3086 72.9964 45.2723 72.7967 45.2723C72.5879 45.2723 72.3882 45.3086 72.1975 45.3812C72.016 45.4538 71.848 45.5582 71.6937 45.6944C71.5485 45.8305 71.4304 45.994 71.3397 46.1846C71.258 46.3752 71.2171 46.584 71.2171 46.811C71.2171 47.0379 71.258 47.2467 71.3397 47.4374C71.4304 47.6189 71.5485 47.7778 71.6937 47.914C71.848 48.0501 72.016 48.1545 72.1975 48.2271C72.3882 48.2998 72.5879 48.3361 72.7967 48.3361Z" fill="#599FFF"/>
</g>
</g>
<g clip-path="url(#clip1)">
<g filter="url(#filter4_i)">
<path fill-rule="evenodd" clip-rule="evenodd" d="M187.234 114.383C187.234 88.0613 208.572 66.7234 234.894 66.7234C261.215 66.7234 282.553 88.0613 282.553 114.383C282.553 140.705 261.215 162.043 234.894 162.043C208.572 162.043 187.234 140.705 187.234 114.383ZM268.936 114.383C268.936 95.5818 253.695 80.3404 234.894 80.3404C216.092 80.3404 200.851 95.5818 200.851 114.383C200.851 133.184 216.092 148.426 234.894 148.426C253.695 148.426 268.936 133.184 268.936 114.383Z" fill="#1A223F"/>
</g>
<g filter="url(#filter5_ddii)">
<path fill-rule="evenodd" clip-rule="evenodd" d="M234.894 66.7234C261.215 66.7234 282.553 88.0613 282.553 114.383C282.553 134.226 270.313 151.778 252.118 158.833C248.612 160.192 244.668 158.452 243.308 154.946C241.949 151.44 243.689 147.496 247.195 146.137C260.192 141.098 268.936 128.559 268.936 114.383C268.936 95.5818 253.695 80.3404 234.894 80.3404C231.133 80.3404 228.085 77.2921 228.085 73.5319C228.085 69.7717 231.133 66.7234 234.894 66.7234Z" fill="#599FFF"/>
</g>
<circle cx="235.574" cy="73.5319" r="2.7234" fill="#212C50"/>
<circle cx="251.234" cy="151.83" r="2.7234" fill="#212C50"/>
<path d="M217.393 21.3969V23.7989H218.804C219.16 23.7989 219.461 23.6846 219.709 23.4558C219.957 23.2207 220.081 22.9315 220.081 22.5884C220.081 22.2707 219.963 21.9942 219.728 21.7591C219.499 21.5176 219.21 21.3969 218.861 21.3969H217.393ZM217.393 27.3829H216.516V20.5581H218.842C219.433 20.5581 219.935 20.7551 220.348 21.1491C220.767 21.5367 220.977 22.0165 220.977 22.5884C220.977 23.0586 220.821 23.478 220.51 23.8466C220.205 24.2088 219.817 24.4408 219.347 24.5424L219.328 24.571L221.244 27.3448V27.3829H220.205L218.365 24.6187H217.393V27.3829ZM223.878 27.5354C223.192 27.5354 222.626 27.3003 222.181 26.8301C221.737 26.3598 221.514 25.7657 221.514 25.0476C221.514 24.3359 221.73 23.7449 222.162 23.2747C222.594 22.7981 223.147 22.5598 223.821 22.5598C224.514 22.5598 225.063 22.7854 225.47 23.2366C225.883 23.6814 226.089 24.3073 226.089 25.1143L226.08 25.2097H222.41C222.423 25.6672 222.575 26.0358 222.868 26.3154C223.16 26.595 223.51 26.7348 223.916 26.7348C224.475 26.7348 224.914 26.4552 225.232 25.896L226.013 26.2772C225.804 26.6712 225.511 26.9794 225.136 27.2018C224.768 27.4242 224.348 27.5354 223.878 27.5354ZM222.477 24.4852H225.155C225.13 24.1611 224.996 23.8943 224.755 23.6846C224.52 23.4685 224.202 23.3605 223.802 23.3605C223.471 23.3605 223.185 23.4621 222.944 23.6655C222.709 23.8688 222.553 24.1421 222.477 24.4852ZM231.361 29.4418H230.484V27.3829L230.522 26.7348H230.484C230.331 26.9762 230.112 27.1701 229.826 27.3162C229.547 27.4624 229.235 27.5354 228.892 27.5354C228.282 27.5354 227.758 27.294 227.319 26.811C226.887 26.3217 226.671 25.7339 226.671 25.0476C226.671 24.3613 226.887 23.7735 227.319 23.2842C227.758 22.8013 228.282 22.5598 228.892 22.5598C229.235 22.5598 229.547 22.6329 229.826 22.779C230.112 22.9252 230.331 23.119 230.484 23.3605H230.522V22.7123H231.361V29.4418ZM229.035 26.7348C229.467 26.7348 229.82 26.5791 230.093 26.2677C230.379 25.9563 230.522 25.5496 230.522 25.0476C230.522 24.5583 230.379 24.1548 230.093 23.8371C229.813 23.5193 229.461 23.3605 229.035 23.3605C228.616 23.3605 228.263 23.5193 227.977 23.8371C227.691 24.1548 227.548 24.5583 227.548 25.0476C227.548 25.5433 227.691 25.9468 227.977 26.2582C228.263 26.5759 228.616 26.7348 229.035 26.7348ZM236.491 27.3829H235.653V26.7348H235.615C235.481 26.9635 235.275 27.1542 234.995 27.3067C234.722 27.4592 234.436 27.5354 234.137 27.5354C233.565 27.5354 233.124 27.3734 232.812 27.0493C232.507 26.7189 232.355 26.2518 232.355 25.6481V22.7123H233.232V25.5909C233.251 26.3535 233.635 26.7348 234.385 26.7348C234.734 26.7348 235.027 26.595 235.262 26.3154C235.497 26.0294 235.615 25.6894 235.615 25.2954V22.7123H236.491V27.3829ZM239.609 27.5354C238.923 27.5354 238.358 27.3003 237.913 26.8301C237.468 26.3598 237.246 25.7657 237.246 25.0476C237.246 24.3359 237.462 23.7449 237.894 23.2747C238.326 22.7981 238.879 22.5598 239.552 22.5598C240.245 22.5598 240.795 22.7854 241.201 23.2366C241.614 23.6814 241.821 24.3073 241.821 25.1143L241.811 25.2097H238.142C238.154 25.6672 238.307 26.0358 238.599 26.3154C238.891 26.595 239.241 26.7348 239.648 26.7348C240.207 26.7348 240.645 26.4552 240.963 25.896L241.745 26.2772C241.535 26.6712 241.243 26.9794 240.868 27.2018C240.499 27.4242 240.08 27.5354 239.609 27.5354ZM238.208 24.4852H240.887C240.861 24.1611 240.728 23.8943 240.486 23.6846C240.251 23.4685 239.934 23.3605 239.533 23.3605C239.203 23.3605 238.917 23.4621 238.675 23.6655C238.44 23.8688 238.285 24.1421 238.208 24.4852ZM246.244 26.0866C246.244 26.4933 246.066 26.8364 245.71 27.116C245.354 27.3956 244.906 27.5354 244.366 27.5354C243.896 27.5354 243.483 27.4147 243.127 27.1732C242.771 26.9254 242.517 26.6013 242.364 26.201L243.146 25.8674C243.26 26.147 243.426 26.3662 243.642 26.5251C243.864 26.6776 244.105 26.7538 244.366 26.7538C244.646 26.7538 244.878 26.6935 245.062 26.5727C245.252 26.452 245.348 26.309 245.348 26.1438C245.348 25.8451 245.119 25.6259 244.662 25.4861L243.861 25.2859C242.952 25.0571 242.498 24.6187 242.498 23.9705C242.498 23.5448 242.669 23.2048 243.012 22.9506C243.362 22.6901 243.807 22.5598 244.347 22.5598C244.76 22.5598 245.132 22.6583 245.462 22.8553C245.799 23.0523 246.034 23.316 246.168 23.6464L245.386 23.9705C245.297 23.7735 245.151 23.621 244.947 23.513C244.75 23.3986 244.528 23.3414 244.28 23.3414C244.051 23.3414 243.845 23.3986 243.661 23.513C243.483 23.6274 243.394 23.7672 243.394 23.9324C243.394 24.1993 243.645 24.3899 244.147 24.5043L244.852 24.6854C245.78 24.9142 246.244 25.3812 246.244 26.0866ZM248.81 27.4592C248.428 27.4592 248.111 27.3416 247.857 27.1065C247.609 26.8714 247.482 26.5441 247.475 26.1247V23.513H246.656V22.7123H247.475V21.2825H248.352V22.7123H249.496V23.513H248.352V25.8388C248.352 26.1501 248.413 26.363 248.533 26.4774C248.654 26.5854 248.791 26.6394 248.943 26.6394C249.013 26.6394 249.08 26.6331 249.143 26.6204C249.213 26.6013 249.277 26.5791 249.334 26.5537L249.61 27.3353C249.382 27.4179 249.115 27.4592 248.81 27.4592ZM253.998 26.0866C253.998 26.4933 253.82 26.8364 253.464 27.116C253.108 27.3956 252.66 27.5354 252.12 27.5354C251.65 27.5354 251.237 27.4147 250.881 27.1732C250.525 26.9254 250.271 26.6013 250.118 26.201L250.9 25.8674C251.014 26.147 251.18 26.3662 251.396 26.5251C251.618 26.6776 251.859 26.7538 252.12 26.7538C252.4 26.7538 252.632 26.6935 252.816 26.5727C253.006 26.452 253.102 26.309 253.102 26.1438C253.102 25.8451 252.873 25.6259 252.416 25.4861L251.615 25.2859C250.706 25.0571 250.252 24.6187 250.252 23.9705C250.252 23.5448 250.423 23.2048 250.766 22.9506C251.116 22.6901 251.561 22.5598 252.101 22.5598C252.514 22.5598 252.886 22.6583 253.216 22.8553C253.553 23.0523 253.788 23.316 253.922 23.6464L253.14 23.9705C253.051 23.7735 252.905 23.621 252.701 23.513C252.504 23.3986 252.282 23.3414 252.034 23.3414C251.805 23.3414 251.599 23.3986 251.415 23.513C251.237 23.6274 251.148 23.7672 251.148 23.9324C251.148 24.1993 251.399 24.3899 251.901 24.5043L252.606 24.6854C253.534 24.9142 253.998 25.3812 253.998 26.0866Z" fill="#7584B5"/>
<path d="M198.206 49.7659V48.1454C198.742 47.6189 199.236 47.1287 199.69 46.6748C199.881 46.4842 200.076 46.289 200.276 46.0893C200.476 45.8896 200.662 45.7035 200.834 45.531C201.007 45.3585 201.161 45.2042 201.297 45.068C201.433 44.9227 201.538 44.8093 201.61 44.7276C201.756 44.5551 201.883 44.4008 201.992 44.2646C202.11 44.1284 202.2 43.9968 202.264 43.8697C202.337 43.7335 202.391 43.6019 202.427 43.4748C202.464 43.3386 202.482 43.1934 202.482 43.0391C202.482 42.7395 202.364 42.4808 202.128 42.2629C201.892 42.0359 201.57 41.9225 201.161 41.9225C200.752 41.9225 200.435 42.0405 200.208 42.2765C199.981 42.5035 199.827 42.7622 199.745 43.0527L198.124 42.3854C198.197 42.1403 198.315 41.8907 198.478 41.6365C198.642 41.3732 198.851 41.1418 199.105 40.942C199.359 40.7332 199.659 40.5653 200.004 40.4382C200.358 40.302 200.752 40.234 201.188 40.234C201.66 40.234 202.087 40.3066 202.468 40.4518C202.85 40.588 203.172 40.7786 203.435 41.0237C203.698 41.2688 203.903 41.5593 204.048 41.8952C204.193 42.222 204.266 42.5761 204.266 42.9574C204.266 43.5384 204.12 44.074 203.83 44.5642C203.549 45.0453 203.204 45.4947 202.795 45.9123L201.624 47.0833C201.315 47.392 200.966 47.7369 200.575 48.1182L200.63 48.1999H204.402V49.7659H198.206ZM209.848 49.7659V48.0501H205.545V46.6067L209.684 40.4518H211.618V46.3888H212.789V48.0501H211.618V49.7659H209.848ZM209.848 43.1071H209.739L207.519 46.3888H209.848V43.1071ZM217.898 49.9837C217.299 49.9837 216.759 49.8612 216.278 49.6161C215.797 49.3619 215.384 49.0169 215.039 48.5812C214.703 48.1454 214.444 47.6325 214.262 47.0425C214.081 46.4433 213.99 45.7988 213.99 45.1088C213.99 44.4189 214.081 43.7789 214.262 43.1888C214.444 42.5897 214.703 42.0723 215.039 41.6365C215.384 41.2008 215.797 40.8603 216.278 40.6152C216.759 40.361 217.299 40.234 217.898 40.234C218.497 40.234 219.037 40.361 219.519 40.6152C220 40.8603 220.408 41.2008 220.744 41.6365C221.089 42.0723 221.352 42.5897 221.534 43.1888C221.715 43.7789 221.806 44.4189 221.806 45.1088C221.806 45.7988 221.715 46.4433 221.534 47.0425C221.352 47.6325 221.089 48.1454 220.744 48.5812C220.408 49.0169 220 49.3619 219.519 49.6161C219.037 49.8612 218.497 49.9837 217.898 49.9837ZM217.898 48.2952C218.225 48.2952 218.52 48.2181 218.783 48.0637C219.046 47.9003 219.269 47.6779 219.45 47.3965C219.641 47.106 219.782 46.7656 219.873 46.3752C219.972 45.9849 220.022 45.5627 220.022 45.1088C220.022 44.6459 219.972 44.2237 219.873 43.8425C219.782 43.4521 219.641 43.1162 219.45 42.8348C219.269 42.5443 219.046 42.3219 218.783 42.1676C218.52 42.0042 218.225 41.9225 217.898 41.9225C217.562 41.9225 217.263 42.0042 216.999 42.1676C216.736 42.3219 216.514 42.5443 216.332 42.8348C216.151 43.1162 216.01 43.4521 215.91 43.8425C215.819 44.2237 215.774 44.6459 215.774 45.1088C215.774 45.5627 215.819 45.9849 215.91 46.3752C216.01 46.7656 216.151 47.106 216.332 47.3965C216.514 47.6779 216.736 47.9003 216.999 48.0637C217.263 48.2181 217.562 48.2952 217.898 48.2952ZM226.914 49.9837C226.315 49.9837 225.775 49.8612 225.294 49.6161C224.813 49.3619 224.399 49.0169 224.055 48.5812C223.719 48.1454 223.46 47.6325 223.278 47.0425C223.097 46.4433 223.006 45.7988 223.006 45.1088C223.006 44.4189 223.097 43.7789 223.278 43.1888C223.46 42.5897 223.719 42.0723 224.055 41.6365C224.399 41.2008 224.813 40.8603 225.294 40.6152C225.775 40.361 226.315 40.234 226.914 40.234C227.513 40.234 228.053 40.361 228.535 40.6152C229.016 40.8603 229.424 41.2008 229.76 41.6365C230.105 42.0723 230.368 42.5897 230.55 43.1888C230.731 43.7789 230.822 44.4189 230.822 45.1088C230.822 45.7988 230.731 46.4433 230.55 47.0425C230.368 47.6325 230.105 48.1454 229.76 48.5812C229.424 49.0169 229.016 49.3619 228.535 49.6161C228.053 49.8612 227.513 49.9837 226.914 49.9837ZM226.914 48.2952C227.241 48.2952 227.536 48.2181 227.799 48.0637C228.062 47.9003 228.285 47.6779 228.466 47.3965C228.657 47.106 228.798 46.7656 228.889 46.3752C228.988 45.9849 229.038 45.5627 229.038 45.1088C229.038 44.6459 228.988 44.2237 228.889 43.8425C228.798 43.4521 228.657 43.1162 228.466 42.8348C228.285 42.5443 228.062 42.3219 227.799 42.1676C227.536 42.0042 227.241 41.9225 226.914 41.9225C226.578 41.9225 226.279 42.0042 226.015 42.1676C225.752 42.3219 225.53 42.5443 225.348 42.8348C225.167 43.1162 225.026 43.4521 224.926 43.8425C224.835 44.2237 224.79 44.6459 224.79 45.1088C224.79 45.5627 224.835 45.9849 224.926 46.3752C225.026 46.7656 225.167 47.106 225.348 47.3965C225.53 47.6779 225.752 47.9003 226.015 48.0637C226.279 48.2181 226.578 48.2952 226.914 48.2952Z" fill="#599FFF"/>
<path d="M231.79 49.7659L235.835 40.0161H237.591L233.547 49.7659H231.79ZM241.805 43.7744C242.159 43.7744 242.504 43.8515 242.84 44.0059C243.176 44.1511 243.475 44.3554 243.738 44.6186C244.002 44.8819 244.211 45.1996 244.365 45.5718C244.528 45.944 244.61 46.3525 244.61 46.7974C244.61 47.2603 244.519 47.687 244.338 48.0774C244.156 48.4677 243.911 48.8036 243.602 49.085C243.303 49.3664 242.953 49.5888 242.554 49.7523C242.163 49.9066 241.75 49.9837 241.315 49.9837C240.806 49.9837 240.348 49.8975 239.939 49.725C239.531 49.5435 239.177 49.3074 238.877 49.0169C238.587 48.7174 238.36 48.3724 238.196 47.982C238.042 47.5826 237.965 47.165 237.965 46.7293C237.965 46.1029 238.087 45.531 238.332 45.0135C238.587 44.487 238.904 43.9514 239.286 43.4067L241.546 40.1795L242.921 41.1327L241.015 43.8288L241.083 43.9105C241.292 43.8198 241.532 43.7744 241.805 43.7744ZM241.287 48.3361C241.487 48.3361 241.682 48.2998 241.873 48.2271C242.064 48.1545 242.231 48.0501 242.377 47.914C242.522 47.7778 242.635 47.6189 242.717 47.4374C242.808 47.2467 242.853 47.0379 242.853 46.811C242.853 46.584 242.808 46.3752 242.717 46.1846C242.635 45.994 242.522 45.8305 242.377 45.6944C242.231 45.5582 242.064 45.4538 241.873 45.3812C241.682 45.3086 241.487 45.2723 241.287 45.2723C241.079 45.2723 240.879 45.3086 240.688 45.3812C240.507 45.4538 240.339 45.5582 240.184 45.6944C240.039 45.8305 239.921 45.994 239.83 46.1846C239.749 46.3752 239.708 46.584 239.708 46.811C239.708 47.0379 239.749 47.2467 239.83 47.4374C239.921 47.6189 240.039 47.7778 240.184 47.914C240.339 48.0501 240.507 48.1545 240.688 48.2271C240.879 48.2998 241.079 48.3361 241.287 48.3361ZM249.667 49.9837C249.068 49.9837 248.527 49.8612 248.046 49.6161C247.565 49.3619 247.152 49.0169 246.807 48.5812C246.471 48.1454 246.213 47.6325 246.031 47.0425C245.849 46.4433 245.759 45.7988 245.759 45.1088C245.759 44.4189 245.849 43.7789 246.031 43.1888C246.213 42.5897 246.471 42.0723 246.807 41.6365C247.152 41.2008 247.565 40.8603 248.046 40.6152C248.527 40.361 249.068 40.234 249.667 40.234C250.266 40.234 250.806 40.361 251.287 40.6152C251.768 40.8603 252.177 41.2008 252.513 41.6365C252.858 42.0723 253.121 42.5897 253.302 43.1888C253.484 43.7789 253.575 44.4189 253.575 45.1088C253.575 45.7988 253.484 46.4433 253.302 47.0425C253.121 47.6325 252.858 48.1454 252.513 48.5812C252.177 49.0169 251.768 49.3619 251.287 49.6161C250.806 49.8612 250.266 49.9837 249.667 49.9837ZM249.667 48.2952C249.994 48.2952 250.289 48.2181 250.552 48.0637C250.815 47.9003 251.038 47.6779 251.219 47.3965C251.41 47.106 251.55 46.7656 251.641 46.3752C251.741 45.9849 251.791 45.5627 251.791 45.1088C251.791 44.6459 251.741 44.2237 251.641 43.8425C251.55 43.4521 251.41 43.1162 251.219 42.8348C251.038 42.5443 250.815 42.3219 250.552 42.1676C250.289 42.0042 249.994 41.9225 249.667 41.9225C249.331 41.9225 249.031 42.0042 248.768 42.1676C248.505 42.3219 248.282 42.5443 248.101 42.8348C247.919 43.1162 247.779 43.4521 247.679 43.8425C247.588 44.2237 247.542 44.6459 247.542 45.1088C247.542 45.5627 247.588 45.9849 247.679 46.3752C247.779 46.7656 247.919 47.106 248.101 47.3965C248.282 47.6779 248.505 47.9003 248.768 48.0637C249.031 48.2181 249.331 48.2952 249.667 48.2952ZM258.683 49.9837C258.084 49.9837 257.543 49.8612 257.062 49.6161C256.581 49.3619 256.168 49.0169 255.823 48.5812C255.487 48.1454 255.229 47.6325 255.047 47.0425C254.865 46.4433 254.775 45.7988 254.775 45.1088C254.775 44.4189 254.865 43.7789 255.047 43.1888C255.229 42.5897 255.487 42.0723 255.823 41.6365C256.168 41.2008 256.581 40.8603 257.062 40.6152C257.543 40.361 258.084 40.234 258.683 40.234C259.282 40.234 259.822 40.361 260.303 40.6152C260.784 40.8603 261.193 41.2008 261.529 41.6365C261.874 42.0723 262.137 42.5897 262.318 43.1888C262.5 43.7789 262.591 44.4189 262.591 45.1088C262.591 45.7988 262.5 46.4433 262.318 47.0425C262.137 47.6325 261.874 48.1454 261.529 48.5812C261.193 49.0169 260.784 49.3619 260.303 49.6161C259.822 49.8612 259.282 49.9837 258.683 49.9837ZM258.683 48.2952C259.01 48.2952 259.305 48.2181 259.568 48.0637C259.831 47.9003 260.053 47.6779 260.235 47.3965C260.426 47.106 260.566 46.7656 260.657 46.3752C260.757 45.9849 260.807 45.5627 260.807 45.1088C260.807 44.6459 260.757 44.2237 260.657 43.8425C260.566 43.4521 260.426 43.1162 260.235 42.8348C260.053 42.5443 259.831 42.3219 259.568 42.1676C259.305 42.0042 259.01 41.9225 258.683 41.9225C258.347 41.9225 258.047 42.0042 257.784 42.1676C257.521 42.3219 257.298 42.5443 257.117 42.8348C256.935 43.1162 256.794 43.4521 256.695 43.8425C256.604 44.2237 256.558 44.6459 256.558 45.1088C256.558 45.5627 256.604 45.9849 256.695 46.3752C256.794 46.7656 256.935 47.106 257.117 47.3965C257.298 47.6779 257.521 47.9003 257.784 48.0637C258.047 48.2181 258.347 48.2952 258.683 48.2952ZM267.699 49.9837C267.1 49.9837 266.559 49.8612 266.078 49.6161C265.597 49.3619 265.184 49.0169 264.839 48.5812C264.503 48.1454 264.244 47.6325 264.063 47.0425C263.881 46.4433 263.791 45.7988 263.791 45.1088C263.791 44.4189 263.881 43.7789 264.063 43.1888C264.244 42.5897 264.503 42.0723 264.839 41.6365C265.184 41.2008 265.597 40.8603 266.078 40.6152C266.559 40.361 267.1 40.234 267.699 40.234C268.298 40.234 268.838 40.361 269.319 40.6152C269.8 40.8603 270.209 41.2008 270.545 41.6365C270.89 42.0723 271.153 42.5897 271.334 43.1888C271.516 43.7789 271.607 44.4189 271.607 45.1088C271.607 45.7988 271.516 46.4433 271.334 47.0425C271.153 47.6325 270.89 48.1454 270.545 48.5812C270.209 49.0169 269.8 49.3619 269.319 49.6161C268.838 49.8612 268.298 49.9837 267.699 49.9837ZM267.699 48.2952C268.025 48.2952 268.32 48.2181 268.584 48.0637C268.847 47.9003 269.069 47.6779 269.251 47.3965C269.442 47.106 269.582 46.7656 269.673 46.3752C269.773 45.9849 269.823 45.5627 269.823 45.1088C269.823 44.6459 269.773 44.2237 269.673 43.8425C269.582 43.4521 269.442 43.1162 269.251 42.8348C269.069 42.5443 268.847 42.3219 268.584 42.1676C268.32 42.0042 268.025 41.9225 267.699 41.9225C267.363 41.9225 267.063 42.0042 266.8 42.1676C266.537 42.3219 266.314 42.5443 266.133 42.8348C265.951 43.1162 265.81 43.4521 265.711 43.8425C265.62 44.2237 265.574 44.6459 265.574 45.1088C265.574 45.5627 265.62 45.9849 265.711 46.3752C265.81 46.7656 265.951 47.106 266.133 47.3965C266.314 47.6779 266.537 47.9003 266.8 48.0637C267.063 48.2181 267.363 48.2952 267.699 48.2952Z" fill="#7584B5"/>
<g filter="url(#filter6_ddii)">
<path d="M198.173 49.7659V48.1454C198.708 47.6189 199.203 47.1287 199.657 46.6748C199.848 46.4842 200.043 46.289 200.243 46.0893C200.442 45.8896 200.628 45.7035 200.801 45.531C200.973 45.3585 201.128 45.2042 201.264 45.068C201.4 44.9227 201.504 44.8093 201.577 44.7276C201.722 44.5551 201.849 44.4008 201.958 44.2646C202.076 44.1284 202.167 43.9968 202.231 43.8697C202.303 43.7335 202.358 43.6019 202.394 43.4748C202.43 43.3386 202.449 43.1934 202.449 43.0391C202.449 42.7395 202.331 42.4808 202.095 42.2629C201.859 42.0359 201.536 41.9225 201.128 41.9225C200.719 41.9225 200.402 42.0405 200.175 42.2765C199.948 42.5035 199.793 42.7622 199.712 43.0527L198.091 42.3854C198.164 42.1403 198.282 41.8907 198.445 41.6365C198.609 41.3732 198.817 41.1418 199.072 40.942C199.326 40.7332 199.625 40.5653 199.97 40.4382C200.324 40.302 200.719 40.234 201.155 40.234C201.627 40.234 202.054 40.3066 202.435 40.4518C202.816 40.588 203.139 40.7786 203.402 41.0237C203.665 41.2688 203.869 41.5593 204.015 41.8952C204.16 42.222 204.232 42.5761 204.232 42.9574C204.232 43.5384 204.087 44.074 203.797 44.5642C203.515 45.0453 203.17 45.4947 202.762 45.9123L201.591 47.0833C201.282 47.392 200.933 47.7369 200.542 48.1182L200.597 48.1999H204.369V49.7659H198.173ZM209.814 49.7659V48.0501H205.511V46.6067L209.651 40.4518H211.585V46.3888H212.756V48.0501H211.585V49.7659H209.814ZM209.814 43.1071H209.705L207.486 46.3888H209.814V43.1071ZM217.865 49.9837C217.266 49.9837 216.726 49.8612 216.244 49.6161C215.763 49.3619 215.35 49.0169 215.005 48.5812C214.669 48.1454 214.411 47.6325 214.229 47.0425C214.048 46.4433 213.957 45.7988 213.957 45.1088C213.957 44.4189 214.048 43.7789 214.229 43.1888C214.411 42.5897 214.669 42.0723 215.005 41.6365C215.35 41.2008 215.763 40.8603 216.244 40.6152C216.726 40.361 217.266 40.234 217.865 40.234C218.464 40.234 219.004 40.361 219.485 40.6152C219.966 40.8603 220.375 41.2008 220.711 41.6365C221.056 42.0723 221.319 42.5897 221.501 43.1888C221.682 43.7789 221.773 44.4189 221.773 45.1088C221.773 45.7988 221.682 46.4433 221.501 47.0425C221.319 47.6325 221.056 48.1454 220.711 48.5812C220.375 49.0169 219.966 49.3619 219.485 49.6161C219.004 49.8612 218.464 49.9837 217.865 49.9837ZM217.865 48.2952C218.192 48.2952 218.487 48.2181 218.75 48.0637C219.013 47.9003 219.236 47.6779 219.417 47.3965C219.608 47.106 219.749 46.7656 219.839 46.3752C219.939 45.9849 219.989 45.5627 219.989 45.1088C219.989 44.6459 219.939 44.2237 219.839 43.8425C219.749 43.4521 219.608 43.1162 219.417 42.8348C219.236 42.5443 219.013 42.3219 218.75 42.1676C218.487 42.0042 218.192 41.9225 217.865 41.9225C217.529 41.9225 217.229 42.0042 216.966 42.1676C216.703 42.3219 216.48 42.5443 216.299 42.8348C216.117 43.1162 215.977 43.4521 215.877 43.8425C215.786 44.2237 215.741 44.6459 215.741 45.1088C215.741 45.5627 215.786 45.9849 215.877 46.3752C215.977 46.7656 216.117 47.106 216.299 47.3965C216.48 47.6779 216.703 47.9003 216.966 48.0637C217.229 48.2181 217.529 48.2952 217.865 48.2952ZM226.881 49.9837C226.282 49.9837 225.742 49.8612 225.26 49.6161C224.779 49.3619 224.366 49.0169 224.021 48.5812C223.685 48.1454 223.427 47.6325 223.245 47.0425C223.064 46.4433 222.973 45.7988 222.973 45.1088C222.973 44.4189 223.064 43.7789 223.245 43.1888C223.427 42.5897 223.685 42.0723 224.021 41.6365C224.366 41.2008 224.779 40.8603 225.26 40.6152C225.742 40.361 226.282 40.234 226.881 40.234C227.48 40.234 228.02 40.361 228.501 40.6152C228.982 40.8603 229.391 41.2008 229.727 41.6365C230.072 42.0723 230.335 42.5897 230.517 43.1888C230.698 43.7789 230.789 44.4189 230.789 45.1088C230.789 45.7988 230.698 46.4433 230.517 47.0425C230.335 47.6325 230.072 48.1454 229.727 48.5812C229.391 49.0169 228.982 49.3619 228.501 49.6161C228.02 49.8612 227.48 49.9837 226.881 49.9837ZM226.881 48.2952C227.208 48.2952 227.503 48.2181 227.766 48.0637C228.029 47.9003 228.252 47.6779 228.433 47.3965C228.624 47.106 228.765 46.7656 228.855 46.3752C228.955 45.9849 229.005 45.5627 229.005 45.1088C229.005 44.6459 228.955 44.2237 228.855 43.8425C228.765 43.4521 228.624 43.1162 228.433 42.8348C228.252 42.5443 228.029 42.3219 227.766 42.1676C227.503 42.0042 227.208 41.9225 226.881 41.9225C226.545 41.9225 226.245 42.0042 225.982 42.1676C225.719 42.3219 225.496 42.5443 225.315 42.8348C225.133 43.1162 224.993 43.4521 224.893 43.8425C224.802 44.2237 224.757 44.6459 224.757 45.1088C224.757 45.5627 224.802 45.9849 224.893 46.3752C224.993 46.7656 225.133 47.106 225.315 47.3965C225.496 47.6779 225.719 47.9003 225.982 48.0637C226.245 48.2181 226.545 48.2952 226.881 48.2952Z" fill="#599FFF"/>
</g>
</g>
<defs>
<filter id="filter0_ddii" x="-27" y="-27" width="394" height="253.745" filterUnits="userSpaceOnUse" color-interpolation-filters="sRGB">
<feFlood flood-opacity="0" result="BackgroundImageFix"/>
<feColorMatrix in="SourceAlpha" type="matrix" values="0 0 0 0 0 0 0 0 0 0 0 0 0 0 0 0 0 0 127 0"/>
<feOffset dx="20" dy="20"/>
<feGaussianBlur stdDeviation="13.5"/>
<feColorMatrix type="matrix" values="0 0 0 0 0 0 0 0 0 0 0 0 0 0 0 0 0 0 0.2 0"/>
<feBlend mode="normal" in2="BackgroundImageFix" result="effect1_dropShadow"/>
<feColorMatrix in="SourceAlpha" type="matrix" values="0 0 0 0 0 0 0 0 0 0 0 0 0 0 0 0 0 0 127 0"/>
<feOffset dx="-7" dy="-7"/>
<feGaussianBlur stdDeviation="10"/>
<feColorMatrix type="matrix" values="0 0 0 0 0.100933 0 0 0 0 0.14801 0 0 0 0 0.303725 0 0 0 1 0"/>
<feBlend mode="normal" in2="effect1_dropShadow" result="effect2_dropShadow"/>
<feBlend mode="normal" in="SourceGraphic" in2="effect2_dropShadow" result="shape"/>
<feColorMatrix in="SourceAlpha" type="matrix" values="0 0 0 0 0 0 0 0 0 0 0 0 0 0 0 0 0 0 127 0" result="hardAlpha"/>
<feOffset dx="4" dy="4"/>
<feGaussianBlur stdDeviation="3.5"/>
<feComposite in2="hardAlpha" operator="arithmetic" k2="-1" k3="1"/>
<feColorMatrix type="matrix" values="0 0 0 0 0.192853 0 0 0 0 0.251381 0 0 0 0 0.444973 0 0 0 1 0"/>
<feBlend mode="normal" in2="shape" result="effect3_innerShadow"/>
<feColorMatrix in="SourceAlpha" type="matrix" values="0 0 0 0 0 0 0 0 0 0 0 0 0 0 0 0 0 0 127 0" result="hardAlpha"/>
<feOffset dx="-4" dy="-4"/>
<feGaussianBlur stdDeviation="3.5"/>
<feComposite in2="hardAlpha" operator="arithmetic" k2="-1" k3="1"/>
<feColorMatrix type="matrix" values="0 0 0 0 0.103918 0 0 0 0 0.154724 0 0 0 0 0.322775 0 0 0 1 0"/>
<feBlend mode="normal" in2="effect3_innerShadow" result="effect4_innerShadow"/>
</filter>
<filter id="filter1_i" x="37.4468" y="66.7234" width="97.3191" height="97.3191" filterUnits="userSpaceOnUse" color-interpolation-filters="sRGB">
<feFlood flood-opacity="0" result="BackgroundImageFix"/>
<feBlend mode="normal" in="SourceGraphic" in2="BackgroundImageFix" result="shape"/>
<feColorMatrix in="SourceAlpha" type="matrix" values="0 0 0 0 0 0 0 0 0 0 0 0 0 0 0 0 0 0 127 0" result="hardAlpha"/>
<feOffset dx="2" dy="2"/>
<feGaussianBlur stdDeviation="3.5"/>
<feComposite in2="hardAlpha" operator="arithmetic" k2="-1" k3="1"/>
<feColorMatrix type="matrix" values="0 0 0 0 0 0 0 0 0 0 0 0 0 0 0 0 0 0 0.1 0"/>
<feBlend mode="normal" in2="shape" result="effect1_innerShadow"/>
</filter>
<filter id="filter2_ddii" x="51.9786" y="39.7234" width="107.787" height="107.787" filterUnits="userSpaceOnUse" color-interpolation-filters="sRGB">
<feFlood flood-opacity="0" result="BackgroundImageFix"/>
<feColorMatrix in="SourceAlpha" type="matrix" values="0 0 0 0 0 0 0 0 0 0 0 0 0 0 0 0 0 0 127 0"/>
<feOffset dx="7" dy="7"/>
<feGaussianBlur stdDeviation="10"/>
<feColorMatrix type="matrix" values="0 0 0 0 0.0344006 0 0 0 0 0.24043 0 0 0 0 0.522985 0 0 0 0.4 0"/>
<feBlend mode="normal" in2="BackgroundImageFix" result="effect1_dropShadow"/>
<feColorMatrix in="SourceAlpha" type="matrix" values="0 0 0 0 0 0 0 0 0 0 0 0 0 0 0 0 0 0 127 0"/>
<feOffset dx="-7" dy="-7"/>
<feGaussianBlur stdDeviation="10"/>
<feColorMatrix type="matrix" values="0 0 0 0 0.106163 0 0 0 0 0.257163 0 0 0 0 0.464249 0 0 0 0.6 0"/>
<feBlend mode="normal" in2="effect1_dropShadow" result="effect2_dropShadow"/>
<feBlend mode="normal" in="SourceGraphic" in2="effect2_dropShadow" result="shape"/>
<feColorMatrix in="SourceAlpha" type="matrix" values="0 0 0 0 0 0 0 0 0 0 0 0 0 0 0 0 0 0 127 0" result="hardAlpha"/>
<feOffset dx="7" dy="7"/>
<feGaussianBlur stdDeviation="3.5"/>
<feComposite in2="hardAlpha" operator="arithmetic" k2="-1" k3="1"/>
<feColorMatrix type="matrix" values="0 0 0 0 0.498171 0 0 0 0 0.709785 0 0 0 0 1 0 0 0 1 0"/>
<feBlend mode="normal" in2="shape" result="effect3_innerShadow"/>
<feColorMatrix in="SourceAlpha" type="matrix" values="0 0 0 0 0 0 0 0 0 0 0 0 0 0 0 0 0 0 127 0" result="hardAlpha"/>
<feOffset dx="-7" dy="-7"/>
<feGaussianBlur stdDeviation="3.5"/>
<feComposite in2="hardAlpha" operator="arithmetic" k2="-1" k3="1"/>
<feColorMatrix type="matrix" values="0 0 0 0 0.228705 0 0 0 0 0.550273 0 0 0 0 0.991282 0 0 0 1 0"/>
<feBlend mode="normal" in2="effect3_innerShadow" result="effect4_innerShadow"/>
</filter>
<filter id="filter3_ddii" x="26.2374" y="13.1794" width="76.8818" height="63.8043" filterUnits="userSpaceOnUse" color-interpolation-filters="sRGB">
<feFlood flood-opacity="0" result="BackgroundImageFix"/>
<feColorMatrix in="SourceAlpha" type="matrix" values="0 0 0 0 0 0 0 0 0 0 0 0 0 0 0 0 0 0 127 0"/>
<feOffset dx="7" dy="7"/>
<feGaussianBlur stdDeviation="10"/>
<feColorMatrix type="matrix" values="0 0 0 0 0.0344006 0 0 0 0 0.24043 0 0 0 0 0.522985 0 0 0 0.4 0"/>
<feBlend mode="normal" in2="BackgroundImageFix" result="effect1_dropShadow"/>
<feColorMatrix in="SourceAlpha" type="matrix" values="0 0 0 0 0 0 0 0 0 0 0 0 0 0 0 0 0 0 127 0"/>
<feOffset dx="-7" dy="-7"/>
<feGaussianBlur stdDeviation="10"/>
<feColorMatrix type="matrix" values="0 0 0 0 0.106163 0 0 0 0 0.257163 0 0 0 0 0.464249 0 0 0 0.6 0"/>
<feBlend mode="normal" in2="effect1_dropShadow" result="effect2_dropShadow"/>
<feBlend mode="normal" in="SourceGraphic" in2="effect2_dropShadow" result="shape"/>
<feColorMatrix in="SourceAlpha" type="matrix" values="0 0 0 0 0 0 0 0 0 0 0 0 0 0 0 0 0 0 127 0" result="hardAlpha"/>
<feOffset dx="7" dy="7"/>
<feGaussianBlur stdDeviation="3.5"/>
<feComposite in2="hardAlpha" operator="arithmetic" k2="-1" k3="1"/>
<feColorMatrix type="matrix" values="0 0 0 0 0.498171 0 0 0 0 0.709785 0 0 0 0 1 0 0 0 1 0"/>
<feBlend mode="normal" in2="shape" result="effect3_innerShadow"/>
<feColorMatrix in="SourceAlpha" type="matrix" values="0 0 0 0 0 0 0 0 0 0 0 0 0 0 0 0 0 0 127 0" result="hardAlpha"/>
<feOffset dx="-7" dy="-7"/>
<feGaussianBlur stdDeviation="3.5"/>
<feComposite in2="hardAlpha" operator="arithmetic" k2="-1" k3="1"/>
<feColorMatrix type="matrix" values="0 0 0 0 0.228705 0 0 0 0 0.550273 0 0 0 0 0.991282 0 0 0 1 0"/>
<feBlend mode="normal" in2="effect3_innerShadow" result="effect4_innerShadow"/>
</filter>
<filter id="filter4_i" x="187.234" y="66.7234" width="97.3191" height="97.3191" filterUnits="userSpaceOnUse" color-interpolation-filters="sRGB">
<feFlood flood-opacity="0" result="BackgroundImageFix"/>
<feBlend mode="normal" in="SourceGraphic" in2="BackgroundImageFix" result="shape"/>
<feColorMatrix in="SourceAlpha" type="matrix" values="0 0 0 0 0 0 0 0 0 0 0 0 0 0 0 0 0 0 127 0" result="hardAlpha"/>
<feOffset dx="2" dy="2"/>
<feGaussianBlur stdDeviation="3.5"/>
<feComposite in2="hardAlpha" operator="arithmetic" k2="-1" k3="1"/>
<feColorMatrix type="matrix" values="0 0 0 0 0 0 0 0 0 0 0 0 0 0 0 0 0 0 0.1 0"/>
<feBlend mode="normal" in2="shape" result="effect1_innerShadow"/>
</filter>
<filter id="filter5_ddii" x="201.085" y="39.7234" width="108.468" height="146.572" filterUnits="userSpaceOnUse" color-interpolation-filters="sRGB">
<feFlood flood-opacity="0" result="BackgroundImageFix"/>
<feColorMatrix in="SourceAlpha" type="matrix" values="0 0 0 0 0 0 0 0 0 0 0 0 0 0 0 0 0 0 127 0"/>
<feOffset dx="7" dy="7"/>
<feGaussianBlur stdDeviation="10"/>
<feColorMatrix type="matrix" values="0 0 0 0 0.0344006 0 0 0 0 0.24043 0 0 0 0 0.522985 0 0 0 0.4 0"/>
<feBlend mode="normal" in2="BackgroundImageFix" result="effect1_dropShadow"/>
<feColorMatrix in="SourceAlpha" type="matrix" values="0 0 0 0 0 0 0 0 0 0 0 0 0 0 0 0 0 0 127 0"/>
<feOffset dx="-7" dy="-7"/>
<feGaussianBlur stdDeviation="10"/>
<feColorMatrix type="matrix" values="0 0 0 0 0.106163 0 0 0 0 0.257163 0 0 0 0 0.464249 0 0 0 0.6 0"/>
<feBlend mode="normal" in2="effect1_dropShadow" result="effect2_dropShadow"/>
<feBlend mode="normal" in="SourceGraphic" in2="effect2_dropShadow" result="shape"/>
<feColorMatrix in="SourceAlpha" type="matrix" values="0 0 0 0 0 0 0 0 0 0 0 0 0 0 0 0 0 0 127 0" result="hardAlpha"/>
<feOffset dx="7" dy="7"/>
<feGaussianBlur stdDeviation="3.5"/>
<feComposite in2="hardAlpha" operator="arithmetic" k2="-1" k3="1"/>
<feColorMatrix type="matrix" values="0 0 0 0 0.498171 0 0 0 0 0.709785 0 0 0 0 1 0 0 0 1 0"/>
<feBlend mode="normal" in2="shape" result="effect3_innerShadow"/>
<feColorMatrix in="SourceAlpha" type="matrix" values="0 0 0 0 0 0 0 0 0 0 0 0 0 0 0 0 0 0 127 0" result="hardAlpha"/>
<feOffset dx="-7" dy="-7"/>
<feGaussianBlur stdDeviation="3.5"/>
<feComposite in2="hardAlpha" operator="arithmetic" k2="-1" k3="1"/>
<feColorMatrix type="matrix" values="0 0 0 0 0.228705 0 0 0 0 0.550273 0 0 0 0 0.991282 0 0 0 1 0"/>
<feBlend mode="normal" in2="effect3_innerShadow" result="effect4_innerShadow"/>
</filter>
<filter id="filter6_ddii" x="171.091" y="13.234" width="86.6978" height="63.7498" filterUnits="userSpaceOnUse" color-interpolation-filters="sRGB">
<feFlood flood-opacity="0" result="BackgroundImageFix"/>
<feColorMatrix in="SourceAlpha" type="matrix" values="0 0 0 0 0 0 0 0 0 0 0 0 0 0 0 0 0 0 127 0"/>
<feOffset dx="7" dy="7"/>
<feGaussianBlur stdDeviation="10"/>
<feColorMatrix type="matrix" values="0 0 0 0 0.0344006 0 0 0 0 0.24043 0 0 0 0 0.522985 0 0 0 0.4 0"/>
<feBlend mode="normal" in2="BackgroundImageFix" result="effect1_dropShadow"/>
<feColorMatrix in="SourceAlpha" type="matrix" values="0 0 0 0 0 0 0 0 0 0 0 0 0 0 0 0 0 0 127 0"/>
<feOffset dx="-7" dy="-7"/>
<feGaussianBlur stdDeviation="10"/>
<feColorMatrix type="matrix" values="0 0 0 0 0.106163 0 0 0 0 0.257163 0 0 0 0 0.464249 0 0 0 0.6 0"/>
<feBlend mode="normal" in2="effect1_dropShadow" result="effect2_dropShadow"/>
<feBlend mode="normal" in="SourceGraphic" in2="effect2_dropShadow" result="shape"/>
<feColorMatrix in="SourceAlpha" type="matrix" values="0 0 0 0 0 0 0 0 0 0 0 0 0 0 0 0 0 0 127 0" result="hardAlpha"/>
<feOffset dx="7" dy="7"/>
<feGaussianBlur stdDeviation="3.5"/>
<feComposite in2="hardAlpha" operator="arithmetic" k2="-1" k3="1"/>
<feColorMatrix type="matrix" values="0 0 0 0 0.498171 0 0 0 0 0.709785 0 0 0 0 1 0 0 0 1 0"/>
<feBlend mode="normal" in2="shape" result="effect3_innerShadow"/>
<feColorMatrix in="SourceAlpha" type="matrix" values="0 0 0 0 0 0 0 0 0 0 0 0 0 0 0 0 0 0 127 0" result="hardAlpha"/>
<feOffset dx="-7" dy="-7"/>
<feGaussianBlur stdDeviation="3.5"/>
<feComposite in2="hardAlpha" operator="arithmetic" k2="-1" k3="1"/>
<feColorMatrix type="matrix" values="0 0 0 0 0.228705 0 0 0 0 0.550273 0 0 0 0 0.991282 0 0 0 1 0"/>
<feBlend mode="normal" in2="effect3_innerShadow" result="effect4_innerShadow"/>
</filter>
<clipPath id="clip0">
<rect width="96" height="145" fill="white" transform="translate(37.4468 18.3829)"/>
</clipPath>
<clipPath id="clip1">
<rect width="96" height="145" fill="white" transform="translate(187.234 18.3829)"/>
</clipPath>
</defs>
</svg>
